G04 #@! TF.GenerationSoftware,KiCad,Pcbnew,(5.1.0-0)*
G04 #@! TF.CreationDate,2019-09-28T00:10:19+01:00*
G04 #@! TF.ProjectId,badge,62616467-652e-46b6-9963-61645f706362,rev?*
G04 #@! TF.SameCoordinates,Original*
G04 #@! TF.FileFunction,Paste,Top*
G04 #@! TF.FilePolarity,Positive*
%FSLAX46Y46*%
G04 Gerber Fmt 4.6, Leading zero omitted, Abs format (unit mm)*
G04 Created by KiCad (PCBNEW (5.1.0-0)) date 2019-09-28 00:10:19*
%MOMM*%
%LPD*%
G04 APERTURE LIST*
%ADD10R,2.000000X1.700000*%
%ADD11C,1.700000*%
%ADD12C,0.100000*%
%ADD13R,1.700000X2.000000*%
G04 APERTURE END LIST*
D10*
X226092000Y-73660000D03*
X230092000Y-73660000D03*
D11*
X225257513Y-78928739D03*
D12*
G36*
X224043792Y-79428120D02*
G01*
X224569121Y-77811324D01*
X226471234Y-78429358D01*
X225945905Y-80046154D01*
X224043792Y-79428120D01*
X224043792Y-79428120D01*
G37*
D11*
X229061739Y-80164807D03*
D12*
G36*
X227848018Y-80664188D02*
G01*
X228373347Y-79047392D01*
X230275460Y-79665426D01*
X229750131Y-81282222D01*
X227848018Y-80664188D01*
X227848018Y-80664188D01*
G37*
D11*
X222835739Y-83681738D03*
D12*
G36*
X221527105Y-83781617D02*
G01*
X222526339Y-82406288D01*
X224144373Y-83581859D01*
X223145139Y-84957188D01*
X221527105Y-83781617D01*
X221527105Y-83781617D01*
G37*
D11*
X226071807Y-86032880D03*
D12*
G36*
X224763173Y-86132759D02*
G01*
X225762407Y-84757430D01*
X227380441Y-85933001D01*
X226381207Y-87308330D01*
X224763173Y-86132759D01*
X224763173Y-86132759D01*
G37*
D11*
X219063738Y-87453739D03*
D12*
G36*
X217788288Y-87144339D02*
G01*
X219163617Y-86145105D01*
X220339188Y-87763139D01*
X218963859Y-88762373D01*
X217788288Y-87144339D01*
X217788288Y-87144339D01*
G37*
D11*
X221414880Y-90689807D03*
D12*
G36*
X220139430Y-90380407D02*
G01*
X221514759Y-89381173D01*
X222690330Y-90999207D01*
X221315001Y-91998441D01*
X220139430Y-90380407D01*
X220139430Y-90380407D01*
G37*
D11*
X214310739Y-89875513D03*
D12*
G36*
X213193324Y-89187121D02*
G01*
X214810120Y-88661792D01*
X215428154Y-90563905D01*
X213811358Y-91089234D01*
X213193324Y-89187121D01*
X213193324Y-89187121D01*
G37*
D11*
X215546807Y-93679739D03*
D12*
G36*
X214429392Y-92991347D02*
G01*
X216046188Y-92466018D01*
X216664222Y-94368131D01*
X215047426Y-94893460D01*
X214429392Y-92991347D01*
X214429392Y-92991347D01*
G37*
D13*
X209042000Y-90710000D03*
X209042000Y-94710000D03*
D11*
X203773260Y-89875513D03*
D12*
G36*
X203273879Y-88661792D02*
G01*
X204890675Y-89187121D01*
X204272641Y-91089234D01*
X202655845Y-90563905D01*
X203273879Y-88661792D01*
X203273879Y-88661792D01*
G37*
D11*
X202537192Y-93679739D03*
D12*
G36*
X202037811Y-92466018D02*
G01*
X203654607Y-92991347D01*
X203036573Y-94893460D01*
X201419777Y-94368131D01*
X202037811Y-92466018D01*
X202037811Y-92466018D01*
G37*
D11*
X199020261Y-87453739D03*
D12*
G36*
X198920382Y-86145105D02*
G01*
X200295711Y-87144339D01*
X199120140Y-88762373D01*
X197744811Y-87763139D01*
X198920382Y-86145105D01*
X198920382Y-86145105D01*
G37*
D11*
X196669119Y-90689807D03*
D12*
G36*
X196569240Y-89381173D02*
G01*
X197944569Y-90380407D01*
X196768998Y-91998441D01*
X195393669Y-90999207D01*
X196569240Y-89381173D01*
X196569240Y-89381173D01*
G37*
D11*
X195248261Y-83681738D03*
D12*
G36*
X195557661Y-82406288D02*
G01*
X196556895Y-83781617D01*
X194938861Y-84957188D01*
X193939627Y-83581859D01*
X195557661Y-82406288D01*
X195557661Y-82406288D01*
G37*
D11*
X192012193Y-86032880D03*
D12*
G36*
X192321593Y-84757430D02*
G01*
X193320827Y-86132759D01*
X191702793Y-87308330D01*
X190703559Y-85933001D01*
X192321593Y-84757430D01*
X192321593Y-84757430D01*
G37*
D11*
X192826487Y-78928739D03*
D12*
G36*
X193514879Y-77811324D02*
G01*
X194040208Y-79428120D01*
X192138095Y-80046154D01*
X191612766Y-78429358D01*
X193514879Y-77811324D01*
X193514879Y-77811324D01*
G37*
D11*
X189022261Y-80164807D03*
D12*
G36*
X189710653Y-79047392D02*
G01*
X190235982Y-80664188D01*
X188333869Y-81282222D01*
X187808540Y-79665426D01*
X189710653Y-79047392D01*
X189710653Y-79047392D01*
G37*
D10*
X191992000Y-73660000D03*
X187992000Y-73660000D03*
D11*
X192826487Y-68391260D03*
D12*
G36*
X194040208Y-67891879D02*
G01*
X193514879Y-69508675D01*
X191612766Y-68890641D01*
X192138095Y-67273845D01*
X194040208Y-67891879D01*
X194040208Y-67891879D01*
G37*
D11*
X189022261Y-67155192D03*
D12*
G36*
X190235982Y-66655811D02*
G01*
X189710653Y-68272607D01*
X187808540Y-67654573D01*
X188333869Y-66037777D01*
X190235982Y-66655811D01*
X190235982Y-66655811D01*
G37*
D11*
X195248261Y-63638261D03*
D12*
G36*
X196556895Y-63538382D02*
G01*
X195557661Y-64913711D01*
X193939627Y-63738140D01*
X194938861Y-62362811D01*
X196556895Y-63538382D01*
X196556895Y-63538382D01*
G37*
D11*
X192012193Y-61287119D03*
D12*
G36*
X193320827Y-61187240D02*
G01*
X192321593Y-62562569D01*
X190703559Y-61386998D01*
X191702793Y-60011669D01*
X193320827Y-61187240D01*
X193320827Y-61187240D01*
G37*
D11*
X199020261Y-59866261D03*
D12*
G36*
X200295711Y-60175661D02*
G01*
X198920382Y-61174895D01*
X197744811Y-59556861D01*
X199120140Y-58557627D01*
X200295711Y-60175661D01*
X200295711Y-60175661D01*
G37*
D11*
X196669119Y-56630193D03*
D12*
G36*
X197944569Y-56939593D02*
G01*
X196569240Y-57938827D01*
X195393669Y-56320793D01*
X196768998Y-55321559D01*
X197944569Y-56939593D01*
X197944569Y-56939593D01*
G37*
D11*
X203773260Y-57444487D03*
D12*
G36*
X204890675Y-58132879D02*
G01*
X203273879Y-58658208D01*
X202655845Y-56756095D01*
X204272641Y-56230766D01*
X204890675Y-58132879D01*
X204890675Y-58132879D01*
G37*
D11*
X202537192Y-53640261D03*
D12*
G36*
X203654607Y-54328653D02*
G01*
X202037811Y-54853982D01*
X201419777Y-52951869D01*
X203036573Y-52426540D01*
X203654607Y-54328653D01*
X203654607Y-54328653D01*
G37*
D13*
X209041999Y-56610000D03*
X209041999Y-52610000D03*
D11*
X214310739Y-57444487D03*
D12*
G36*
X214810120Y-58658208D02*
G01*
X213193324Y-58132879D01*
X213811358Y-56230766D01*
X215428154Y-56756095D01*
X214810120Y-58658208D01*
X214810120Y-58658208D01*
G37*
D11*
X215546807Y-53640261D03*
D12*
G36*
X216046188Y-54853982D02*
G01*
X214429392Y-54328653D01*
X215047426Y-52426540D01*
X216664222Y-52951869D01*
X216046188Y-54853982D01*
X216046188Y-54853982D01*
G37*
D11*
X219063738Y-59866261D03*
D12*
G36*
X219163617Y-61174895D02*
G01*
X217788288Y-60175661D01*
X218963859Y-58557627D01*
X220339188Y-59556861D01*
X219163617Y-61174895D01*
X219163617Y-61174895D01*
G37*
D11*
X221414880Y-56630193D03*
D12*
G36*
X221514759Y-57938827D02*
G01*
X220139430Y-56939593D01*
X221315001Y-55321559D01*
X222690330Y-56320793D01*
X221514759Y-57938827D01*
X221514759Y-57938827D01*
G37*
D11*
X222835739Y-63638261D03*
D12*
G36*
X222526339Y-64913711D02*
G01*
X221527105Y-63538382D01*
X223145139Y-62362811D01*
X224144373Y-63738140D01*
X222526339Y-64913711D01*
X222526339Y-64913711D01*
G37*
D11*
X226071807Y-61287119D03*
D12*
G36*
X225762407Y-62562569D02*
G01*
X224763173Y-61187240D01*
X226381207Y-60011669D01*
X227380441Y-61386998D01*
X225762407Y-62562569D01*
X225762407Y-62562569D01*
G37*
D11*
X225257513Y-68391260D03*
D12*
G36*
X224569121Y-69508675D02*
G01*
X224043792Y-67891879D01*
X225945905Y-67273845D01*
X226471234Y-68890641D01*
X224569121Y-69508675D01*
X224569121Y-69508675D01*
G37*
D11*
X229061739Y-67155192D03*
D12*
G36*
X228373347Y-68272607D02*
G01*
X227848018Y-66655811D01*
X229750131Y-66037777D01*
X230275460Y-67654573D01*
X228373347Y-68272607D01*
X228373347Y-68272607D01*
G37*
M02*
