G04 #@! TF.GenerationSoftware,KiCad,Pcbnew,(5.1.0-0)*
G04 #@! TF.CreationDate,2019-09-28T00:10:19+01:00*
G04 #@! TF.ProjectId,badge,62616467-652e-46b6-9963-61645f706362,rev?*
G04 #@! TF.SameCoordinates,Original*
G04 #@! TF.FileFunction,Legend,Bot*
G04 #@! TF.FilePolarity,Positive*
%FSLAX46Y46*%
G04 Gerber Fmt 4.6, Leading zero omitted, Abs format (unit mm)*
G04 Created by KiCad (PCBNEW (5.1.0-0)) date 2019-09-28 00:10:19*
%MOMM*%
%LPD*%
G04 APERTURE LIST*
%ADD10C,0.300000*%
%ADD11C,0.200000*%
%ADD12C,0.120000*%
%ADD13C,0.150000*%
G04 APERTURE END LIST*
D10*
X217442857Y-56487142D02*
X217300000Y-56558571D01*
X217014285Y-56558571D01*
X216871428Y-56487142D01*
X216800000Y-56344285D01*
X216800000Y-56272857D01*
X216871428Y-56130000D01*
X217014285Y-56058571D01*
X217228571Y-56058571D01*
X217371428Y-55987142D01*
X217442857Y-55844285D01*
X217442857Y-55772857D01*
X217371428Y-55630000D01*
X217228571Y-55558571D01*
X217014285Y-55558571D01*
X216871428Y-55630000D01*
X215514285Y-55558571D02*
X215514285Y-56558571D01*
X216157142Y-55558571D02*
X216157142Y-56344285D01*
X216085714Y-56487142D01*
X215942857Y-56558571D01*
X215728571Y-56558571D01*
X215585714Y-56487142D01*
X215514285Y-56415714D01*
X214800000Y-55558571D02*
X214800000Y-57058571D01*
X214800000Y-55630000D02*
X214657142Y-55558571D01*
X214371428Y-55558571D01*
X214228571Y-55630000D01*
X214157142Y-55701428D01*
X214085714Y-55844285D01*
X214085714Y-56272857D01*
X214157142Y-56415714D01*
X214228571Y-56487142D01*
X214371428Y-56558571D01*
X214657142Y-56558571D01*
X214800000Y-56487142D01*
X212871428Y-56487142D02*
X213014285Y-56558571D01*
X213300000Y-56558571D01*
X213442857Y-56487142D01*
X213514285Y-56344285D01*
X213514285Y-55772857D01*
X213442857Y-55630000D01*
X213300000Y-55558571D01*
X213014285Y-55558571D01*
X212871428Y-55630000D01*
X212800000Y-55772857D01*
X212800000Y-55915714D01*
X213514285Y-56058571D01*
X212157142Y-56558571D02*
X212157142Y-55558571D01*
X212157142Y-55844285D02*
X212085714Y-55701428D01*
X212014285Y-55630000D01*
X211871428Y-55558571D01*
X211728571Y-55558571D01*
X211228571Y-56558571D02*
X211228571Y-55058571D01*
X210585714Y-56558571D02*
X210585714Y-55772857D01*
X210657142Y-55630000D01*
X210800000Y-55558571D01*
X211014285Y-55558571D01*
X211157142Y-55630000D01*
X211228571Y-55701428D01*
X209228571Y-56558571D02*
X209228571Y-55772857D01*
X209300000Y-55630000D01*
X209442857Y-55558571D01*
X209728571Y-55558571D01*
X209871428Y-55630000D01*
X209228571Y-56487142D02*
X209371428Y-56558571D01*
X209728571Y-56558571D01*
X209871428Y-56487142D01*
X209942857Y-56344285D01*
X209942857Y-56201428D01*
X209871428Y-56058571D01*
X209728571Y-55987142D01*
X209371428Y-55987142D01*
X209228571Y-55915714D01*
X208585714Y-56487142D02*
X208442857Y-56558571D01*
X208157142Y-56558571D01*
X208014285Y-56487142D01*
X207942857Y-56344285D01*
X207942857Y-56272857D01*
X208014285Y-56130000D01*
X208157142Y-56058571D01*
X208371428Y-56058571D01*
X208514285Y-55987142D01*
X208585714Y-55844285D01*
X208585714Y-55772857D01*
X208514285Y-55630000D01*
X208371428Y-55558571D01*
X208157142Y-55558571D01*
X208014285Y-55630000D01*
X206657142Y-56558571D02*
X206657142Y-55058571D01*
X206657142Y-56487142D02*
X206800000Y-56558571D01*
X207085714Y-56558571D01*
X207228571Y-56487142D01*
X207300000Y-56415714D01*
X207371428Y-56272857D01*
X207371428Y-55844285D01*
X207300000Y-55701428D01*
X207228571Y-55630000D01*
X207085714Y-55558571D01*
X206800000Y-55558571D01*
X206657142Y-55630000D01*
X205300000Y-55558571D02*
X205300000Y-56558571D01*
X205942857Y-55558571D02*
X205942857Y-56344285D01*
X205871428Y-56487142D01*
X205728571Y-56558571D01*
X205514285Y-56558571D01*
X205371428Y-56487142D01*
X205300000Y-56415714D01*
X204585714Y-55558571D02*
X204585714Y-57058571D01*
X204585714Y-55630000D02*
X204442857Y-55558571D01*
X204157142Y-55558571D01*
X204014285Y-55630000D01*
X203942857Y-55701428D01*
X203871428Y-55844285D01*
X203871428Y-56272857D01*
X203942857Y-56415714D01*
X204014285Y-56487142D01*
X204157142Y-56558571D01*
X204442857Y-56558571D01*
X204585714Y-56487142D01*
X202657142Y-56487142D02*
X202800000Y-56558571D01*
X203085714Y-56558571D01*
X203228571Y-56487142D01*
X203300000Y-56344285D01*
X203300000Y-55772857D01*
X203228571Y-55630000D01*
X203085714Y-55558571D01*
X202800000Y-55558571D01*
X202657142Y-55630000D01*
X202585714Y-55772857D01*
X202585714Y-55915714D01*
X203300000Y-56058571D01*
X201942857Y-56558571D02*
X201942857Y-55558571D01*
X201942857Y-55844285D02*
X201871428Y-55701428D01*
X201800000Y-55630000D01*
X201657142Y-55558571D01*
X201514285Y-55558571D01*
X215871428Y-94587142D02*
X215657142Y-94658571D01*
X215300000Y-94658571D01*
X215157142Y-94587142D01*
X215085714Y-94515714D01*
X215014285Y-94372857D01*
X215014285Y-94230000D01*
X215085714Y-94087142D01*
X215157142Y-94015714D01*
X215300000Y-93944285D01*
X215585714Y-93872857D01*
X215728571Y-93801428D01*
X215800000Y-93730000D01*
X215871428Y-93587142D01*
X215871428Y-93444285D01*
X215800000Y-93301428D01*
X215728571Y-93230000D01*
X215585714Y-93158571D01*
X215228571Y-93158571D01*
X215014285Y-93230000D01*
X213728571Y-93658571D02*
X213728571Y-94658571D01*
X214371428Y-93658571D02*
X214371428Y-94444285D01*
X214300000Y-94587142D01*
X214157142Y-94658571D01*
X213942857Y-94658571D01*
X213800000Y-94587142D01*
X213728571Y-94515714D01*
X213014285Y-93658571D02*
X213014285Y-95158571D01*
X213014285Y-93730000D02*
X212871428Y-93658571D01*
X212585714Y-93658571D01*
X212442857Y-93730000D01*
X212371428Y-93801428D01*
X212300000Y-93944285D01*
X212300000Y-94372857D01*
X212371428Y-94515714D01*
X212442857Y-94587142D01*
X212585714Y-94658571D01*
X212871428Y-94658571D01*
X213014285Y-94587142D01*
X211085714Y-94587142D02*
X211228571Y-94658571D01*
X211514285Y-94658571D01*
X211657142Y-94587142D01*
X211728571Y-94444285D01*
X211728571Y-93872857D01*
X211657142Y-93730000D01*
X211514285Y-93658571D01*
X211228571Y-93658571D01*
X211085714Y-93730000D01*
X211014285Y-93872857D01*
X211014285Y-94015714D01*
X211728571Y-94158571D01*
X210371428Y-94658571D02*
X210371428Y-93658571D01*
X210371428Y-93944285D02*
X210300000Y-93801428D01*
X210228571Y-93730000D01*
X210085714Y-93658571D01*
X209942857Y-93658571D01*
X208942857Y-93872857D02*
X208728571Y-93944285D01*
X208657142Y-94015714D01*
X208585714Y-94158571D01*
X208585714Y-94372857D01*
X208657142Y-94515714D01*
X208728571Y-94587142D01*
X208871428Y-94658571D01*
X209442857Y-94658571D01*
X209442857Y-93158571D01*
X208942857Y-93158571D01*
X208800000Y-93230000D01*
X208728571Y-93301428D01*
X208657142Y-93444285D01*
X208657142Y-93587142D01*
X208728571Y-93730000D01*
X208800000Y-93801428D01*
X208942857Y-93872857D01*
X209442857Y-93872857D01*
X207300000Y-94658571D02*
X207300000Y-93872857D01*
X207371428Y-93730000D01*
X207514285Y-93658571D01*
X207800000Y-93658571D01*
X207942857Y-93730000D01*
X207300000Y-94587142D02*
X207442857Y-94658571D01*
X207800000Y-94658571D01*
X207942857Y-94587142D01*
X208014285Y-94444285D01*
X208014285Y-94301428D01*
X207942857Y-94158571D01*
X207800000Y-94087142D01*
X207442857Y-94087142D01*
X207300000Y-94015714D01*
X205942857Y-94658571D02*
X205942857Y-93158571D01*
X205942857Y-94587142D02*
X206085714Y-94658571D01*
X206371428Y-94658571D01*
X206514285Y-94587142D01*
X206585714Y-94515714D01*
X206657142Y-94372857D01*
X206657142Y-93944285D01*
X206585714Y-93801428D01*
X206514285Y-93730000D01*
X206371428Y-93658571D01*
X206085714Y-93658571D01*
X205942857Y-93730000D01*
X204585714Y-93658571D02*
X204585714Y-94872857D01*
X204657142Y-95015714D01*
X204728571Y-95087142D01*
X204871428Y-95158571D01*
X205085714Y-95158571D01*
X205228571Y-95087142D01*
X204585714Y-94587142D02*
X204728571Y-94658571D01*
X205014285Y-94658571D01*
X205157142Y-94587142D01*
X205228571Y-94515714D01*
X205300000Y-94372857D01*
X205300000Y-93944285D01*
X205228571Y-93801428D01*
X205157142Y-93730000D01*
X205014285Y-93658571D01*
X204728571Y-93658571D01*
X204585714Y-93730000D01*
X203300000Y-94587142D02*
X203442857Y-94658571D01*
X203728571Y-94658571D01*
X203871428Y-94587142D01*
X203942857Y-94444285D01*
X203942857Y-93872857D01*
X203871428Y-93730000D01*
X203728571Y-93658571D01*
X203442857Y-93658571D01*
X203300000Y-93730000D01*
X203228571Y-93872857D01*
X203228571Y-94015714D01*
X203942857Y-94158571D01*
D11*
X222573809Y-90622380D02*
X222573809Y-89622380D01*
X222145238Y-90622380D02*
X222145238Y-90098571D01*
X222192857Y-90003333D01*
X222288095Y-89955714D01*
X222430952Y-89955714D01*
X222526190Y-90003333D01*
X222573809Y-90050952D01*
X221811904Y-89955714D02*
X221430952Y-89955714D01*
X221669047Y-89622380D02*
X221669047Y-90479523D01*
X221621428Y-90574761D01*
X221526190Y-90622380D01*
X221430952Y-90622380D01*
X221240476Y-89955714D02*
X220859523Y-89955714D01*
X221097619Y-89622380D02*
X221097619Y-90479523D01*
X221050000Y-90574761D01*
X220954761Y-90622380D01*
X220859523Y-90622380D01*
X220526190Y-89955714D02*
X220526190Y-90955714D01*
X220526190Y-90003333D02*
X220430952Y-89955714D01*
X220240476Y-89955714D01*
X220145238Y-90003333D01*
X220097619Y-90050952D01*
X220050000Y-90146190D01*
X220050000Y-90431904D01*
X220097619Y-90527142D01*
X220145238Y-90574761D01*
X220240476Y-90622380D01*
X220430952Y-90622380D01*
X220526190Y-90574761D01*
X219669047Y-90574761D02*
X219573809Y-90622380D01*
X219383333Y-90622380D01*
X219288095Y-90574761D01*
X219240476Y-90479523D01*
X219240476Y-90431904D01*
X219288095Y-90336666D01*
X219383333Y-90289047D01*
X219526190Y-90289047D01*
X219621428Y-90241428D01*
X219669047Y-90146190D01*
X219669047Y-90098571D01*
X219621428Y-90003333D01*
X219526190Y-89955714D01*
X219383333Y-89955714D01*
X219288095Y-90003333D01*
X218811904Y-90527142D02*
X218764285Y-90574761D01*
X218811904Y-90622380D01*
X218859523Y-90574761D01*
X218811904Y-90527142D01*
X218811904Y-90622380D01*
X218811904Y-90003333D02*
X218764285Y-90050952D01*
X218811904Y-90098571D01*
X218859523Y-90050952D01*
X218811904Y-90003333D01*
X218811904Y-90098571D01*
X217621428Y-89574761D02*
X218478571Y-90860476D01*
X216573809Y-89574761D02*
X217430952Y-90860476D01*
X215811904Y-89955714D02*
X215811904Y-90765238D01*
X215859523Y-90860476D01*
X215907142Y-90908095D01*
X216002380Y-90955714D01*
X216145238Y-90955714D01*
X216240476Y-90908095D01*
X215811904Y-90574761D02*
X215907142Y-90622380D01*
X216097619Y-90622380D01*
X216192857Y-90574761D01*
X216240476Y-90527142D01*
X216288095Y-90431904D01*
X216288095Y-90146190D01*
X216240476Y-90050952D01*
X216192857Y-90003333D01*
X216097619Y-89955714D01*
X215907142Y-89955714D01*
X215811904Y-90003333D01*
X215335714Y-90622380D02*
X215335714Y-89955714D01*
X215335714Y-89622380D02*
X215383333Y-89670000D01*
X215335714Y-89717619D01*
X215288095Y-89670000D01*
X215335714Y-89622380D01*
X215335714Y-89717619D01*
X215002380Y-89955714D02*
X214621428Y-89955714D01*
X214859523Y-89622380D02*
X214859523Y-90479523D01*
X214811904Y-90574761D01*
X214716666Y-90622380D01*
X214621428Y-90622380D01*
X214288095Y-90622380D02*
X214288095Y-89622380D01*
X213859523Y-90622380D02*
X213859523Y-90098571D01*
X213907142Y-90003333D01*
X214002380Y-89955714D01*
X214145238Y-89955714D01*
X214240476Y-90003333D01*
X214288095Y-90050952D01*
X212954761Y-89955714D02*
X212954761Y-90622380D01*
X213383333Y-89955714D02*
X213383333Y-90479523D01*
X213335714Y-90574761D01*
X213240476Y-90622380D01*
X213097619Y-90622380D01*
X213002380Y-90574761D01*
X212954761Y-90527142D01*
X212478571Y-90622380D02*
X212478571Y-89622380D01*
X212478571Y-90003333D02*
X212383333Y-89955714D01*
X212192857Y-89955714D01*
X212097619Y-90003333D01*
X212050000Y-90050952D01*
X212002380Y-90146190D01*
X212002380Y-90431904D01*
X212050000Y-90527142D01*
X212097619Y-90574761D01*
X212192857Y-90622380D01*
X212383333Y-90622380D01*
X212478571Y-90574761D01*
X211573809Y-90527142D02*
X211526190Y-90574761D01*
X211573809Y-90622380D01*
X211621428Y-90574761D01*
X211573809Y-90527142D01*
X211573809Y-90622380D01*
X210669047Y-90574761D02*
X210764285Y-90622380D01*
X210954761Y-90622380D01*
X211050000Y-90574761D01*
X211097619Y-90527142D01*
X211145238Y-90431904D01*
X211145238Y-90146190D01*
X211097619Y-90050952D01*
X211050000Y-90003333D01*
X210954761Y-89955714D01*
X210764285Y-89955714D01*
X210669047Y-90003333D01*
X210097619Y-90622380D02*
X210192857Y-90574761D01*
X210240476Y-90527142D01*
X210288095Y-90431904D01*
X210288095Y-90146190D01*
X210240476Y-90050952D01*
X210192857Y-90003333D01*
X210097619Y-89955714D01*
X209954761Y-89955714D01*
X209859523Y-90003333D01*
X209811904Y-90050952D01*
X209764285Y-90146190D01*
X209764285Y-90431904D01*
X209811904Y-90527142D01*
X209859523Y-90574761D01*
X209954761Y-90622380D01*
X210097619Y-90622380D01*
X209335714Y-90622380D02*
X209335714Y-89955714D01*
X209335714Y-90050952D02*
X209288095Y-90003333D01*
X209192857Y-89955714D01*
X209050000Y-89955714D01*
X208954761Y-90003333D01*
X208907142Y-90098571D01*
X208907142Y-90622380D01*
X208907142Y-90098571D02*
X208859523Y-90003333D01*
X208764285Y-89955714D01*
X208621428Y-89955714D01*
X208526190Y-90003333D01*
X208478571Y-90098571D01*
X208478571Y-90622380D01*
X207288095Y-89574761D02*
X208145238Y-90860476D01*
X207002380Y-90574761D02*
X206907142Y-90622380D01*
X206716666Y-90622380D01*
X206621428Y-90574761D01*
X206573809Y-90479523D01*
X206573809Y-90431904D01*
X206621428Y-90336666D01*
X206716666Y-90289047D01*
X206859523Y-90289047D01*
X206954761Y-90241428D01*
X207002380Y-90146190D01*
X207002380Y-90098571D01*
X206954761Y-90003333D01*
X206859523Y-89955714D01*
X206716666Y-89955714D01*
X206621428Y-90003333D01*
X205716666Y-89955714D02*
X205716666Y-90622380D01*
X206145238Y-89955714D02*
X206145238Y-90479523D01*
X206097619Y-90574761D01*
X206002380Y-90622380D01*
X205859523Y-90622380D01*
X205764285Y-90574761D01*
X205716666Y-90527142D01*
X205240476Y-89955714D02*
X205240476Y-90955714D01*
X205240476Y-90003333D02*
X205145238Y-89955714D01*
X204954761Y-89955714D01*
X204859523Y-90003333D01*
X204811904Y-90050952D01*
X204764285Y-90146190D01*
X204764285Y-90431904D01*
X204811904Y-90527142D01*
X204859523Y-90574761D01*
X204954761Y-90622380D01*
X205145238Y-90622380D01*
X205240476Y-90574761D01*
X203954761Y-90574761D02*
X204050000Y-90622380D01*
X204240476Y-90622380D01*
X204335714Y-90574761D01*
X204383333Y-90479523D01*
X204383333Y-90098571D01*
X204335714Y-90003333D01*
X204240476Y-89955714D01*
X204050000Y-89955714D01*
X203954761Y-90003333D01*
X203907142Y-90098571D01*
X203907142Y-90193809D01*
X204383333Y-90289047D01*
X203478571Y-90622380D02*
X203478571Y-89955714D01*
X203478571Y-90146190D02*
X203430952Y-90050952D01*
X203383333Y-90003333D01*
X203288095Y-89955714D01*
X203192857Y-89955714D01*
X202859523Y-90622380D02*
X202859523Y-89622380D01*
X202430952Y-90622380D02*
X202430952Y-90098571D01*
X202478571Y-90003333D01*
X202573809Y-89955714D01*
X202716666Y-89955714D01*
X202811904Y-90003333D01*
X202859523Y-90050952D01*
X201526190Y-90622380D02*
X201526190Y-90098571D01*
X201573809Y-90003333D01*
X201669047Y-89955714D01*
X201859523Y-89955714D01*
X201954761Y-90003333D01*
X201526190Y-90574761D02*
X201621428Y-90622380D01*
X201859523Y-90622380D01*
X201954761Y-90574761D01*
X202002380Y-90479523D01*
X202002380Y-90384285D01*
X201954761Y-90289047D01*
X201859523Y-90241428D01*
X201621428Y-90241428D01*
X201526190Y-90193809D01*
X201097619Y-90574761D02*
X201002380Y-90622380D01*
X200811904Y-90622380D01*
X200716666Y-90574761D01*
X200669047Y-90479523D01*
X200669047Y-90431904D01*
X200716666Y-90336666D01*
X200811904Y-90289047D01*
X200954761Y-90289047D01*
X201050000Y-90241428D01*
X201097619Y-90146190D01*
X201097619Y-90098571D01*
X201050000Y-90003333D01*
X200954761Y-89955714D01*
X200811904Y-89955714D01*
X200716666Y-90003333D01*
X199811904Y-90622380D02*
X199811904Y-89622380D01*
X199811904Y-90574761D02*
X199907142Y-90622380D01*
X200097619Y-90622380D01*
X200192857Y-90574761D01*
X200240476Y-90527142D01*
X200288095Y-90431904D01*
X200288095Y-90146190D01*
X200240476Y-90050952D01*
X200192857Y-90003333D01*
X200097619Y-89955714D01*
X199907142Y-89955714D01*
X199811904Y-90003333D01*
X198907142Y-89955714D02*
X198907142Y-90622380D01*
X199335714Y-89955714D02*
X199335714Y-90479523D01*
X199288095Y-90574761D01*
X199192857Y-90622380D01*
X199050000Y-90622380D01*
X198954761Y-90574761D01*
X198907142Y-90527142D01*
X198430952Y-89955714D02*
X198430952Y-90955714D01*
X198430952Y-90003333D02*
X198335714Y-89955714D01*
X198145238Y-89955714D01*
X198050000Y-90003333D01*
X198002380Y-90050952D01*
X197954761Y-90146190D01*
X197954761Y-90431904D01*
X198002380Y-90527142D01*
X198050000Y-90574761D01*
X198145238Y-90622380D01*
X198335714Y-90622380D01*
X198430952Y-90574761D01*
X197145238Y-90574761D02*
X197240476Y-90622380D01*
X197430952Y-90622380D01*
X197526190Y-90574761D01*
X197573809Y-90479523D01*
X197573809Y-90098571D01*
X197526190Y-90003333D01*
X197430952Y-89955714D01*
X197240476Y-89955714D01*
X197145238Y-90003333D01*
X197097619Y-90098571D01*
X197097619Y-90193809D01*
X197573809Y-90289047D01*
X196669047Y-90622380D02*
X196669047Y-89955714D01*
X196669047Y-90146190D02*
X196621428Y-90050952D01*
X196573809Y-90003333D01*
X196478571Y-89955714D01*
X196383333Y-89955714D01*
D12*
X205426000Y-87944000D02*
X205426000Y-82744000D01*
X210566000Y-87944000D02*
X205426000Y-87944000D01*
X213166000Y-82744000D02*
X205426000Y-82744000D01*
X210566000Y-87944000D02*
X210566000Y-85344000D01*
X210566000Y-85344000D02*
X213166000Y-85344000D01*
X213166000Y-85344000D02*
X213166000Y-82744000D01*
X211836000Y-87944000D02*
X213166000Y-87944000D01*
X213166000Y-87944000D02*
X213166000Y-86614000D01*
X214710615Y-60455840D02*
G75*
G03X213796000Y-60840000I-124615J-984160D01*
G01*
X203881385Y-60455840D02*
G75*
G02X204796000Y-60840000I124615J-984160D01*
G01*
X213786661Y-60851329D02*
G75*
G02X204796000Y-60840000I-4490661J3711329D01*
G01*
X216046000Y-61990000D02*
G75*
G03X214596000Y-60440000I-1500000J50000D01*
G01*
X202546000Y-61990000D02*
G75*
G02X203996000Y-60440000I1500000J50000D01*
G01*
X216046000Y-64040000D02*
X216046000Y-61940000D01*
X202546000Y-64040000D02*
X202546000Y-61940000D01*
X202546000Y-68040000D02*
X202546000Y-69490000D01*
X202546000Y-69490000D02*
X205146000Y-72090000D01*
X205146000Y-72090000D02*
X205146000Y-72890000D01*
X205146000Y-72890000D02*
X213446000Y-72890000D01*
X213446000Y-72890000D02*
X213446000Y-72090000D01*
X213446000Y-72090000D02*
X216046000Y-69490000D01*
X216046000Y-69490000D02*
X216046000Y-68040000D01*
X218606000Y-76954000D02*
X218606000Y-75954000D01*
X220306000Y-75954000D02*
X220306000Y-76954000D01*
X201708000Y-80276000D02*
X201708000Y-74156000D01*
X201708000Y-74156000D02*
X198088000Y-74156000D01*
X198088000Y-74156000D02*
X198088000Y-80276000D01*
X198088000Y-80276000D02*
X201708000Y-80276000D01*
D13*
X211625000Y-75149000D02*
X211625000Y-75199000D01*
X207475000Y-75149000D02*
X207475000Y-75294000D01*
X207475000Y-80299000D02*
X207475000Y-80154000D01*
X211625000Y-80299000D02*
X211625000Y-80154000D01*
X211625000Y-75149000D02*
X207475000Y-75149000D01*
X211625000Y-80299000D02*
X207475000Y-80299000D01*
X211625000Y-75199000D02*
X213025000Y-75199000D01*
X214523142Y-84129714D02*
X214570761Y-84082095D01*
X214618380Y-83939238D01*
X214618380Y-83844000D01*
X214570761Y-83701142D01*
X214475523Y-83605904D01*
X214380285Y-83558285D01*
X214189809Y-83510666D01*
X214046952Y-83510666D01*
X213856476Y-83558285D01*
X213761238Y-83605904D01*
X213666000Y-83701142D01*
X213618380Y-83844000D01*
X213618380Y-83939238D01*
X213666000Y-84082095D01*
X213713619Y-84129714D01*
X213618380Y-84748761D02*
X213618380Y-84939238D01*
X213666000Y-85034476D01*
X213761238Y-85129714D01*
X213951714Y-85177333D01*
X214285047Y-85177333D01*
X214475523Y-85129714D01*
X214570761Y-85034476D01*
X214618380Y-84939238D01*
X214618380Y-84748761D01*
X214570761Y-84653523D01*
X214475523Y-84558285D01*
X214285047Y-84510666D01*
X213951714Y-84510666D01*
X213761238Y-84558285D01*
X213666000Y-84653523D01*
X213618380Y-84748761D01*
X214618380Y-85605904D02*
X213618380Y-85605904D01*
X214618380Y-86177333D01*
X213618380Y-86177333D01*
X214618380Y-87177333D02*
X214618380Y-86605904D01*
X214618380Y-86891619D02*
X213618380Y-86891619D01*
X213761238Y-86796380D01*
X213856476Y-86701142D01*
X213904095Y-86605904D01*
X210081714Y-73968571D02*
X209938857Y-74016190D01*
X209891238Y-74063809D01*
X209843619Y-74159047D01*
X209843619Y-74301904D01*
X209891238Y-74397142D01*
X209938857Y-74444761D01*
X210034095Y-74492380D01*
X210415047Y-74492380D01*
X210415047Y-73492380D01*
X210081714Y-73492380D01*
X209986476Y-73540000D01*
X209938857Y-73587619D01*
X209891238Y-73682857D01*
X209891238Y-73778095D01*
X209938857Y-73873333D01*
X209986476Y-73920952D01*
X210081714Y-73968571D01*
X210415047Y-73968571D01*
X209557904Y-73492380D02*
X208986476Y-73492380D01*
X209272190Y-74492380D02*
X209272190Y-73492380D01*
X208129333Y-74492380D02*
X208700761Y-74492380D01*
X208415047Y-74492380D02*
X208415047Y-73492380D01*
X208510285Y-73635238D01*
X208605523Y-73730476D01*
X208700761Y-73778095D01*
X218063142Y-76287333D02*
X218110761Y-76239714D01*
X218158380Y-76096857D01*
X218158380Y-76001619D01*
X218110761Y-75858761D01*
X218015523Y-75763523D01*
X217920285Y-75715904D01*
X217729809Y-75668285D01*
X217586952Y-75668285D01*
X217396476Y-75715904D01*
X217301238Y-75763523D01*
X217206000Y-75858761D01*
X217158380Y-76001619D01*
X217158380Y-76096857D01*
X217206000Y-76239714D01*
X217253619Y-76287333D01*
X218158380Y-77239714D02*
X218158380Y-76668285D01*
X218158380Y-76954000D02*
X217158380Y-76954000D01*
X217301238Y-76858761D01*
X217396476Y-76763523D01*
X217444095Y-76668285D01*
X202902761Y-75882666D02*
X202950380Y-76025523D01*
X202950380Y-76263619D01*
X202902761Y-76358857D01*
X202855142Y-76406476D01*
X202759904Y-76454095D01*
X202664666Y-76454095D01*
X202569428Y-76406476D01*
X202521809Y-76358857D01*
X202474190Y-76263619D01*
X202426571Y-76073142D01*
X202378952Y-75977904D01*
X202331333Y-75930285D01*
X202236095Y-75882666D01*
X202140857Y-75882666D01*
X202045619Y-75930285D01*
X201998000Y-75977904D01*
X201950380Y-76073142D01*
X201950380Y-76311238D01*
X201998000Y-76454095D01*
X201950380Y-76787428D02*
X202950380Y-77025523D01*
X202236095Y-77216000D01*
X202950380Y-77406476D01*
X201950380Y-77644571D01*
X202950380Y-78549333D02*
X202950380Y-77977904D01*
X202950380Y-78263619D02*
X201950380Y-78263619D01*
X202093238Y-78168380D01*
X202188476Y-78073142D01*
X202236095Y-77977904D01*
X210311904Y-73676380D02*
X210311904Y-74485904D01*
X210264285Y-74581142D01*
X210216666Y-74628761D01*
X210121428Y-74676380D01*
X209930952Y-74676380D01*
X209835714Y-74628761D01*
X209788095Y-74581142D01*
X209740476Y-74485904D01*
X209740476Y-73676380D01*
X208740476Y-74676380D02*
X209311904Y-74676380D01*
X209026190Y-74676380D02*
X209026190Y-73676380D01*
X209121428Y-73819238D01*
X209216666Y-73914476D01*
X209311904Y-73962095D01*
M02*
