G04 #@! TF.GenerationSoftware,KiCad,Pcbnew,(5.1.0-0)*
G04 #@! TF.CreationDate,2019-09-27T23:38:08+01:00*
G04 #@! TF.ProjectId,badge,62616467-652e-46b6-9963-61645f706362,rev?*
G04 #@! TF.SameCoordinates,Original*
G04 #@! TF.FileFunction,Legend,Bot*
G04 #@! TF.FilePolarity,Positive*
%FSLAX46Y46*%
G04 Gerber Fmt 4.6, Leading zero omitted, Abs format (unit mm)*
G04 Created by KiCad (PCBNEW (5.1.0-0)) date 2019-09-27 23:38:08*
%MOMM*%
%LPD*%
G04 APERTURE LIST*
%ADD10C,0.300000*%
%ADD11C,0.120000*%
%ADD12C,0.150000*%
G04 APERTURE END LIST*
D10*
X217442857Y-56487142D02*
X217300000Y-56558571D01*
X217014285Y-56558571D01*
X216871428Y-56487142D01*
X216800000Y-56344285D01*
X216800000Y-56272857D01*
X216871428Y-56130000D01*
X217014285Y-56058571D01*
X217228571Y-56058571D01*
X217371428Y-55987142D01*
X217442857Y-55844285D01*
X217442857Y-55772857D01*
X217371428Y-55630000D01*
X217228571Y-55558571D01*
X217014285Y-55558571D01*
X216871428Y-55630000D01*
X215514285Y-55558571D02*
X215514285Y-56558571D01*
X216157142Y-55558571D02*
X216157142Y-56344285D01*
X216085714Y-56487142D01*
X215942857Y-56558571D01*
X215728571Y-56558571D01*
X215585714Y-56487142D01*
X215514285Y-56415714D01*
X214800000Y-55558571D02*
X214800000Y-57058571D01*
X214800000Y-55630000D02*
X214657142Y-55558571D01*
X214371428Y-55558571D01*
X214228571Y-55630000D01*
X214157142Y-55701428D01*
X214085714Y-55844285D01*
X214085714Y-56272857D01*
X214157142Y-56415714D01*
X214228571Y-56487142D01*
X214371428Y-56558571D01*
X214657142Y-56558571D01*
X214800000Y-56487142D01*
X212871428Y-56487142D02*
X213014285Y-56558571D01*
X213300000Y-56558571D01*
X213442857Y-56487142D01*
X213514285Y-56344285D01*
X213514285Y-55772857D01*
X213442857Y-55630000D01*
X213300000Y-55558571D01*
X213014285Y-55558571D01*
X212871428Y-55630000D01*
X212800000Y-55772857D01*
X212800000Y-55915714D01*
X213514285Y-56058571D01*
X212157142Y-56558571D02*
X212157142Y-55558571D01*
X212157142Y-55844285D02*
X212085714Y-55701428D01*
X212014285Y-55630000D01*
X211871428Y-55558571D01*
X211728571Y-55558571D01*
X211228571Y-56558571D02*
X211228571Y-55058571D01*
X210585714Y-56558571D02*
X210585714Y-55772857D01*
X210657142Y-55630000D01*
X210800000Y-55558571D01*
X211014285Y-55558571D01*
X211157142Y-55630000D01*
X211228571Y-55701428D01*
X209228571Y-56558571D02*
X209228571Y-55772857D01*
X209300000Y-55630000D01*
X209442857Y-55558571D01*
X209728571Y-55558571D01*
X209871428Y-55630000D01*
X209228571Y-56487142D02*
X209371428Y-56558571D01*
X209728571Y-56558571D01*
X209871428Y-56487142D01*
X209942857Y-56344285D01*
X209942857Y-56201428D01*
X209871428Y-56058571D01*
X209728571Y-55987142D01*
X209371428Y-55987142D01*
X209228571Y-55915714D01*
X208585714Y-56487142D02*
X208442857Y-56558571D01*
X208157142Y-56558571D01*
X208014285Y-56487142D01*
X207942857Y-56344285D01*
X207942857Y-56272857D01*
X208014285Y-56130000D01*
X208157142Y-56058571D01*
X208371428Y-56058571D01*
X208514285Y-55987142D01*
X208585714Y-55844285D01*
X208585714Y-55772857D01*
X208514285Y-55630000D01*
X208371428Y-55558571D01*
X208157142Y-55558571D01*
X208014285Y-55630000D01*
X206657142Y-56558571D02*
X206657142Y-55058571D01*
X206657142Y-56487142D02*
X206800000Y-56558571D01*
X207085714Y-56558571D01*
X207228571Y-56487142D01*
X207300000Y-56415714D01*
X207371428Y-56272857D01*
X207371428Y-55844285D01*
X207300000Y-55701428D01*
X207228571Y-55630000D01*
X207085714Y-55558571D01*
X206800000Y-55558571D01*
X206657142Y-55630000D01*
X205300000Y-55558571D02*
X205300000Y-56558571D01*
X205942857Y-55558571D02*
X205942857Y-56344285D01*
X205871428Y-56487142D01*
X205728571Y-56558571D01*
X205514285Y-56558571D01*
X205371428Y-56487142D01*
X205300000Y-56415714D01*
X204585714Y-55558571D02*
X204585714Y-57058571D01*
X204585714Y-55630000D02*
X204442857Y-55558571D01*
X204157142Y-55558571D01*
X204014285Y-55630000D01*
X203942857Y-55701428D01*
X203871428Y-55844285D01*
X203871428Y-56272857D01*
X203942857Y-56415714D01*
X204014285Y-56487142D01*
X204157142Y-56558571D01*
X204442857Y-56558571D01*
X204585714Y-56487142D01*
X202657142Y-56487142D02*
X202800000Y-56558571D01*
X203085714Y-56558571D01*
X203228571Y-56487142D01*
X203300000Y-56344285D01*
X203300000Y-55772857D01*
X203228571Y-55630000D01*
X203085714Y-55558571D01*
X202800000Y-55558571D01*
X202657142Y-55630000D01*
X202585714Y-55772857D01*
X202585714Y-55915714D01*
X203300000Y-56058571D01*
X201942857Y-56558571D02*
X201942857Y-55558571D01*
X201942857Y-55844285D02*
X201871428Y-55701428D01*
X201800000Y-55630000D01*
X201657142Y-55558571D01*
X201514285Y-55558571D01*
X215871428Y-94587142D02*
X215657142Y-94658571D01*
X215300000Y-94658571D01*
X215157142Y-94587142D01*
X215085714Y-94515714D01*
X215014285Y-94372857D01*
X215014285Y-94230000D01*
X215085714Y-94087142D01*
X215157142Y-94015714D01*
X215300000Y-93944285D01*
X215585714Y-93872857D01*
X215728571Y-93801428D01*
X215800000Y-93730000D01*
X215871428Y-93587142D01*
X215871428Y-93444285D01*
X215800000Y-93301428D01*
X215728571Y-93230000D01*
X215585714Y-93158571D01*
X215228571Y-93158571D01*
X215014285Y-93230000D01*
X213728571Y-93658571D02*
X213728571Y-94658571D01*
X214371428Y-93658571D02*
X214371428Y-94444285D01*
X214300000Y-94587142D01*
X214157142Y-94658571D01*
X213942857Y-94658571D01*
X213800000Y-94587142D01*
X213728571Y-94515714D01*
X213014285Y-93658571D02*
X213014285Y-95158571D01*
X213014285Y-93730000D02*
X212871428Y-93658571D01*
X212585714Y-93658571D01*
X212442857Y-93730000D01*
X212371428Y-93801428D01*
X212300000Y-93944285D01*
X212300000Y-94372857D01*
X212371428Y-94515714D01*
X212442857Y-94587142D01*
X212585714Y-94658571D01*
X212871428Y-94658571D01*
X213014285Y-94587142D01*
X211085714Y-94587142D02*
X211228571Y-94658571D01*
X211514285Y-94658571D01*
X211657142Y-94587142D01*
X211728571Y-94444285D01*
X211728571Y-93872857D01*
X211657142Y-93730000D01*
X211514285Y-93658571D01*
X211228571Y-93658571D01*
X211085714Y-93730000D01*
X211014285Y-93872857D01*
X211014285Y-94015714D01*
X211728571Y-94158571D01*
X210371428Y-94658571D02*
X210371428Y-93658571D01*
X210371428Y-93944285D02*
X210300000Y-93801428D01*
X210228571Y-93730000D01*
X210085714Y-93658571D01*
X209942857Y-93658571D01*
X208942857Y-93872857D02*
X208728571Y-93944285D01*
X208657142Y-94015714D01*
X208585714Y-94158571D01*
X208585714Y-94372857D01*
X208657142Y-94515714D01*
X208728571Y-94587142D01*
X208871428Y-94658571D01*
X209442857Y-94658571D01*
X209442857Y-93158571D01*
X208942857Y-93158571D01*
X208800000Y-93230000D01*
X208728571Y-93301428D01*
X208657142Y-93444285D01*
X208657142Y-93587142D01*
X208728571Y-93730000D01*
X208800000Y-93801428D01*
X208942857Y-93872857D01*
X209442857Y-93872857D01*
X207300000Y-94658571D02*
X207300000Y-93872857D01*
X207371428Y-93730000D01*
X207514285Y-93658571D01*
X207800000Y-93658571D01*
X207942857Y-93730000D01*
X207300000Y-94587142D02*
X207442857Y-94658571D01*
X207800000Y-94658571D01*
X207942857Y-94587142D01*
X208014285Y-94444285D01*
X208014285Y-94301428D01*
X207942857Y-94158571D01*
X207800000Y-94087142D01*
X207442857Y-94087142D01*
X207300000Y-94015714D01*
X205942857Y-94658571D02*
X205942857Y-93158571D01*
X205942857Y-94587142D02*
X206085714Y-94658571D01*
X206371428Y-94658571D01*
X206514285Y-94587142D01*
X206585714Y-94515714D01*
X206657142Y-94372857D01*
X206657142Y-93944285D01*
X206585714Y-93801428D01*
X206514285Y-93730000D01*
X206371428Y-93658571D01*
X206085714Y-93658571D01*
X205942857Y-93730000D01*
X204585714Y-93658571D02*
X204585714Y-94872857D01*
X204657142Y-95015714D01*
X204728571Y-95087142D01*
X204871428Y-95158571D01*
X205085714Y-95158571D01*
X205228571Y-95087142D01*
X204585714Y-94587142D02*
X204728571Y-94658571D01*
X205014285Y-94658571D01*
X205157142Y-94587142D01*
X205228571Y-94515714D01*
X205300000Y-94372857D01*
X205300000Y-93944285D01*
X205228571Y-93801428D01*
X205157142Y-93730000D01*
X205014285Y-93658571D01*
X204728571Y-93658571D01*
X204585714Y-93730000D01*
X203300000Y-94587142D02*
X203442857Y-94658571D01*
X203728571Y-94658571D01*
X203871428Y-94587142D01*
X203942857Y-94444285D01*
X203942857Y-93872857D01*
X203871428Y-93730000D01*
X203728571Y-93658571D01*
X203442857Y-93658571D01*
X203300000Y-93730000D01*
X203228571Y-93872857D01*
X203228571Y-94015714D01*
X203942857Y-94158571D01*
X223371428Y-90848571D02*
X223371428Y-89348571D01*
X222728571Y-90848571D02*
X222728571Y-90062857D01*
X222800000Y-89920000D01*
X222942857Y-89848571D01*
X223157142Y-89848571D01*
X223300000Y-89920000D01*
X223371428Y-89991428D01*
X222228571Y-89848571D02*
X221657142Y-89848571D01*
X222014285Y-89348571D02*
X222014285Y-90634285D01*
X221942857Y-90777142D01*
X221800000Y-90848571D01*
X221657142Y-90848571D01*
X221371428Y-89848571D02*
X220800000Y-89848571D01*
X221157142Y-89348571D02*
X221157142Y-90634285D01*
X221085714Y-90777142D01*
X220942857Y-90848571D01*
X220800000Y-90848571D01*
X220300000Y-89848571D02*
X220300000Y-91348571D01*
X220300000Y-89920000D02*
X220157142Y-89848571D01*
X219871428Y-89848571D01*
X219728571Y-89920000D01*
X219657142Y-89991428D01*
X219585714Y-90134285D01*
X219585714Y-90562857D01*
X219657142Y-90705714D01*
X219728571Y-90777142D01*
X219871428Y-90848571D01*
X220157142Y-90848571D01*
X220300000Y-90777142D01*
X219014285Y-90777142D02*
X218871428Y-90848571D01*
X218585714Y-90848571D01*
X218442857Y-90777142D01*
X218371428Y-90634285D01*
X218371428Y-90562857D01*
X218442857Y-90420000D01*
X218585714Y-90348571D01*
X218800000Y-90348571D01*
X218942857Y-90277142D01*
X219014285Y-90134285D01*
X219014285Y-90062857D01*
X218942857Y-89920000D01*
X218800000Y-89848571D01*
X218585714Y-89848571D01*
X218442857Y-89920000D01*
X217728571Y-90705714D02*
X217657142Y-90777142D01*
X217728571Y-90848571D01*
X217800000Y-90777142D01*
X217728571Y-90705714D01*
X217728571Y-90848571D01*
X217728571Y-89920000D02*
X217657142Y-89991428D01*
X217728571Y-90062857D01*
X217800000Y-89991428D01*
X217728571Y-89920000D01*
X217728571Y-90062857D01*
X215942857Y-89277142D02*
X217228571Y-91205714D01*
X214371428Y-89277142D02*
X215657142Y-91205714D01*
X214014285Y-89848571D02*
X213728571Y-90848571D01*
X213442857Y-90134285D01*
X213157142Y-90848571D01*
X212871428Y-89848571D01*
X212442857Y-89848571D02*
X212157142Y-90848571D01*
X211871428Y-90134285D01*
X211585714Y-90848571D01*
X211300000Y-89848571D01*
X210871428Y-89848571D02*
X210585714Y-90848571D01*
X210300000Y-90134285D01*
X210014285Y-90848571D01*
X209728571Y-89848571D01*
X209157142Y-90705714D02*
X209085714Y-90777142D01*
X209157142Y-90848571D01*
X209228571Y-90777142D01*
X209157142Y-90705714D01*
X209157142Y-90848571D01*
X208442857Y-89848571D02*
X208442857Y-91348571D01*
X208442857Y-89920000D02*
X208300000Y-89848571D01*
X208014285Y-89848571D01*
X207871428Y-89920000D01*
X207800000Y-89991428D01*
X207728571Y-90134285D01*
X207728571Y-90562857D01*
X207800000Y-90705714D01*
X207871428Y-90777142D01*
X208014285Y-90848571D01*
X208300000Y-90848571D01*
X208442857Y-90777142D01*
X206442857Y-90777142D02*
X206585714Y-90848571D01*
X206871428Y-90848571D01*
X207014285Y-90777142D01*
X207085714Y-90705714D01*
X207157142Y-90562857D01*
X207157142Y-90134285D01*
X207085714Y-89991428D01*
X207014285Y-89920000D01*
X206871428Y-89848571D01*
X206585714Y-89848571D01*
X206442857Y-89920000D01*
X205800000Y-90848571D02*
X205800000Y-89348571D01*
X205800000Y-89920000D02*
X205657142Y-89848571D01*
X205371428Y-89848571D01*
X205228571Y-89920000D01*
X205157142Y-89991428D01*
X205085714Y-90134285D01*
X205085714Y-90562857D01*
X205157142Y-90705714D01*
X205228571Y-90777142D01*
X205371428Y-90848571D01*
X205657142Y-90848571D01*
X205800000Y-90777142D01*
X204585714Y-89848571D02*
X204300000Y-90848571D01*
X204014285Y-90134285D01*
X203728571Y-90848571D01*
X203442857Y-89848571D01*
X202228571Y-90848571D02*
X202228571Y-90062857D01*
X202300000Y-89920000D01*
X202442857Y-89848571D01*
X202728571Y-89848571D01*
X202871428Y-89920000D01*
X202228571Y-90777142D02*
X202371428Y-90848571D01*
X202728571Y-90848571D01*
X202871428Y-90777142D01*
X202942857Y-90634285D01*
X202942857Y-90491428D01*
X202871428Y-90348571D01*
X202728571Y-90277142D01*
X202371428Y-90277142D01*
X202228571Y-90205714D01*
X201657142Y-89848571D02*
X201300000Y-90848571D01*
X200942857Y-89848571D02*
X201300000Y-90848571D01*
X201442857Y-91205714D01*
X201514285Y-91277142D01*
X201657142Y-91348571D01*
X200371428Y-90705714D02*
X200300000Y-90777142D01*
X200371428Y-90848571D01*
X200442857Y-90777142D01*
X200371428Y-90705714D01*
X200371428Y-90848571D01*
X199014285Y-90777142D02*
X199157142Y-90848571D01*
X199442857Y-90848571D01*
X199585714Y-90777142D01*
X199657142Y-90705714D01*
X199728571Y-90562857D01*
X199728571Y-90134285D01*
X199657142Y-89991428D01*
X199585714Y-89920000D01*
X199442857Y-89848571D01*
X199157142Y-89848571D01*
X199014285Y-89920000D01*
X198157142Y-90848571D02*
X198300000Y-90777142D01*
X198371428Y-90705714D01*
X198442857Y-90562857D01*
X198442857Y-90134285D01*
X198371428Y-89991428D01*
X198300000Y-89920000D01*
X198157142Y-89848571D01*
X197942857Y-89848571D01*
X197800000Y-89920000D01*
X197728571Y-89991428D01*
X197657142Y-90134285D01*
X197657142Y-90562857D01*
X197728571Y-90705714D01*
X197800000Y-90777142D01*
X197942857Y-90848571D01*
X198157142Y-90848571D01*
X197014285Y-90848571D02*
X197014285Y-89848571D01*
X197014285Y-89991428D02*
X196942857Y-89920000D01*
X196800000Y-89848571D01*
X196585714Y-89848571D01*
X196442857Y-89920000D01*
X196371428Y-90062857D01*
X196371428Y-90848571D01*
X196371428Y-90062857D02*
X196300000Y-89920000D01*
X196157142Y-89848571D01*
X195942857Y-89848571D01*
X195800000Y-89920000D01*
X195728571Y-90062857D01*
X195728571Y-90848571D01*
D11*
X205426000Y-87944000D02*
X205426000Y-82744000D01*
X210566000Y-87944000D02*
X205426000Y-87944000D01*
X213166000Y-82744000D02*
X205426000Y-82744000D01*
X210566000Y-87944000D02*
X210566000Y-85344000D01*
X210566000Y-85344000D02*
X213166000Y-85344000D01*
X213166000Y-85344000D02*
X213166000Y-82744000D01*
X211836000Y-87944000D02*
X213166000Y-87944000D01*
X213166000Y-87944000D02*
X213166000Y-86614000D01*
X214710615Y-60455840D02*
G75*
G03X213796000Y-60840000I-124615J-984160D01*
G01*
X203881385Y-60455840D02*
G75*
G02X204796000Y-60840000I124615J-984160D01*
G01*
X213786661Y-60851329D02*
G75*
G02X204796000Y-60840000I-4490661J3711329D01*
G01*
X216046000Y-61990000D02*
G75*
G03X214596000Y-60440000I-1500000J50000D01*
G01*
X202546000Y-61990000D02*
G75*
G02X203996000Y-60440000I1500000J50000D01*
G01*
X216046000Y-64040000D02*
X216046000Y-61940000D01*
X202546000Y-64040000D02*
X202546000Y-61940000D01*
X202546000Y-68040000D02*
X202546000Y-69490000D01*
X202546000Y-69490000D02*
X205146000Y-72090000D01*
X205146000Y-72090000D02*
X205146000Y-72890000D01*
X205146000Y-72890000D02*
X213446000Y-72890000D01*
X213446000Y-72890000D02*
X213446000Y-72090000D01*
X213446000Y-72090000D02*
X216046000Y-69490000D01*
X216046000Y-69490000D02*
X216046000Y-68040000D01*
X218606000Y-76954000D02*
X218606000Y-75954000D01*
X220306000Y-75954000D02*
X220306000Y-76954000D01*
X201708000Y-80276000D02*
X201708000Y-74156000D01*
X201708000Y-74156000D02*
X198088000Y-74156000D01*
X198088000Y-74156000D02*
X198088000Y-80276000D01*
X198088000Y-80276000D02*
X201708000Y-80276000D01*
D12*
X211625000Y-75149000D02*
X211625000Y-75199000D01*
X207475000Y-75149000D02*
X207475000Y-75294000D01*
X207475000Y-80299000D02*
X207475000Y-80154000D01*
X211625000Y-80299000D02*
X211625000Y-80154000D01*
X211625000Y-75149000D02*
X207475000Y-75149000D01*
X211625000Y-80299000D02*
X207475000Y-80299000D01*
X211625000Y-75199000D02*
X213025000Y-75199000D01*
X214523142Y-84129714D02*
X214570761Y-84082095D01*
X214618380Y-83939238D01*
X214618380Y-83844000D01*
X214570761Y-83701142D01*
X214475523Y-83605904D01*
X214380285Y-83558285D01*
X214189809Y-83510666D01*
X214046952Y-83510666D01*
X213856476Y-83558285D01*
X213761238Y-83605904D01*
X213666000Y-83701142D01*
X213618380Y-83844000D01*
X213618380Y-83939238D01*
X213666000Y-84082095D01*
X213713619Y-84129714D01*
X213618380Y-84748761D02*
X213618380Y-84939238D01*
X213666000Y-85034476D01*
X213761238Y-85129714D01*
X213951714Y-85177333D01*
X214285047Y-85177333D01*
X214475523Y-85129714D01*
X214570761Y-85034476D01*
X214618380Y-84939238D01*
X214618380Y-84748761D01*
X214570761Y-84653523D01*
X214475523Y-84558285D01*
X214285047Y-84510666D01*
X213951714Y-84510666D01*
X213761238Y-84558285D01*
X213666000Y-84653523D01*
X213618380Y-84748761D01*
X214618380Y-85605904D02*
X213618380Y-85605904D01*
X214618380Y-86177333D01*
X213618380Y-86177333D01*
X214618380Y-87177333D02*
X214618380Y-86605904D01*
X214618380Y-86891619D02*
X213618380Y-86891619D01*
X213761238Y-86796380D01*
X213856476Y-86701142D01*
X213904095Y-86605904D01*
X210081714Y-73968571D02*
X209938857Y-74016190D01*
X209891238Y-74063809D01*
X209843619Y-74159047D01*
X209843619Y-74301904D01*
X209891238Y-74397142D01*
X209938857Y-74444761D01*
X210034095Y-74492380D01*
X210415047Y-74492380D01*
X210415047Y-73492380D01*
X210081714Y-73492380D01*
X209986476Y-73540000D01*
X209938857Y-73587619D01*
X209891238Y-73682857D01*
X209891238Y-73778095D01*
X209938857Y-73873333D01*
X209986476Y-73920952D01*
X210081714Y-73968571D01*
X210415047Y-73968571D01*
X209557904Y-73492380D02*
X208986476Y-73492380D01*
X209272190Y-74492380D02*
X209272190Y-73492380D01*
X208129333Y-74492380D02*
X208700761Y-74492380D01*
X208415047Y-74492380D02*
X208415047Y-73492380D01*
X208510285Y-73635238D01*
X208605523Y-73730476D01*
X208700761Y-73778095D01*
X218063142Y-76287333D02*
X218110761Y-76239714D01*
X218158380Y-76096857D01*
X218158380Y-76001619D01*
X218110761Y-75858761D01*
X218015523Y-75763523D01*
X217920285Y-75715904D01*
X217729809Y-75668285D01*
X217586952Y-75668285D01*
X217396476Y-75715904D01*
X217301238Y-75763523D01*
X217206000Y-75858761D01*
X217158380Y-76001619D01*
X217158380Y-76096857D01*
X217206000Y-76239714D01*
X217253619Y-76287333D01*
X218158380Y-77239714D02*
X218158380Y-76668285D01*
X218158380Y-76954000D02*
X217158380Y-76954000D01*
X217301238Y-76858761D01*
X217396476Y-76763523D01*
X217444095Y-76668285D01*
X202902761Y-75882666D02*
X202950380Y-76025523D01*
X202950380Y-76263619D01*
X202902761Y-76358857D01*
X202855142Y-76406476D01*
X202759904Y-76454095D01*
X202664666Y-76454095D01*
X202569428Y-76406476D01*
X202521809Y-76358857D01*
X202474190Y-76263619D01*
X202426571Y-76073142D01*
X202378952Y-75977904D01*
X202331333Y-75930285D01*
X202236095Y-75882666D01*
X202140857Y-75882666D01*
X202045619Y-75930285D01*
X201998000Y-75977904D01*
X201950380Y-76073142D01*
X201950380Y-76311238D01*
X201998000Y-76454095D01*
X201950380Y-76787428D02*
X202950380Y-77025523D01*
X202236095Y-77216000D01*
X202950380Y-77406476D01*
X201950380Y-77644571D01*
X202950380Y-78549333D02*
X202950380Y-77977904D01*
X202950380Y-78263619D02*
X201950380Y-78263619D01*
X202093238Y-78168380D01*
X202188476Y-78073142D01*
X202236095Y-77977904D01*
X210311904Y-73676380D02*
X210311904Y-74485904D01*
X210264285Y-74581142D01*
X210216666Y-74628761D01*
X210121428Y-74676380D01*
X209930952Y-74676380D01*
X209835714Y-74628761D01*
X209788095Y-74581142D01*
X209740476Y-74485904D01*
X209740476Y-73676380D01*
X208740476Y-74676380D02*
X209311904Y-74676380D01*
X209026190Y-74676380D02*
X209026190Y-73676380D01*
X209121428Y-73819238D01*
X209216666Y-73914476D01*
X209311904Y-73962095D01*
M02*
