G04 #@! TF.GenerationSoftware,KiCad,Pcbnew,(5.1.0-0)*
G04 #@! TF.CreationDate,2019-09-27T23:38:08+01:00*
G04 #@! TF.ProjectId,badge,62616467-652e-46b6-9963-61645f706362,rev?*
G04 #@! TF.SameCoordinates,Original*
G04 #@! TF.FileFunction,Copper,L1,Top*
G04 #@! TF.FilePolarity,Positive*
%FSLAX46Y46*%
G04 Gerber Fmt 4.6, Leading zero omitted, Abs format (unit mm)*
G04 Created by KiCad (PCBNEW (5.1.0-0)) date 2019-09-27 23:38:08*
%MOMM*%
%LPD*%
G04 APERTURE LIST*
%ADD10R,2.000000X1.700000*%
%ADD11C,1.700000*%
%ADD12C,0.100000*%
%ADD13R,1.700000X2.000000*%
%ADD14C,0.600000*%
%ADD15C,0.250000*%
%ADD16C,0.254000*%
G04 APERTURE END LIST*
D10*
X226092000Y-73660000D03*
X230092000Y-73660000D03*
D11*
X225257513Y-78928739D03*
D12*
G36*
X224043792Y-79428120D02*
G01*
X224569121Y-77811324D01*
X226471234Y-78429358D01*
X225945905Y-80046154D01*
X224043792Y-79428120D01*
X224043792Y-79428120D01*
G37*
D11*
X229061739Y-80164807D03*
D12*
G36*
X227848018Y-80664188D02*
G01*
X228373347Y-79047392D01*
X230275460Y-79665426D01*
X229750131Y-81282222D01*
X227848018Y-80664188D01*
X227848018Y-80664188D01*
G37*
D11*
X222835739Y-83681738D03*
D12*
G36*
X221527105Y-83781617D02*
G01*
X222526339Y-82406288D01*
X224144373Y-83581859D01*
X223145139Y-84957188D01*
X221527105Y-83781617D01*
X221527105Y-83781617D01*
G37*
D11*
X226071807Y-86032880D03*
D12*
G36*
X224763173Y-86132759D02*
G01*
X225762407Y-84757430D01*
X227380441Y-85933001D01*
X226381207Y-87308330D01*
X224763173Y-86132759D01*
X224763173Y-86132759D01*
G37*
D11*
X219063738Y-87453739D03*
D12*
G36*
X217788288Y-87144339D02*
G01*
X219163617Y-86145105D01*
X220339188Y-87763139D01*
X218963859Y-88762373D01*
X217788288Y-87144339D01*
X217788288Y-87144339D01*
G37*
D11*
X221414880Y-90689807D03*
D12*
G36*
X220139430Y-90380407D02*
G01*
X221514759Y-89381173D01*
X222690330Y-90999207D01*
X221315001Y-91998441D01*
X220139430Y-90380407D01*
X220139430Y-90380407D01*
G37*
D11*
X214310739Y-89875513D03*
D12*
G36*
X213193324Y-89187121D02*
G01*
X214810120Y-88661792D01*
X215428154Y-90563905D01*
X213811358Y-91089234D01*
X213193324Y-89187121D01*
X213193324Y-89187121D01*
G37*
D11*
X215546807Y-93679739D03*
D12*
G36*
X214429392Y-92991347D02*
G01*
X216046188Y-92466018D01*
X216664222Y-94368131D01*
X215047426Y-94893460D01*
X214429392Y-92991347D01*
X214429392Y-92991347D01*
G37*
D13*
X209042000Y-90710000D03*
X209042000Y-94710000D03*
D11*
X203773260Y-89875513D03*
D12*
G36*
X203273879Y-88661792D02*
G01*
X204890675Y-89187121D01*
X204272641Y-91089234D01*
X202655845Y-90563905D01*
X203273879Y-88661792D01*
X203273879Y-88661792D01*
G37*
D11*
X202537192Y-93679739D03*
D12*
G36*
X202037811Y-92466018D02*
G01*
X203654607Y-92991347D01*
X203036573Y-94893460D01*
X201419777Y-94368131D01*
X202037811Y-92466018D01*
X202037811Y-92466018D01*
G37*
D11*
X199020261Y-87453739D03*
D12*
G36*
X198920382Y-86145105D02*
G01*
X200295711Y-87144339D01*
X199120140Y-88762373D01*
X197744811Y-87763139D01*
X198920382Y-86145105D01*
X198920382Y-86145105D01*
G37*
D11*
X196669119Y-90689807D03*
D12*
G36*
X196569240Y-89381173D02*
G01*
X197944569Y-90380407D01*
X196768998Y-91998441D01*
X195393669Y-90999207D01*
X196569240Y-89381173D01*
X196569240Y-89381173D01*
G37*
D11*
X195248261Y-83681738D03*
D12*
G36*
X195557661Y-82406288D02*
G01*
X196556895Y-83781617D01*
X194938861Y-84957188D01*
X193939627Y-83581859D01*
X195557661Y-82406288D01*
X195557661Y-82406288D01*
G37*
D11*
X192012193Y-86032880D03*
D12*
G36*
X192321593Y-84757430D02*
G01*
X193320827Y-86132759D01*
X191702793Y-87308330D01*
X190703559Y-85933001D01*
X192321593Y-84757430D01*
X192321593Y-84757430D01*
G37*
D11*
X192826487Y-78928739D03*
D12*
G36*
X193514879Y-77811324D02*
G01*
X194040208Y-79428120D01*
X192138095Y-80046154D01*
X191612766Y-78429358D01*
X193514879Y-77811324D01*
X193514879Y-77811324D01*
G37*
D11*
X189022261Y-80164807D03*
D12*
G36*
X189710653Y-79047392D02*
G01*
X190235982Y-80664188D01*
X188333869Y-81282222D01*
X187808540Y-79665426D01*
X189710653Y-79047392D01*
X189710653Y-79047392D01*
G37*
D10*
X191992000Y-73660000D03*
X187992000Y-73660000D03*
D11*
X192826487Y-68391260D03*
D12*
G36*
X194040208Y-67891879D02*
G01*
X193514879Y-69508675D01*
X191612766Y-68890641D01*
X192138095Y-67273845D01*
X194040208Y-67891879D01*
X194040208Y-67891879D01*
G37*
D11*
X189022261Y-67155192D03*
D12*
G36*
X190235982Y-66655811D02*
G01*
X189710653Y-68272607D01*
X187808540Y-67654573D01*
X188333869Y-66037777D01*
X190235982Y-66655811D01*
X190235982Y-66655811D01*
G37*
D11*
X195248261Y-63638261D03*
D12*
G36*
X196556895Y-63538382D02*
G01*
X195557661Y-64913711D01*
X193939627Y-63738140D01*
X194938861Y-62362811D01*
X196556895Y-63538382D01*
X196556895Y-63538382D01*
G37*
D11*
X192012193Y-61287119D03*
D12*
G36*
X193320827Y-61187240D02*
G01*
X192321593Y-62562569D01*
X190703559Y-61386998D01*
X191702793Y-60011669D01*
X193320827Y-61187240D01*
X193320827Y-61187240D01*
G37*
D11*
X199020261Y-59866261D03*
D12*
G36*
X200295711Y-60175661D02*
G01*
X198920382Y-61174895D01*
X197744811Y-59556861D01*
X199120140Y-58557627D01*
X200295711Y-60175661D01*
X200295711Y-60175661D01*
G37*
D11*
X196669119Y-56630193D03*
D12*
G36*
X197944569Y-56939593D02*
G01*
X196569240Y-57938827D01*
X195393669Y-56320793D01*
X196768998Y-55321559D01*
X197944569Y-56939593D01*
X197944569Y-56939593D01*
G37*
D11*
X203773260Y-57444487D03*
D12*
G36*
X204890675Y-58132879D02*
G01*
X203273879Y-58658208D01*
X202655845Y-56756095D01*
X204272641Y-56230766D01*
X204890675Y-58132879D01*
X204890675Y-58132879D01*
G37*
D11*
X202537192Y-53640261D03*
D12*
G36*
X203654607Y-54328653D02*
G01*
X202037811Y-54853982D01*
X201419777Y-52951869D01*
X203036573Y-52426540D01*
X203654607Y-54328653D01*
X203654607Y-54328653D01*
G37*
D13*
X209041999Y-56610000D03*
X209041999Y-52610000D03*
D11*
X214310739Y-57444487D03*
D12*
G36*
X214810120Y-58658208D02*
G01*
X213193324Y-58132879D01*
X213811358Y-56230766D01*
X215428154Y-56756095D01*
X214810120Y-58658208D01*
X214810120Y-58658208D01*
G37*
D11*
X215546807Y-53640261D03*
D12*
G36*
X216046188Y-54853982D02*
G01*
X214429392Y-54328653D01*
X215047426Y-52426540D01*
X216664222Y-52951869D01*
X216046188Y-54853982D01*
X216046188Y-54853982D01*
G37*
D11*
X219063738Y-59866261D03*
D12*
G36*
X219163617Y-61174895D02*
G01*
X217788288Y-60175661D01*
X218963859Y-58557627D01*
X220339188Y-59556861D01*
X219163617Y-61174895D01*
X219163617Y-61174895D01*
G37*
D11*
X221414880Y-56630193D03*
D12*
G36*
X221514759Y-57938827D02*
G01*
X220139430Y-56939593D01*
X221315001Y-55321559D01*
X222690330Y-56320793D01*
X221514759Y-57938827D01*
X221514759Y-57938827D01*
G37*
D11*
X222835739Y-63638261D03*
D12*
G36*
X222526339Y-64913711D02*
G01*
X221527105Y-63538382D01*
X223145139Y-62362811D01*
X224144373Y-63738140D01*
X222526339Y-64913711D01*
X222526339Y-64913711D01*
G37*
D11*
X226071807Y-61287119D03*
D12*
G36*
X225762407Y-62562569D02*
G01*
X224763173Y-61187240D01*
X226381207Y-60011669D01*
X227380441Y-61386998D01*
X225762407Y-62562569D01*
X225762407Y-62562569D01*
G37*
D11*
X225257513Y-68391260D03*
D12*
G36*
X224569121Y-69508675D02*
G01*
X224043792Y-67891879D01*
X225945905Y-67273845D01*
X226471234Y-68890641D01*
X224569121Y-69508675D01*
X224569121Y-69508675D01*
G37*
D11*
X229061739Y-67155192D03*
D12*
G36*
X228373347Y-68272607D02*
G01*
X227848018Y-66655811D01*
X229750131Y-66037777D01*
X230275460Y-67654573D01*
X228373347Y-68272607D01*
X228373347Y-68272607D01*
G37*
D14*
X209804000Y-75946000D03*
X214884000Y-71882000D03*
X214122000Y-80518000D03*
X207264000Y-74422000D03*
X197612000Y-70612000D03*
X200660000Y-68834000D03*
X229870000Y-70104000D03*
X225044000Y-70866000D03*
X217932000Y-69850000D03*
X217424000Y-74676000D03*
X221234000Y-84836000D03*
X215900000Y-85090000D03*
X203962000Y-87630000D03*
X202438000Y-84328000D03*
X200406000Y-84328000D03*
X197104000Y-83312000D03*
X196342000Y-80772000D03*
X195326000Y-69088000D03*
X196596000Y-66802000D03*
X199644000Y-69596000D03*
X203962000Y-78486000D03*
X197104000Y-81788000D03*
X194310000Y-81534000D03*
X196596000Y-68580000D03*
X204978000Y-76962000D03*
X205740000Y-91186000D03*
X211074000Y-88900000D03*
X223520000Y-89408000D03*
X220472000Y-85344000D03*
X223266000Y-76962000D03*
X231902000Y-76708000D03*
X202946000Y-81534000D03*
X204978000Y-81534000D03*
X207264000Y-81534000D03*
X194818000Y-73660000D03*
X191770000Y-70866000D03*
X209550000Y-82042000D03*
X216408000Y-79248000D03*
X222250000Y-79248000D03*
X223012000Y-75438000D03*
X221742000Y-65532000D03*
X223774000Y-58674000D03*
X230378000Y-71374000D03*
X206502000Y-89154000D03*
X214122000Y-85852000D03*
X214122000Y-76454000D03*
X208534000Y-59436000D03*
X211074000Y-61214000D03*
X214122000Y-70612000D03*
X214884000Y-69850000D03*
X216154000Y-72390000D03*
X215900000Y-73152000D03*
X214122000Y-74422000D03*
X221234000Y-82550000D03*
X216662000Y-82042000D03*
X216662000Y-88138000D03*
X211582000Y-93980000D03*
X221488000Y-81534000D03*
X210566000Y-58420000D03*
X212852000Y-54102000D03*
X206756000Y-56388000D03*
X195072000Y-59690000D03*
D15*
X213106000Y-72644000D02*
X209804000Y-75946000D01*
X214122000Y-72644000D02*
X213106000Y-72644000D01*
X214884000Y-71882000D02*
X214122000Y-72644000D01*
X213360000Y-80518000D02*
X214122000Y-80518000D01*
X207264000Y-74422000D02*
X213360000Y-80518000D01*
X197612000Y-70612000D02*
X199390000Y-68834000D01*
X199390000Y-68834000D02*
X200660000Y-68834000D01*
X229061739Y-67155192D02*
X226921192Y-67155192D01*
X226921192Y-67155192D02*
X223404261Y-63638261D01*
X223404261Y-63638261D02*
X222835739Y-63638261D01*
X219063738Y-87453739D02*
X219063738Y-80125738D01*
X229061739Y-69295739D02*
X229061739Y-67155192D01*
X229870000Y-70104000D02*
X229061739Y-69295739D01*
X218948000Y-70866000D02*
X225044000Y-70866000D01*
X217932000Y-69850000D02*
X218948000Y-70866000D01*
X217424000Y-78486000D02*
X217424000Y-74676000D01*
X219063738Y-80125738D02*
X217424000Y-78486000D01*
X219063738Y-87453739D02*
X219886261Y-87453739D01*
X219886261Y-87453739D02*
X221234000Y-86106000D01*
X221234000Y-86106000D02*
X221234000Y-84836000D01*
X224474687Y-87630000D02*
X226071807Y-86032880D01*
X224028000Y-87630000D02*
X224474687Y-87630000D01*
X221234000Y-84836000D02*
X224028000Y-87630000D01*
X195248261Y-63638261D02*
X195248261Y-69010261D01*
X206502000Y-85090000D02*
X215900000Y-85090000D01*
X203962000Y-87630000D02*
X206502000Y-85090000D01*
X200406000Y-84328000D02*
X202438000Y-84328000D01*
X196342000Y-82550000D02*
X197104000Y-83312000D01*
X196342000Y-80772000D02*
X196342000Y-82550000D01*
X195248261Y-69010261D02*
X195326000Y-69088000D01*
X195248261Y-63638261D02*
X195248261Y-62307739D01*
X196669119Y-60886881D02*
X196669119Y-56630193D01*
X195248261Y-62307739D02*
X196669119Y-60886881D01*
X203962000Y-78486000D02*
X203962000Y-73914000D01*
X195248261Y-65454261D02*
X195248261Y-63638261D01*
X196596000Y-66802000D02*
X195248261Y-65454261D01*
X203962000Y-73914000D02*
X199644000Y-69596000D01*
X192826487Y-78928739D02*
X192826487Y-80050487D01*
X203962000Y-84328000D02*
X203962000Y-78486000D01*
X203200000Y-85090000D02*
X203962000Y-84328000D01*
X197866000Y-85090000D02*
X203200000Y-85090000D01*
X197866000Y-82550000D02*
X197866000Y-85090000D01*
X197104000Y-81788000D02*
X197866000Y-82550000D01*
X192826487Y-80050487D02*
X194310000Y-81534000D01*
X192826487Y-78928739D02*
X192826487Y-85218586D01*
X192826487Y-85218586D02*
X192012193Y-86032880D01*
X199020261Y-66155739D02*
X199020261Y-59866261D01*
X196596000Y-68580000D02*
X199020261Y-66155739D01*
X199020261Y-87453739D02*
X202360261Y-87453739D01*
X204978000Y-80518000D02*
X204978000Y-76962000D01*
X207518000Y-80518000D02*
X204978000Y-80518000D01*
X208280000Y-81280000D02*
X207518000Y-80518000D01*
X208280000Y-81534000D02*
X208280000Y-81280000D01*
X202360261Y-87453739D02*
X208280000Y-81534000D01*
X202537192Y-93679739D02*
X201629739Y-93679739D01*
X201168000Y-89601478D02*
X199020261Y-87453739D01*
X201168000Y-93218000D02*
X201168000Y-89601478D01*
X201629739Y-93679739D02*
X201168000Y-93218000D01*
X204677739Y-93679739D02*
X202537192Y-93679739D01*
X205232000Y-94234000D02*
X204677739Y-93679739D01*
X205232000Y-91694000D02*
X205232000Y-94234000D01*
X205740000Y-91186000D02*
X205232000Y-91694000D01*
X214310739Y-89875513D02*
X212049513Y-89875513D01*
X212049513Y-89875513D02*
X211074000Y-88900000D01*
X221414880Y-90689807D02*
X215125033Y-90689807D01*
X215125033Y-90689807D02*
X214310739Y-89875513D01*
X221414880Y-56630193D02*
X224270193Y-56630193D01*
X223520000Y-89408000D02*
X222238193Y-90689807D01*
X220472000Y-79756000D02*
X220472000Y-85344000D01*
X223266000Y-76962000D02*
X220472000Y-79756000D01*
X232156000Y-76454000D02*
X231902000Y-76708000D01*
X232156000Y-72390000D02*
X232156000Y-76454000D01*
X231394000Y-71628000D02*
X232156000Y-72390000D01*
X231394000Y-66040000D02*
X231394000Y-71628000D01*
X229108000Y-63754000D02*
X231394000Y-66040000D01*
X229108000Y-61468000D02*
X229108000Y-63754000D01*
X224270193Y-56630193D02*
X229108000Y-61468000D01*
X222238193Y-90689807D02*
X221414880Y-90689807D01*
X214310739Y-57444487D02*
X217129513Y-57444487D01*
X217943807Y-56630193D02*
X221414880Y-56630193D01*
X217129513Y-57444487D02*
X217943807Y-56630193D01*
X213762252Y-56896000D02*
X212090000Y-56896000D01*
X204423739Y-53640261D02*
X207518000Y-50546000D01*
X207518000Y-50546000D02*
X211836000Y-50546000D01*
X211836000Y-50546000D02*
X212090000Y-50800000D01*
X212090000Y-50800000D02*
X212090000Y-56896000D01*
X204423739Y-53640261D02*
X202537192Y-53640261D01*
X213762252Y-56896000D02*
X214310739Y-57444487D01*
X200914000Y-79502000D02*
X195580000Y-79502000D01*
X202946000Y-81534000D02*
X200914000Y-79502000D01*
X207264000Y-81534000D02*
X204978000Y-81534000D01*
X189022261Y-67155192D02*
X189022261Y-68118261D01*
X194818000Y-73660000D02*
X191992000Y-73660000D01*
X189022261Y-68118261D02*
X191770000Y-70866000D01*
X225257513Y-78928739D02*
X222569261Y-78928739D01*
X213614000Y-82042000D02*
X209550000Y-82042000D01*
X216408000Y-79248000D02*
X213614000Y-82042000D01*
X222569261Y-78928739D02*
X222250000Y-79248000D01*
X219063738Y-59866261D02*
X219063738Y-62853738D01*
X225257513Y-76159513D02*
X225257513Y-78928739D01*
X225044000Y-75946000D02*
X225257513Y-76159513D01*
X223520000Y-75946000D02*
X225044000Y-75946000D01*
X223012000Y-75438000D02*
X223520000Y-75946000D01*
X219063738Y-62853738D02*
X221742000Y-65532000D01*
X230092000Y-73660000D02*
X230092000Y-71660000D01*
X223774000Y-58674000D02*
X226071807Y-60971807D01*
X230092000Y-71660000D02*
X230378000Y-71374000D01*
X226071807Y-60971807D02*
X226071807Y-61287119D01*
X226071807Y-61287119D02*
X220484596Y-61287119D01*
X220484596Y-61287119D02*
X219063738Y-59866261D01*
X195248261Y-83681738D02*
X195248261Y-80341739D01*
X195580000Y-77248000D02*
X191992000Y-73660000D01*
X195580000Y-80010000D02*
X195580000Y-79502000D01*
X195580000Y-79502000D02*
X195580000Y-77248000D01*
X195248261Y-80341739D02*
X195580000Y-80010000D01*
X196669119Y-90689807D02*
X196669119Y-89481119D01*
X196669119Y-89481119D02*
X195248261Y-88060261D01*
X195248261Y-88060261D02*
X195248261Y-83681738D01*
X208026000Y-87630000D02*
X206502000Y-89154000D01*
X213614000Y-87630000D02*
X208026000Y-87630000D01*
X214122000Y-88138000D02*
X213614000Y-87630000D01*
X214122000Y-85852000D02*
X214122000Y-88138000D01*
X187992000Y-73660000D02*
X187992000Y-79134546D01*
X187992000Y-79134546D02*
X189022261Y-80164807D01*
X207022387Y-60693614D02*
X206006386Y-60693614D01*
X187992000Y-71914000D02*
X187992000Y-73660000D01*
X187706000Y-71628000D02*
X187992000Y-71914000D01*
X195072000Y-71628000D02*
X187706000Y-71628000D01*
X206006386Y-60693614D02*
X195072000Y-71628000D01*
X211582000Y-57912000D02*
X211582000Y-58674000D01*
X207034773Y-60706000D02*
X207022387Y-60693614D01*
X207022387Y-60693614D02*
X203773260Y-57444487D01*
X209550000Y-60706000D02*
X207034773Y-60706000D01*
X211582000Y-58674000D02*
X209550000Y-60706000D01*
X225257513Y-68391260D02*
X222061260Y-68391260D01*
X211042000Y-52610000D02*
X209041999Y-52610000D01*
X211328000Y-52324000D02*
X211042000Y-52610000D01*
X211328000Y-57658000D02*
X211328000Y-52324000D01*
X222061260Y-68391260D02*
X211582000Y-57912000D01*
X211582000Y-57912000D02*
X211328000Y-57658000D01*
X226092000Y-73660000D02*
X216916000Y-73660000D01*
X216916000Y-73660000D02*
X214122000Y-76454000D01*
X226092000Y-73660000D02*
X226092000Y-69225747D01*
X226092000Y-69225747D02*
X225257513Y-68391260D01*
X215546807Y-93679739D02*
X220425739Y-93679739D01*
X226092000Y-75914000D02*
X226092000Y-73660000D01*
X226060000Y-75946000D02*
X226092000Y-75914000D01*
X228854000Y-75946000D02*
X226060000Y-75946000D01*
X231140000Y-78232000D02*
X228854000Y-75946000D01*
X231140000Y-82296000D02*
X231140000Y-78232000D01*
X230124000Y-83312000D02*
X231140000Y-82296000D01*
X230124000Y-84836000D02*
X230124000Y-83312000D01*
X220980000Y-93980000D02*
X230124000Y-84836000D01*
X220726000Y-93980000D02*
X220980000Y-93980000D01*
X220425739Y-93679739D02*
X220726000Y-93980000D01*
X209042000Y-90710000D02*
X210090000Y-90710000D01*
X213059739Y-93679739D02*
X215546807Y-93679739D01*
X210090000Y-90710000D02*
X213059739Y-93679739D01*
X209041999Y-58928001D02*
X208534000Y-59436000D01*
X211074000Y-61214000D02*
X214122000Y-64262000D01*
X214122000Y-64262000D02*
X214122000Y-70612000D01*
X214884000Y-69850000D02*
X216154000Y-71120000D01*
X216154000Y-71120000D02*
X216154000Y-72390000D01*
X215900000Y-73152000D02*
X214630000Y-74422000D01*
X214630000Y-74422000D02*
X214122000Y-74422000D01*
X209041999Y-56610000D02*
X209041999Y-58928001D01*
X209042000Y-94710000D02*
X210852000Y-94710000D01*
X221488000Y-82296000D02*
X221488000Y-81534000D01*
X221234000Y-82550000D02*
X221488000Y-82296000D01*
X216662000Y-88138000D02*
X216662000Y-82042000D01*
X210852000Y-94710000D02*
X211582000Y-93980000D01*
X203773260Y-89875513D02*
X205445513Y-89875513D01*
X206756000Y-92424000D02*
X209042000Y-94710000D01*
X206756000Y-91186000D02*
X206756000Y-92424000D01*
X205445513Y-89875513D02*
X206756000Y-91186000D01*
X222835739Y-83681738D02*
X222835739Y-82881739D01*
X222835739Y-82881739D02*
X221488000Y-81534000D01*
X222835739Y-83681738D02*
X225544808Y-83681738D01*
X225544808Y-83681738D02*
X229061739Y-80164807D01*
X215546807Y-53640261D02*
X213313739Y-53640261D01*
X210566000Y-58420000D02*
X209041999Y-56895999D01*
X213313739Y-53640261D02*
X212852000Y-54102000D01*
X209041999Y-56895999D02*
X209041999Y-56610000D01*
X192012193Y-61287119D02*
X193474881Y-61287119D01*
X206978000Y-56610000D02*
X209041999Y-56610000D01*
X206756000Y-56388000D02*
X206978000Y-56610000D01*
X193474881Y-61287119D02*
X195072000Y-59690000D01*
X192012193Y-61287119D02*
X192012193Y-67576966D01*
X192012193Y-67576966D02*
X192826487Y-68391260D01*
D16*
G36*
X205996001Y-92386668D02*
G01*
X205992324Y-92424000D01*
X205996001Y-92461333D01*
X206006998Y-92572986D01*
X206014305Y-92597075D01*
X206050454Y-92716246D01*
X206121026Y-92848276D01*
X206188700Y-92930736D01*
X206216000Y-92964001D01*
X206244998Y-92987799D01*
X207553928Y-94296730D01*
X207553928Y-95123000D01*
X203629259Y-95123000D01*
X203643416Y-95090635D01*
X203854905Y-94439739D01*
X204362937Y-94439739D01*
X204668210Y-94745013D01*
X204692000Y-94774001D01*
X204720987Y-94797790D01*
X204720996Y-94797799D01*
X204807723Y-94868973D01*
X204807725Y-94868974D01*
X204939754Y-94939546D01*
X205083015Y-94983003D01*
X205232000Y-94997677D01*
X205380986Y-94983003D01*
X205524247Y-94939546D01*
X205656276Y-94868974D01*
X205772001Y-94774001D01*
X205866974Y-94658276D01*
X205937546Y-94526247D01*
X205981003Y-94382986D01*
X205992000Y-94271333D01*
X205992000Y-94271322D01*
X205995676Y-94233999D01*
X205992000Y-94196676D01*
X205992000Y-92089191D01*
X205996001Y-92088396D01*
X205996001Y-92386668D01*
X205996001Y-92386668D01*
G37*
X205996001Y-92386668D02*
X205992324Y-92424000D01*
X205996001Y-92461333D01*
X206006998Y-92572986D01*
X206014305Y-92597075D01*
X206050454Y-92716246D01*
X206121026Y-92848276D01*
X206188700Y-92930736D01*
X206216000Y-92964001D01*
X206244998Y-92987799D01*
X207553928Y-94296730D01*
X207553928Y-95123000D01*
X203629259Y-95123000D01*
X203643416Y-95090635D01*
X203854905Y-94439739D01*
X204362937Y-94439739D01*
X204668210Y-94745013D01*
X204692000Y-94774001D01*
X204720987Y-94797790D01*
X204720996Y-94797799D01*
X204807723Y-94868973D01*
X204807725Y-94868974D01*
X204939754Y-94939546D01*
X205083015Y-94983003D01*
X205232000Y-94997677D01*
X205380986Y-94983003D01*
X205524247Y-94939546D01*
X205656276Y-94868974D01*
X205772001Y-94774001D01*
X205866974Y-94658276D01*
X205937546Y-94526247D01*
X205981003Y-94382986D01*
X205992000Y-94271333D01*
X205992000Y-94271322D01*
X205995676Y-94233999D01*
X205992000Y-94196676D01*
X205992000Y-92089191D01*
X205996001Y-92088396D01*
X205996001Y-92386668D01*
G36*
X212495939Y-94190741D02*
G01*
X212519738Y-94219740D01*
X212635463Y-94314713D01*
X212767492Y-94385285D01*
X212910753Y-94428742D01*
X213022406Y-94439739D01*
X213022415Y-94439739D01*
X213059738Y-94443415D01*
X213097061Y-94439739D01*
X214229094Y-94439739D01*
X214440583Y-95090635D01*
X214454740Y-95123000D01*
X211513801Y-95123000D01*
X211733649Y-94903153D01*
X211854729Y-94879068D01*
X212024889Y-94808586D01*
X212178028Y-94706262D01*
X212308262Y-94576028D01*
X212410586Y-94422889D01*
X212481068Y-94252729D01*
X212493820Y-94188622D01*
X212495939Y-94190741D01*
X212495939Y-94190741D01*
G37*
X212495939Y-94190741D02*
X212519738Y-94219740D01*
X212635463Y-94314713D01*
X212767492Y-94385285D01*
X212910753Y-94428742D01*
X213022406Y-94439739D01*
X213022415Y-94439739D01*
X213059738Y-94443415D01*
X213097061Y-94439739D01*
X214229094Y-94439739D01*
X214440583Y-95090635D01*
X214454740Y-95123000D01*
X211513801Y-95123000D01*
X211733649Y-94903153D01*
X211854729Y-94879068D01*
X212024889Y-94808586D01*
X212178028Y-94706262D01*
X212308262Y-94576028D01*
X212410586Y-94422889D01*
X212481068Y-94252729D01*
X212493820Y-94188622D01*
X212495939Y-94190741D01*
G36*
X217133576Y-95123000D02*
G01*
X216405820Y-95123000D01*
X216861397Y-94974974D01*
X216975998Y-94924846D01*
X217078617Y-94853325D01*
X217165311Y-94763158D01*
X217232748Y-94657810D01*
X217278338Y-94541330D01*
X217296480Y-94439739D01*
X218226794Y-94439739D01*
X217133576Y-95123000D01*
X217133576Y-95123000D01*
G37*
X217133576Y-95123000D02*
X216405820Y-95123000D01*
X216861397Y-94974974D01*
X216975998Y-94924846D01*
X217078617Y-94853325D01*
X217165311Y-94763158D01*
X217232748Y-94657810D01*
X217278338Y-94541330D01*
X217296480Y-94439739D01*
X218226794Y-94439739D01*
X217133576Y-95123000D01*
G36*
X197011911Y-84247000D02*
G01*
X197106001Y-84247000D01*
X197106001Y-85052657D01*
X197102323Y-85090000D01*
X197116997Y-85238986D01*
X197160454Y-85382247D01*
X197231026Y-85514276D01*
X197325999Y-85630001D01*
X197441724Y-85724974D01*
X197573753Y-85795546D01*
X197717014Y-85839003D01*
X197828667Y-85850000D01*
X197866000Y-85853677D01*
X197903333Y-85850000D01*
X198346088Y-85850000D01*
X197228600Y-87388090D01*
X197165350Y-87496004D01*
X197124369Y-87614184D01*
X197107231Y-87738089D01*
X197114595Y-87862956D01*
X197146177Y-87983987D01*
X197200765Y-88096531D01*
X197276261Y-88196263D01*
X197369762Y-88279350D01*
X198745091Y-89278584D01*
X198853005Y-89341834D01*
X198971185Y-89382815D01*
X199095089Y-89399953D01*
X199219956Y-89392589D01*
X199340987Y-89361007D01*
X199453532Y-89306419D01*
X199553264Y-89230924D01*
X199632959Y-89141239D01*
X200408001Y-89916281D01*
X200408000Y-93180677D01*
X200404324Y-93218000D01*
X200408000Y-93255322D01*
X200408000Y-93255332D01*
X200418997Y-93366985D01*
X200448978Y-93465820D01*
X200462454Y-93510246D01*
X200533026Y-93642276D01*
X200570348Y-93687753D01*
X200627999Y-93758001D01*
X200657003Y-93781804D01*
X200870128Y-93994929D01*
X200812934Y-94170956D01*
X200786128Y-94293134D01*
X200783752Y-94414144D01*
X197314794Y-92332770D01*
X198460780Y-90755456D01*
X198524030Y-90647542D01*
X198565011Y-90529362D01*
X198582149Y-90405457D01*
X198574785Y-90280590D01*
X198543203Y-90159559D01*
X198488615Y-90047015D01*
X198413119Y-89947283D01*
X198319618Y-89864196D01*
X197364857Y-89170522D01*
X197304093Y-89056843D01*
X197209120Y-88941118D01*
X197180122Y-88917320D01*
X196008261Y-87745460D01*
X196008261Y-84968923D01*
X196931944Y-84297828D01*
X196993307Y-84243299D01*
X197011911Y-84247000D01*
X197011911Y-84247000D01*
G37*
X197011911Y-84247000D02*
X197106001Y-84247000D01*
X197106001Y-85052657D01*
X197102323Y-85090000D01*
X197116997Y-85238986D01*
X197160454Y-85382247D01*
X197231026Y-85514276D01*
X197325999Y-85630001D01*
X197441724Y-85724974D01*
X197573753Y-85795546D01*
X197717014Y-85839003D01*
X197828667Y-85850000D01*
X197866000Y-85853677D01*
X197903333Y-85850000D01*
X198346088Y-85850000D01*
X197228600Y-87388090D01*
X197165350Y-87496004D01*
X197124369Y-87614184D01*
X197107231Y-87738089D01*
X197114595Y-87862956D01*
X197146177Y-87983987D01*
X197200765Y-88096531D01*
X197276261Y-88196263D01*
X197369762Y-88279350D01*
X198745091Y-89278584D01*
X198853005Y-89341834D01*
X198971185Y-89382815D01*
X199095089Y-89399953D01*
X199219956Y-89392589D01*
X199340987Y-89361007D01*
X199453532Y-89306419D01*
X199553264Y-89230924D01*
X199632959Y-89141239D01*
X200408001Y-89916281D01*
X200408000Y-93180677D01*
X200404324Y-93218000D01*
X200408000Y-93255322D01*
X200408000Y-93255332D01*
X200418997Y-93366985D01*
X200448978Y-93465820D01*
X200462454Y-93510246D01*
X200533026Y-93642276D01*
X200570348Y-93687753D01*
X200627999Y-93758001D01*
X200657003Y-93781804D01*
X200870128Y-93994929D01*
X200812934Y-94170956D01*
X200786128Y-94293134D01*
X200783752Y-94414144D01*
X197314794Y-92332770D01*
X198460780Y-90755456D01*
X198524030Y-90647542D01*
X198565011Y-90529362D01*
X198582149Y-90405457D01*
X198574785Y-90280590D01*
X198543203Y-90159559D01*
X198488615Y-90047015D01*
X198413119Y-89947283D01*
X198319618Y-89864196D01*
X197364857Y-89170522D01*
X197304093Y-89056843D01*
X197209120Y-88941118D01*
X197180122Y-88917320D01*
X196008261Y-87745460D01*
X196008261Y-84968923D01*
X196931944Y-84297828D01*
X196993307Y-84243299D01*
X197011911Y-84247000D01*
G36*
X210245414Y-88457111D02*
G01*
X210174932Y-88627271D01*
X210139000Y-88807911D01*
X210139000Y-88992089D01*
X210167917Y-89137462D01*
X210136180Y-89120498D01*
X210016482Y-89084188D01*
X209892000Y-89071928D01*
X208192000Y-89071928D01*
X208067518Y-89084188D01*
X207947820Y-89120498D01*
X207837506Y-89179463D01*
X207740815Y-89258815D01*
X207661463Y-89355506D01*
X207602498Y-89465820D01*
X207566188Y-89585518D01*
X207553928Y-89710000D01*
X207553928Y-91710000D01*
X207566188Y-91834482D01*
X207602498Y-91954180D01*
X207661463Y-92064494D01*
X207740815Y-92161185D01*
X207837506Y-92240537D01*
X207947820Y-92299502D01*
X208067518Y-92335812D01*
X208192000Y-92348072D01*
X209892000Y-92348072D01*
X210016482Y-92335812D01*
X210136180Y-92299502D01*
X210246494Y-92240537D01*
X210343185Y-92161185D01*
X210398717Y-92093519D01*
X211373378Y-93068180D01*
X211309271Y-93080932D01*
X211139111Y-93151414D01*
X210985972Y-93253738D01*
X210855738Y-93383972D01*
X210753414Y-93537111D01*
X210682932Y-93707271D01*
X210658847Y-93828351D01*
X210537199Y-93950000D01*
X210530072Y-93950000D01*
X210530072Y-93710000D01*
X210517812Y-93585518D01*
X210481502Y-93465820D01*
X210422537Y-93355506D01*
X210343185Y-93258815D01*
X210246494Y-93179463D01*
X210136180Y-93120498D01*
X210016482Y-93084188D01*
X209892000Y-93071928D01*
X208478730Y-93071928D01*
X207516000Y-92109199D01*
X207516000Y-91223322D01*
X207519676Y-91185999D01*
X207516000Y-91148676D01*
X207516000Y-91148667D01*
X207505003Y-91037014D01*
X207461546Y-90893753D01*
X207390974Y-90761724D01*
X207362591Y-90727139D01*
X207319799Y-90674996D01*
X207319795Y-90674992D01*
X207296001Y-90645999D01*
X207267009Y-90622206D01*
X206710622Y-90065820D01*
X206774729Y-90053068D01*
X206944889Y-89982586D01*
X207098028Y-89880262D01*
X207228262Y-89750028D01*
X207330586Y-89596889D01*
X207401068Y-89426729D01*
X207425153Y-89305649D01*
X208340803Y-88390000D01*
X210290256Y-88390000D01*
X210245414Y-88457111D01*
X210245414Y-88457111D01*
G37*
X210245414Y-88457111D02*
X210174932Y-88627271D01*
X210139000Y-88807911D01*
X210139000Y-88992089D01*
X210167917Y-89137462D01*
X210136180Y-89120498D01*
X210016482Y-89084188D01*
X209892000Y-89071928D01*
X208192000Y-89071928D01*
X208067518Y-89084188D01*
X207947820Y-89120498D01*
X207837506Y-89179463D01*
X207740815Y-89258815D01*
X207661463Y-89355506D01*
X207602498Y-89465820D01*
X207566188Y-89585518D01*
X207553928Y-89710000D01*
X207553928Y-91710000D01*
X207566188Y-91834482D01*
X207602498Y-91954180D01*
X207661463Y-92064494D01*
X207740815Y-92161185D01*
X207837506Y-92240537D01*
X207947820Y-92299502D01*
X208067518Y-92335812D01*
X208192000Y-92348072D01*
X209892000Y-92348072D01*
X210016482Y-92335812D01*
X210136180Y-92299502D01*
X210246494Y-92240537D01*
X210343185Y-92161185D01*
X210398717Y-92093519D01*
X211373378Y-93068180D01*
X211309271Y-93080932D01*
X211139111Y-93151414D01*
X210985972Y-93253738D01*
X210855738Y-93383972D01*
X210753414Y-93537111D01*
X210682932Y-93707271D01*
X210658847Y-93828351D01*
X210537199Y-93950000D01*
X210530072Y-93950000D01*
X210530072Y-93710000D01*
X210517812Y-93585518D01*
X210481502Y-93465820D01*
X210422537Y-93355506D01*
X210343185Y-93258815D01*
X210246494Y-93179463D01*
X210136180Y-93120498D01*
X210016482Y-93084188D01*
X209892000Y-93071928D01*
X208478730Y-93071928D01*
X207516000Y-92109199D01*
X207516000Y-91223322D01*
X207519676Y-91185999D01*
X207516000Y-91148676D01*
X207516000Y-91148667D01*
X207505003Y-91037014D01*
X207461546Y-90893753D01*
X207390974Y-90761724D01*
X207362591Y-90727139D01*
X207319799Y-90674996D01*
X207319795Y-90674992D01*
X207296001Y-90645999D01*
X207267009Y-90622206D01*
X206710622Y-90065820D01*
X206774729Y-90053068D01*
X206944889Y-89982586D01*
X207098028Y-89880262D01*
X207228262Y-89750028D01*
X207330586Y-89596889D01*
X207401068Y-89426729D01*
X207425153Y-89305649D01*
X208340803Y-88390000D01*
X210290256Y-88390000D01*
X210245414Y-88457111D01*
G36*
X210631111Y-89728586D02*
G01*
X210801271Y-89799068D01*
X210922351Y-89823153D01*
X211485713Y-90386515D01*
X211509512Y-90415514D01*
X211625237Y-90510487D01*
X211757266Y-90581059D01*
X211900527Y-90624516D01*
X212012180Y-90635513D01*
X212012188Y-90635513D01*
X212049513Y-90639189D01*
X212086838Y-90635513D01*
X212993026Y-90635513D01*
X213204515Y-91286409D01*
X213254643Y-91401010D01*
X213326164Y-91503629D01*
X213416332Y-91590323D01*
X213521679Y-91657760D01*
X213638159Y-91703350D01*
X213761295Y-91725339D01*
X213886355Y-91722883D01*
X214008533Y-91696077D01*
X214885165Y-91411242D01*
X214976047Y-91438810D01*
X215125033Y-91453484D01*
X215162366Y-91449807D01*
X220127695Y-91449807D01*
X220798790Y-92373490D01*
X220881877Y-92466991D01*
X220981609Y-92542487D01*
X221094153Y-92597075D01*
X221151227Y-92611968D01*
X220619478Y-92944311D01*
X220574725Y-92930736D01*
X220463072Y-92919739D01*
X220463061Y-92919739D01*
X220425739Y-92916063D01*
X220388417Y-92919739D01*
X216864520Y-92919739D01*
X216653031Y-92268843D01*
X216602903Y-92154242D01*
X216531382Y-92051623D01*
X216441214Y-91964929D01*
X216335867Y-91897492D01*
X216219387Y-91851902D01*
X216096251Y-91829913D01*
X215971191Y-91832369D01*
X215849013Y-91859175D01*
X214232217Y-92384504D01*
X214117616Y-92434632D01*
X214014997Y-92506153D01*
X213928303Y-92596320D01*
X213860866Y-92701668D01*
X213815276Y-92818148D01*
X213797134Y-92919739D01*
X213374541Y-92919739D01*
X210653804Y-90199003D01*
X210630001Y-90169999D01*
X210530072Y-90087989D01*
X210530072Y-89710000D01*
X210524914Y-89657628D01*
X210631111Y-89728586D01*
X210631111Y-89728586D01*
G37*
X210631111Y-89728586D02*
X210801271Y-89799068D01*
X210922351Y-89823153D01*
X211485713Y-90386515D01*
X211509512Y-90415514D01*
X211625237Y-90510487D01*
X211757266Y-90581059D01*
X211900527Y-90624516D01*
X212012180Y-90635513D01*
X212012188Y-90635513D01*
X212049513Y-90639189D01*
X212086838Y-90635513D01*
X212993026Y-90635513D01*
X213204515Y-91286409D01*
X213254643Y-91401010D01*
X213326164Y-91503629D01*
X213416332Y-91590323D01*
X213521679Y-91657760D01*
X213638159Y-91703350D01*
X213761295Y-91725339D01*
X213886355Y-91722883D01*
X214008533Y-91696077D01*
X214885165Y-91411242D01*
X214976047Y-91438810D01*
X215125033Y-91453484D01*
X215162366Y-91449807D01*
X220127695Y-91449807D01*
X220798790Y-92373490D01*
X220881877Y-92466991D01*
X220981609Y-92542487D01*
X221094153Y-92597075D01*
X221151227Y-92611968D01*
X220619478Y-92944311D01*
X220574725Y-92930736D01*
X220463072Y-92919739D01*
X220463061Y-92919739D01*
X220425739Y-92916063D01*
X220388417Y-92919739D01*
X216864520Y-92919739D01*
X216653031Y-92268843D01*
X216602903Y-92154242D01*
X216531382Y-92051623D01*
X216441214Y-91964929D01*
X216335867Y-91897492D01*
X216219387Y-91851902D01*
X216096251Y-91829913D01*
X215971191Y-91832369D01*
X215849013Y-91859175D01*
X214232217Y-92384504D01*
X214117616Y-92434632D01*
X214014997Y-92506153D01*
X213928303Y-92596320D01*
X213860866Y-92701668D01*
X213815276Y-92818148D01*
X213797134Y-92919739D01*
X213374541Y-92919739D01*
X210653804Y-90199003D01*
X210630001Y-90169999D01*
X210530072Y-90087989D01*
X210530072Y-89710000D01*
X210524914Y-89657628D01*
X210631111Y-89728586D01*
G36*
X203062932Y-87902729D02*
G01*
X203121435Y-88043970D01*
X203100680Y-88047676D01*
X202984200Y-88093266D01*
X202878852Y-88160703D01*
X202788685Y-88247397D01*
X202717164Y-88350016D01*
X202667036Y-88464617D01*
X202049002Y-90366730D01*
X202022196Y-90488908D01*
X202019740Y-90613968D01*
X202041729Y-90737104D01*
X202087319Y-90853584D01*
X202154756Y-90958931D01*
X202241450Y-91049099D01*
X202344069Y-91120620D01*
X202458670Y-91170748D01*
X204075466Y-91696077D01*
X204197644Y-91722883D01*
X204322704Y-91725339D01*
X204445840Y-91703350D01*
X204468376Y-91694529D01*
X204472000Y-91731323D01*
X204472000Y-92919739D01*
X204286865Y-92919739D01*
X204268723Y-92818148D01*
X204223133Y-92701668D01*
X204155696Y-92596321D01*
X204069002Y-92506153D01*
X203966383Y-92434632D01*
X203851782Y-92384504D01*
X202234986Y-91859175D01*
X202112808Y-91832369D01*
X201987748Y-91829913D01*
X201928000Y-91840582D01*
X201928000Y-89638811D01*
X201931677Y-89601478D01*
X201917003Y-89452492D01*
X201873546Y-89309231D01*
X201802974Y-89177202D01*
X201731799Y-89090475D01*
X201708001Y-89061477D01*
X201679003Y-89037679D01*
X200855063Y-88213739D01*
X202322939Y-88213739D01*
X202360261Y-88217415D01*
X202397583Y-88213739D01*
X202397594Y-88213739D01*
X202509247Y-88202742D01*
X202652508Y-88159285D01*
X202784537Y-88088713D01*
X202900262Y-87993740D01*
X202924065Y-87964736D01*
X203050180Y-87838621D01*
X203062932Y-87902729D01*
X203062932Y-87902729D01*
G37*
X203062932Y-87902729D02*
X203121435Y-88043970D01*
X203100680Y-88047676D01*
X202984200Y-88093266D01*
X202878852Y-88160703D01*
X202788685Y-88247397D01*
X202717164Y-88350016D01*
X202667036Y-88464617D01*
X202049002Y-90366730D01*
X202022196Y-90488908D01*
X202019740Y-90613968D01*
X202041729Y-90737104D01*
X202087319Y-90853584D01*
X202154756Y-90958931D01*
X202241450Y-91049099D01*
X202344069Y-91120620D01*
X202458670Y-91170748D01*
X204075466Y-91696077D01*
X204197644Y-91722883D01*
X204322704Y-91725339D01*
X204445840Y-91703350D01*
X204468376Y-91694529D01*
X204472000Y-91731323D01*
X204472000Y-92919739D01*
X204286865Y-92919739D01*
X204268723Y-92818148D01*
X204223133Y-92701668D01*
X204155696Y-92596321D01*
X204069002Y-92506153D01*
X203966383Y-92434632D01*
X203851782Y-92384504D01*
X202234986Y-91859175D01*
X202112808Y-91832369D01*
X201987748Y-91829913D01*
X201928000Y-91840582D01*
X201928000Y-89638811D01*
X201931677Y-89601478D01*
X201917003Y-89452492D01*
X201873546Y-89309231D01*
X201802974Y-89177202D01*
X201731799Y-89090475D01*
X201708001Y-89061477D01*
X201679003Y-89037679D01*
X200855063Y-88213739D01*
X202322939Y-88213739D01*
X202360261Y-88217415D01*
X202397583Y-88213739D01*
X202397594Y-88213739D01*
X202509247Y-88202742D01*
X202652508Y-88159285D01*
X202784537Y-88088713D01*
X202900262Y-87993740D01*
X202924065Y-87964736D01*
X203050180Y-87838621D01*
X203062932Y-87902729D01*
G36*
X190461463Y-72455506D02*
G01*
X190402498Y-72565820D01*
X190366188Y-72685518D01*
X190353928Y-72810000D01*
X190353928Y-74510000D01*
X190366188Y-74634482D01*
X190402498Y-74754180D01*
X190461463Y-74864494D01*
X190540815Y-74961185D01*
X190637506Y-75040537D01*
X190747820Y-75099502D01*
X190867518Y-75135812D01*
X190992000Y-75148072D01*
X192405271Y-75148072D01*
X194820001Y-77562803D01*
X194820000Y-79464667D01*
X194816323Y-79502000D01*
X194820000Y-79539332D01*
X194820000Y-79695199D01*
X194737259Y-79777940D01*
X194708261Y-79801738D01*
X194684463Y-79830736D01*
X194684462Y-79830737D01*
X194613287Y-79917463D01*
X194542715Y-80049493D01*
X194528074Y-80097760D01*
X194499259Y-80192753D01*
X194489090Y-80296001D01*
X194484585Y-80341739D01*
X194488262Y-80379071D01*
X194488262Y-80616141D01*
X194461649Y-80610847D01*
X193971994Y-80121193D01*
X194237383Y-80034963D01*
X194351984Y-79984835D01*
X194454603Y-79913314D01*
X194541297Y-79823146D01*
X194608734Y-79717799D01*
X194654324Y-79601319D01*
X194676313Y-79478183D01*
X194673857Y-79353123D01*
X194647051Y-79230945D01*
X194121722Y-77614149D01*
X194071594Y-77499548D01*
X194000073Y-77396929D01*
X193909906Y-77310235D01*
X193804558Y-77242798D01*
X193688078Y-77197208D01*
X193564942Y-77175219D01*
X193439882Y-77177675D01*
X193317704Y-77204481D01*
X191415591Y-77822515D01*
X191300990Y-77872643D01*
X191198371Y-77944164D01*
X191111677Y-78034332D01*
X191044240Y-78139679D01*
X190998650Y-78256159D01*
X190976661Y-78379295D01*
X190979117Y-78504355D01*
X191005923Y-78626533D01*
X191531252Y-80243329D01*
X191581380Y-80357930D01*
X191652901Y-80460549D01*
X191743068Y-80547243D01*
X191848416Y-80614680D01*
X191964896Y-80660270D01*
X192066487Y-80678412D01*
X192066488Y-84173797D01*
X192054458Y-84177969D01*
X191946544Y-84241219D01*
X190328510Y-85416790D01*
X190235009Y-85499877D01*
X190159513Y-85599609D01*
X190104925Y-85712153D01*
X190073343Y-85833184D01*
X190065979Y-85958051D01*
X190083117Y-86081956D01*
X190124098Y-86200136D01*
X190187348Y-86308050D01*
X191186582Y-87683379D01*
X191269669Y-87776881D01*
X191369401Y-87852376D01*
X191481946Y-87906964D01*
X191602977Y-87938546D01*
X191727844Y-87945910D01*
X191851748Y-87928772D01*
X191969928Y-87887791D01*
X192077842Y-87824541D01*
X193695876Y-86648970D01*
X193789377Y-86565883D01*
X193864873Y-86466151D01*
X193919461Y-86353607D01*
X193951043Y-86232576D01*
X193958407Y-86107709D01*
X193941269Y-85983804D01*
X193900288Y-85865624D01*
X193837038Y-85757710D01*
X193569039Y-85388840D01*
X193575490Y-85367572D01*
X193586487Y-85255919D01*
X193590164Y-85218586D01*
X193586487Y-85181253D01*
X193586487Y-84181356D01*
X194422650Y-85332237D01*
X194488262Y-85406073D01*
X194488261Y-88022938D01*
X194484585Y-88060261D01*
X194488261Y-88097583D01*
X194488261Y-88097593D01*
X194499258Y-88209246D01*
X194534497Y-88325414D01*
X194542715Y-88352507D01*
X194613287Y-88484537D01*
X194633308Y-88508932D01*
X194708260Y-88600262D01*
X194737264Y-88624065D01*
X195660118Y-89546920D01*
X194877458Y-90624158D01*
X194824454Y-90714591D01*
X190600184Y-87546388D01*
X186817000Y-79980020D01*
X186817000Y-75120488D01*
X186867518Y-75135812D01*
X186992000Y-75148072D01*
X187232000Y-75148072D01*
X187232001Y-79097214D01*
X187228324Y-79134546D01*
X187232001Y-79171879D01*
X187241705Y-79270399D01*
X187242998Y-79283531D01*
X187261018Y-79342936D01*
X187240014Y-79375747D01*
X187194424Y-79492227D01*
X187172435Y-79615363D01*
X187174891Y-79740423D01*
X187201697Y-79862601D01*
X187727026Y-81479397D01*
X187777154Y-81593998D01*
X187848675Y-81696617D01*
X187938842Y-81783311D01*
X188044190Y-81850748D01*
X188160670Y-81896338D01*
X188283806Y-81918327D01*
X188408866Y-81915871D01*
X188531044Y-81889065D01*
X190433157Y-81271031D01*
X190547758Y-81220903D01*
X190650377Y-81149382D01*
X190737071Y-81059214D01*
X190804508Y-80953867D01*
X190850098Y-80837387D01*
X190872087Y-80714251D01*
X190869631Y-80589191D01*
X190842825Y-80467013D01*
X190317496Y-78850217D01*
X190267368Y-78735616D01*
X190195847Y-78632997D01*
X190105680Y-78546303D01*
X190000332Y-78478866D01*
X189883852Y-78433276D01*
X189760716Y-78411287D01*
X189635656Y-78413743D01*
X189513478Y-78440549D01*
X188752000Y-78687968D01*
X188752000Y-75148072D01*
X188992000Y-75148072D01*
X189116482Y-75135812D01*
X189236180Y-75099502D01*
X189346494Y-75040537D01*
X189443185Y-74961185D01*
X189522537Y-74864494D01*
X189581502Y-74754180D01*
X189617812Y-74634482D01*
X189630072Y-74510000D01*
X189630072Y-72810000D01*
X189617812Y-72685518D01*
X189581502Y-72565820D01*
X189522537Y-72455506D01*
X189467136Y-72388000D01*
X190516864Y-72388000D01*
X190461463Y-72455506D01*
X190461463Y-72455506D01*
G37*
X190461463Y-72455506D02*
X190402498Y-72565820D01*
X190366188Y-72685518D01*
X190353928Y-72810000D01*
X190353928Y-74510000D01*
X190366188Y-74634482D01*
X190402498Y-74754180D01*
X190461463Y-74864494D01*
X190540815Y-74961185D01*
X190637506Y-75040537D01*
X190747820Y-75099502D01*
X190867518Y-75135812D01*
X190992000Y-75148072D01*
X192405271Y-75148072D01*
X194820001Y-77562803D01*
X194820000Y-79464667D01*
X194816323Y-79502000D01*
X194820000Y-79539332D01*
X194820000Y-79695199D01*
X194737259Y-79777940D01*
X194708261Y-79801738D01*
X194684463Y-79830736D01*
X194684462Y-79830737D01*
X194613287Y-79917463D01*
X194542715Y-80049493D01*
X194528074Y-80097760D01*
X194499259Y-80192753D01*
X194489090Y-80296001D01*
X194484585Y-80341739D01*
X194488262Y-80379071D01*
X194488262Y-80616141D01*
X194461649Y-80610847D01*
X193971994Y-80121193D01*
X194237383Y-80034963D01*
X194351984Y-79984835D01*
X194454603Y-79913314D01*
X194541297Y-79823146D01*
X194608734Y-79717799D01*
X194654324Y-79601319D01*
X194676313Y-79478183D01*
X194673857Y-79353123D01*
X194647051Y-79230945D01*
X194121722Y-77614149D01*
X194071594Y-77499548D01*
X194000073Y-77396929D01*
X193909906Y-77310235D01*
X193804558Y-77242798D01*
X193688078Y-77197208D01*
X193564942Y-77175219D01*
X193439882Y-77177675D01*
X193317704Y-77204481D01*
X191415591Y-77822515D01*
X191300990Y-77872643D01*
X191198371Y-77944164D01*
X191111677Y-78034332D01*
X191044240Y-78139679D01*
X190998650Y-78256159D01*
X190976661Y-78379295D01*
X190979117Y-78504355D01*
X191005923Y-78626533D01*
X191531252Y-80243329D01*
X191581380Y-80357930D01*
X191652901Y-80460549D01*
X191743068Y-80547243D01*
X191848416Y-80614680D01*
X191964896Y-80660270D01*
X192066487Y-80678412D01*
X192066488Y-84173797D01*
X192054458Y-84177969D01*
X191946544Y-84241219D01*
X190328510Y-85416790D01*
X190235009Y-85499877D01*
X190159513Y-85599609D01*
X190104925Y-85712153D01*
X190073343Y-85833184D01*
X190065979Y-85958051D01*
X190083117Y-86081956D01*
X190124098Y-86200136D01*
X190187348Y-86308050D01*
X191186582Y-87683379D01*
X191269669Y-87776881D01*
X191369401Y-87852376D01*
X191481946Y-87906964D01*
X191602977Y-87938546D01*
X191727844Y-87945910D01*
X191851748Y-87928772D01*
X191969928Y-87887791D01*
X192077842Y-87824541D01*
X193695876Y-86648970D01*
X193789377Y-86565883D01*
X193864873Y-86466151D01*
X193919461Y-86353607D01*
X193951043Y-86232576D01*
X193958407Y-86107709D01*
X193941269Y-85983804D01*
X193900288Y-85865624D01*
X193837038Y-85757710D01*
X193569039Y-85388840D01*
X193575490Y-85367572D01*
X193586487Y-85255919D01*
X193590164Y-85218586D01*
X193586487Y-85181253D01*
X193586487Y-84181356D01*
X194422650Y-85332237D01*
X194488262Y-85406073D01*
X194488261Y-88022938D01*
X194484585Y-88060261D01*
X194488261Y-88097583D01*
X194488261Y-88097593D01*
X194499258Y-88209246D01*
X194534497Y-88325414D01*
X194542715Y-88352507D01*
X194613287Y-88484537D01*
X194633308Y-88508932D01*
X194708260Y-88600262D01*
X194737264Y-88624065D01*
X195660118Y-89546920D01*
X194877458Y-90624158D01*
X194824454Y-90714591D01*
X190600184Y-87546388D01*
X186817000Y-79980020D01*
X186817000Y-75120488D01*
X186867518Y-75135812D01*
X186992000Y-75148072D01*
X187232000Y-75148072D01*
X187232001Y-79097214D01*
X187228324Y-79134546D01*
X187232001Y-79171879D01*
X187241705Y-79270399D01*
X187242998Y-79283531D01*
X187261018Y-79342936D01*
X187240014Y-79375747D01*
X187194424Y-79492227D01*
X187172435Y-79615363D01*
X187174891Y-79740423D01*
X187201697Y-79862601D01*
X187727026Y-81479397D01*
X187777154Y-81593998D01*
X187848675Y-81696617D01*
X187938842Y-81783311D01*
X188044190Y-81850748D01*
X188160670Y-81896338D01*
X188283806Y-81918327D01*
X188408866Y-81915871D01*
X188531044Y-81889065D01*
X190433157Y-81271031D01*
X190547758Y-81220903D01*
X190650377Y-81149382D01*
X190737071Y-81059214D01*
X190804508Y-80953867D01*
X190850098Y-80837387D01*
X190872087Y-80714251D01*
X190869631Y-80589191D01*
X190842825Y-80467013D01*
X190317496Y-78850217D01*
X190267368Y-78735616D01*
X190195847Y-78632997D01*
X190105680Y-78546303D01*
X190000332Y-78478866D01*
X189883852Y-78433276D01*
X189760716Y-78411287D01*
X189635656Y-78413743D01*
X189513478Y-78440549D01*
X188752000Y-78687968D01*
X188752000Y-75148072D01*
X188992000Y-75148072D01*
X189116482Y-75135812D01*
X189236180Y-75099502D01*
X189346494Y-75040537D01*
X189443185Y-74961185D01*
X189522537Y-74864494D01*
X189581502Y-74754180D01*
X189617812Y-74634482D01*
X189630072Y-74510000D01*
X189630072Y-72810000D01*
X189617812Y-72685518D01*
X189581502Y-72565820D01*
X189522537Y-72455506D01*
X189467136Y-72388000D01*
X190516864Y-72388000D01*
X190461463Y-72455506D01*
G36*
X215457111Y-85918586D02*
G01*
X215627271Y-85989068D01*
X215807911Y-86025000D01*
X215902000Y-86025000D01*
X215902000Y-87592464D01*
X215833414Y-87695111D01*
X215762932Y-87865271D01*
X215727000Y-88045911D01*
X215727000Y-88230089D01*
X215762932Y-88410729D01*
X215833414Y-88580889D01*
X215935738Y-88734028D01*
X216065972Y-88864262D01*
X216219111Y-88966586D01*
X216389271Y-89037068D01*
X216569911Y-89073000D01*
X216754089Y-89073000D01*
X216934729Y-89037068D01*
X217104889Y-88966586D01*
X217258028Y-88864262D01*
X217388262Y-88734028D01*
X217490586Y-88580889D01*
X217561068Y-88410729D01*
X217597000Y-88230089D01*
X217597000Y-88045911D01*
X217575278Y-87936708D01*
X218447648Y-89137422D01*
X218530735Y-89230923D01*
X218630467Y-89306419D01*
X218743011Y-89361007D01*
X218864042Y-89392589D01*
X218988909Y-89399953D01*
X219112814Y-89382815D01*
X219230994Y-89341834D01*
X219338908Y-89278584D01*
X220714237Y-88279350D01*
X220807739Y-88196263D01*
X220883234Y-88096531D01*
X220937822Y-87983986D01*
X220969404Y-87862955D01*
X220976768Y-87738088D01*
X220959630Y-87614184D01*
X220918687Y-87496114D01*
X221745004Y-86669798D01*
X221774001Y-86646001D01*
X221861988Y-86538789D01*
X223464200Y-88141002D01*
X223487999Y-88170001D01*
X223603724Y-88264974D01*
X223735753Y-88335546D01*
X223879014Y-88379003D01*
X223990667Y-88390000D01*
X223990675Y-88390000D01*
X224028000Y-88393676D01*
X224065325Y-88390000D01*
X224437365Y-88390000D01*
X224474687Y-88393676D01*
X224512009Y-88390000D01*
X224512020Y-88390000D01*
X224623673Y-88379003D01*
X224766934Y-88335546D01*
X224898963Y-88264974D01*
X225014688Y-88170001D01*
X225038491Y-88140997D01*
X225628982Y-87550506D01*
X226006158Y-87824541D01*
X226040518Y-87844680D01*
X224455000Y-89430199D01*
X224455000Y-89315911D01*
X224419068Y-89135271D01*
X224348586Y-88965111D01*
X224246262Y-88811972D01*
X224116028Y-88681738D01*
X223962889Y-88579414D01*
X223792729Y-88508932D01*
X223612089Y-88473000D01*
X223427911Y-88473000D01*
X223247271Y-88508932D01*
X223077111Y-88579414D01*
X222923972Y-88681738D01*
X222793738Y-88811972D01*
X222691414Y-88965111D01*
X222620932Y-89135271D01*
X222596847Y-89256351D01*
X222374393Y-89478805D01*
X222030970Y-89006124D01*
X221947883Y-88912623D01*
X221848151Y-88837127D01*
X221735607Y-88782539D01*
X221614576Y-88750957D01*
X221489709Y-88743593D01*
X221365804Y-88760731D01*
X221247624Y-88801712D01*
X221139710Y-88864962D01*
X219764381Y-89864196D01*
X219690546Y-89929807D01*
X215893032Y-89929807D01*
X215416963Y-88464617D01*
X215366835Y-88350016D01*
X215295314Y-88247397D01*
X215205146Y-88160703D01*
X215099799Y-88093266D01*
X214983319Y-88047676D01*
X214882000Y-88029583D01*
X214882000Y-86397535D01*
X214950586Y-86294889D01*
X215021068Y-86124729D01*
X215057000Y-85944089D01*
X215057000Y-85850000D01*
X215354465Y-85850000D01*
X215457111Y-85918586D01*
X215457111Y-85918586D01*
G37*
X215457111Y-85918586D02*
X215627271Y-85989068D01*
X215807911Y-86025000D01*
X215902000Y-86025000D01*
X215902000Y-87592464D01*
X215833414Y-87695111D01*
X215762932Y-87865271D01*
X215727000Y-88045911D01*
X215727000Y-88230089D01*
X215762932Y-88410729D01*
X215833414Y-88580889D01*
X215935738Y-88734028D01*
X216065972Y-88864262D01*
X216219111Y-88966586D01*
X216389271Y-89037068D01*
X216569911Y-89073000D01*
X216754089Y-89073000D01*
X216934729Y-89037068D01*
X217104889Y-88966586D01*
X217258028Y-88864262D01*
X217388262Y-88734028D01*
X217490586Y-88580889D01*
X217561068Y-88410729D01*
X217597000Y-88230089D01*
X217597000Y-88045911D01*
X217575278Y-87936708D01*
X218447648Y-89137422D01*
X218530735Y-89230923D01*
X218630467Y-89306419D01*
X218743011Y-89361007D01*
X218864042Y-89392589D01*
X218988909Y-89399953D01*
X219112814Y-89382815D01*
X219230994Y-89341834D01*
X219338908Y-89278584D01*
X220714237Y-88279350D01*
X220807739Y-88196263D01*
X220883234Y-88096531D01*
X220937822Y-87983986D01*
X220969404Y-87862955D01*
X220976768Y-87738088D01*
X220959630Y-87614184D01*
X220918687Y-87496114D01*
X221745004Y-86669798D01*
X221774001Y-86646001D01*
X221861988Y-86538789D01*
X223464200Y-88141002D01*
X223487999Y-88170001D01*
X223603724Y-88264974D01*
X223735753Y-88335546D01*
X223879014Y-88379003D01*
X223990667Y-88390000D01*
X223990675Y-88390000D01*
X224028000Y-88393676D01*
X224065325Y-88390000D01*
X224437365Y-88390000D01*
X224474687Y-88393676D01*
X224512009Y-88390000D01*
X224512020Y-88390000D01*
X224623673Y-88379003D01*
X224766934Y-88335546D01*
X224898963Y-88264974D01*
X225014688Y-88170001D01*
X225038491Y-88140997D01*
X225628982Y-87550506D01*
X226006158Y-87824541D01*
X226040518Y-87844680D01*
X224455000Y-89430199D01*
X224455000Y-89315911D01*
X224419068Y-89135271D01*
X224348586Y-88965111D01*
X224246262Y-88811972D01*
X224116028Y-88681738D01*
X223962889Y-88579414D01*
X223792729Y-88508932D01*
X223612089Y-88473000D01*
X223427911Y-88473000D01*
X223247271Y-88508932D01*
X223077111Y-88579414D01*
X222923972Y-88681738D01*
X222793738Y-88811972D01*
X222691414Y-88965111D01*
X222620932Y-89135271D01*
X222596847Y-89256351D01*
X222374393Y-89478805D01*
X222030970Y-89006124D01*
X221947883Y-88912623D01*
X221848151Y-88837127D01*
X221735607Y-88782539D01*
X221614576Y-88750957D01*
X221489709Y-88743593D01*
X221365804Y-88760731D01*
X221247624Y-88801712D01*
X221139710Y-88864962D01*
X219764381Y-89864196D01*
X219690546Y-89929807D01*
X215893032Y-89929807D01*
X215416963Y-88464617D01*
X215366835Y-88350016D01*
X215295314Y-88247397D01*
X215205146Y-88160703D01*
X215099799Y-88093266D01*
X214983319Y-88047676D01*
X214882000Y-88029583D01*
X214882000Y-86397535D01*
X214950586Y-86294889D01*
X215021068Y-86124729D01*
X215057000Y-85944089D01*
X215057000Y-85850000D01*
X215354465Y-85850000D01*
X215457111Y-85918586D01*
G36*
X213187000Y-85944089D02*
G01*
X213222932Y-86124729D01*
X213293414Y-86294889D01*
X213362000Y-86397536D01*
X213362000Y-86870000D01*
X208063322Y-86870000D01*
X208025999Y-86866324D01*
X207988676Y-86870000D01*
X207988667Y-86870000D01*
X207877014Y-86880997D01*
X207733753Y-86924454D01*
X207601724Y-86995026D01*
X207601722Y-86995027D01*
X207601723Y-86995027D01*
X207514996Y-87066201D01*
X207514992Y-87066205D01*
X207485999Y-87089999D01*
X207462205Y-87118992D01*
X206350351Y-88230847D01*
X206229271Y-88254932D01*
X206059111Y-88325414D01*
X205905972Y-88427738D01*
X205775738Y-88557972D01*
X205673414Y-88711111D01*
X205602932Y-88881271D01*
X205567000Y-89061911D01*
X205567000Y-89123802D01*
X205523650Y-89119532D01*
X205504791Y-89013922D01*
X205459201Y-88897442D01*
X205391764Y-88792095D01*
X205305070Y-88701927D01*
X205202451Y-88630406D01*
X205087850Y-88580278D01*
X204505801Y-88391159D01*
X204558028Y-88356262D01*
X204688262Y-88226028D01*
X204790586Y-88072889D01*
X204861068Y-87902729D01*
X204885153Y-87781649D01*
X206816803Y-85850000D01*
X213187000Y-85850000D01*
X213187000Y-85944089D01*
X213187000Y-85944089D01*
G37*
X213187000Y-85944089D02*
X213222932Y-86124729D01*
X213293414Y-86294889D01*
X213362000Y-86397536D01*
X213362000Y-86870000D01*
X208063322Y-86870000D01*
X208025999Y-86866324D01*
X207988676Y-86870000D01*
X207988667Y-86870000D01*
X207877014Y-86880997D01*
X207733753Y-86924454D01*
X207601724Y-86995026D01*
X207601722Y-86995027D01*
X207601723Y-86995027D01*
X207514996Y-87066201D01*
X207514992Y-87066205D01*
X207485999Y-87089999D01*
X207462205Y-87118992D01*
X206350351Y-88230847D01*
X206229271Y-88254932D01*
X206059111Y-88325414D01*
X205905972Y-88427738D01*
X205775738Y-88557972D01*
X205673414Y-88711111D01*
X205602932Y-88881271D01*
X205567000Y-89061911D01*
X205567000Y-89123802D01*
X205523650Y-89119532D01*
X205504791Y-89013922D01*
X205459201Y-88897442D01*
X205391764Y-88792095D01*
X205305070Y-88701927D01*
X205202451Y-88630406D01*
X205087850Y-88580278D01*
X204505801Y-88391159D01*
X204558028Y-88356262D01*
X204688262Y-88226028D01*
X204790586Y-88072889D01*
X204861068Y-87902729D01*
X204885153Y-87781649D01*
X206816803Y-85850000D01*
X213187000Y-85850000D01*
X213187000Y-85944089D01*
G36*
X213368494Y-88459296D02*
G01*
X212996149Y-88580278D01*
X212881548Y-88630406D01*
X212778929Y-88701927D01*
X212692235Y-88792094D01*
X212624798Y-88897442D01*
X212579208Y-89013922D01*
X212561066Y-89115513D01*
X212364315Y-89115513D01*
X211997153Y-88748351D01*
X211973068Y-88627271D01*
X211902586Y-88457111D01*
X211857744Y-88390000D01*
X213299199Y-88390000D01*
X213368494Y-88459296D01*
X213368494Y-88459296D01*
G37*
X213368494Y-88459296D02*
X212996149Y-88580278D01*
X212881548Y-88630406D01*
X212778929Y-88701927D01*
X212692235Y-88792094D01*
X212624798Y-88897442D01*
X212579208Y-89013922D01*
X212561066Y-89115513D01*
X212364315Y-89115513D01*
X211997153Y-88748351D01*
X211973068Y-88627271D01*
X211902586Y-88457111D01*
X211857744Y-88390000D01*
X213299199Y-88390000D01*
X213368494Y-88459296D01*
G36*
X227226196Y-88815112D02*
G01*
X227208846Y-88825956D01*
X227230100Y-88804702D01*
X227226196Y-88815112D01*
X227226196Y-88815112D01*
G37*
X227226196Y-88815112D02*
X227208846Y-88825956D01*
X227230100Y-88804702D01*
X227226196Y-88815112D01*
G36*
X224246962Y-85757710D02*
G01*
X224183712Y-85865624D01*
X224142731Y-85983804D01*
X224125593Y-86107708D01*
X224132957Y-86232575D01*
X224164539Y-86353606D01*
X224219127Y-86466151D01*
X224294622Y-86565883D01*
X224384307Y-86645578D01*
X224251344Y-86778542D01*
X223059139Y-85586338D01*
X223120089Y-85594768D01*
X223244956Y-85587404D01*
X223365987Y-85555822D01*
X223478531Y-85501234D01*
X223578263Y-85425738D01*
X223661350Y-85332237D01*
X224308335Y-84441738D01*
X225203071Y-84441738D01*
X224246962Y-85757710D01*
X224246962Y-85757710D01*
G37*
X224246962Y-85757710D02*
X224183712Y-85865624D01*
X224142731Y-85983804D01*
X224125593Y-86107708D01*
X224132957Y-86232575D01*
X224164539Y-86353606D01*
X224219127Y-86466151D01*
X224294622Y-86565883D01*
X224384307Y-86645578D01*
X224251344Y-86778542D01*
X223059139Y-85586338D01*
X223120089Y-85594768D01*
X223244956Y-85587404D01*
X223365987Y-85555822D01*
X223478531Y-85501234D01*
X223578263Y-85425738D01*
X223661350Y-85332237D01*
X224308335Y-84441738D01*
X225203071Y-84441738D01*
X224246962Y-85757710D01*
G36*
X202045460Y-86693739D02*
G01*
X200744595Y-86693739D01*
X200670760Y-86628128D01*
X199599758Y-85850000D01*
X202889199Y-85850000D01*
X202045460Y-86693739D01*
X202045460Y-86693739D01*
G37*
X202045460Y-86693739D02*
X200744595Y-86693739D01*
X200670760Y-86628128D01*
X199599758Y-85850000D01*
X202889199Y-85850000D01*
X202045460Y-86693739D01*
G36*
X218303739Y-80440541D02*
G01*
X218303738Y-85981143D01*
X217422000Y-86621763D01*
X217422000Y-82587535D01*
X217490586Y-82484889D01*
X217561068Y-82314729D01*
X217597000Y-82134089D01*
X217597000Y-81949911D01*
X217561068Y-81769271D01*
X217490586Y-81599111D01*
X217388262Y-81445972D01*
X217258028Y-81315738D01*
X217104889Y-81213414D01*
X216934729Y-81142932D01*
X216754089Y-81107000D01*
X216569911Y-81107000D01*
X216389271Y-81142932D01*
X216219111Y-81213414D01*
X216065972Y-81315738D01*
X215935738Y-81445972D01*
X215833414Y-81599111D01*
X215762932Y-81769271D01*
X215727000Y-81949911D01*
X215727000Y-82134089D01*
X215762932Y-82314729D01*
X215833414Y-82484889D01*
X215902001Y-82587537D01*
X215902001Y-84155000D01*
X215807911Y-84155000D01*
X215627271Y-84190932D01*
X215457111Y-84261414D01*
X215354465Y-84330000D01*
X206558802Y-84330000D01*
X208638180Y-82250622D01*
X208650932Y-82314729D01*
X208721414Y-82484889D01*
X208823738Y-82638028D01*
X208953972Y-82768262D01*
X209107111Y-82870586D01*
X209277271Y-82941068D01*
X209457911Y-82977000D01*
X209642089Y-82977000D01*
X209822729Y-82941068D01*
X209992889Y-82870586D01*
X210095535Y-82802000D01*
X213576678Y-82802000D01*
X213614000Y-82805676D01*
X213651322Y-82802000D01*
X213651333Y-82802000D01*
X213762986Y-82791003D01*
X213906247Y-82747546D01*
X214038276Y-82676974D01*
X214154001Y-82582001D01*
X214177804Y-82552997D01*
X216559649Y-80171153D01*
X216680729Y-80147068D01*
X216850889Y-80076586D01*
X217004028Y-79974262D01*
X217134262Y-79844028D01*
X217236586Y-79690889D01*
X217307068Y-79520729D01*
X217319820Y-79456621D01*
X218303739Y-80440541D01*
X218303739Y-80440541D01*
G37*
X218303739Y-80440541D02*
X218303738Y-85981143D01*
X217422000Y-86621763D01*
X217422000Y-82587535D01*
X217490586Y-82484889D01*
X217561068Y-82314729D01*
X217597000Y-82134089D01*
X217597000Y-81949911D01*
X217561068Y-81769271D01*
X217490586Y-81599111D01*
X217388262Y-81445972D01*
X217258028Y-81315738D01*
X217104889Y-81213414D01*
X216934729Y-81142932D01*
X216754089Y-81107000D01*
X216569911Y-81107000D01*
X216389271Y-81142932D01*
X216219111Y-81213414D01*
X216065972Y-81315738D01*
X215935738Y-81445972D01*
X215833414Y-81599111D01*
X215762932Y-81769271D01*
X215727000Y-81949911D01*
X215727000Y-82134089D01*
X215762932Y-82314729D01*
X215833414Y-82484889D01*
X215902001Y-82587537D01*
X215902001Y-84155000D01*
X215807911Y-84155000D01*
X215627271Y-84190932D01*
X215457111Y-84261414D01*
X215354465Y-84330000D01*
X206558802Y-84330000D01*
X208638180Y-82250622D01*
X208650932Y-82314729D01*
X208721414Y-82484889D01*
X208823738Y-82638028D01*
X208953972Y-82768262D01*
X209107111Y-82870586D01*
X209277271Y-82941068D01*
X209457911Y-82977000D01*
X209642089Y-82977000D01*
X209822729Y-82941068D01*
X209992889Y-82870586D01*
X210095535Y-82802000D01*
X213576678Y-82802000D01*
X213614000Y-82805676D01*
X213651322Y-82802000D01*
X213651333Y-82802000D01*
X213762986Y-82791003D01*
X213906247Y-82747546D01*
X214038276Y-82676974D01*
X214154001Y-82582001D01*
X214177804Y-82552997D01*
X216559649Y-80171153D01*
X216680729Y-80147068D01*
X216850889Y-80076586D01*
X217004028Y-79974262D01*
X217134262Y-79844028D01*
X217236586Y-79690889D01*
X217307068Y-79520729D01*
X217319820Y-79456621D01*
X218303739Y-80440541D01*
G36*
X220029111Y-86172586D02*
G01*
X220074013Y-86191185D01*
X220022919Y-86242280D01*
X219918667Y-86098790D01*
X220029111Y-86172586D01*
X220029111Y-86172586D01*
G37*
X220029111Y-86172586D02*
X220074013Y-86191185D01*
X220022919Y-86242280D01*
X219918667Y-86098790D01*
X220029111Y-86172586D01*
G36*
X229552956Y-81889065D02*
G01*
X229675134Y-81915871D01*
X229800194Y-81918327D01*
X229813373Y-81915973D01*
X228519862Y-85365336D01*
X228012960Y-85872238D01*
X228010657Y-85833185D01*
X227979075Y-85712154D01*
X227924487Y-85599609D01*
X227848992Y-85499877D01*
X227755490Y-85416790D01*
X226137456Y-84241219D01*
X226091113Y-84214057D01*
X226108612Y-84192735D01*
X228692018Y-81609329D01*
X229552956Y-81889065D01*
X229552956Y-81889065D01*
G37*
X229552956Y-81889065D02*
X229675134Y-81915871D01*
X229800194Y-81918327D01*
X229813373Y-81915973D01*
X228519862Y-85365336D01*
X228012960Y-85872238D01*
X228010657Y-85833185D01*
X227979075Y-85712154D01*
X227924487Y-85599609D01*
X227848992Y-85499877D01*
X227755490Y-85416790D01*
X226137456Y-84241219D01*
X226091113Y-84214057D01*
X226108612Y-84192735D01*
X228692018Y-81609329D01*
X229552956Y-81889065D01*
G36*
X202022847Y-81685649D02*
G01*
X202046932Y-81806729D01*
X202117414Y-81976889D01*
X202219738Y-82130028D01*
X202349972Y-82260262D01*
X202503111Y-82362586D01*
X202673271Y-82433068D01*
X202853911Y-82469000D01*
X203038089Y-82469000D01*
X203202000Y-82436396D01*
X203202000Y-83788451D01*
X203164262Y-83731972D01*
X203034028Y-83601738D01*
X202880889Y-83499414D01*
X202710729Y-83428932D01*
X202530089Y-83393000D01*
X202345911Y-83393000D01*
X202165271Y-83428932D01*
X201995111Y-83499414D01*
X201892465Y-83568000D01*
X200951535Y-83568000D01*
X200848889Y-83499414D01*
X200678729Y-83428932D01*
X200498089Y-83393000D01*
X200313911Y-83393000D01*
X200133271Y-83428932D01*
X199963111Y-83499414D01*
X199809972Y-83601738D01*
X199679738Y-83731972D01*
X199577414Y-83885111D01*
X199506932Y-84055271D01*
X199471000Y-84235911D01*
X199471000Y-84330000D01*
X198626000Y-84330000D01*
X198626000Y-82587325D01*
X198629676Y-82550000D01*
X198626000Y-82512675D01*
X198626000Y-82512667D01*
X198615003Y-82401014D01*
X198571546Y-82257753D01*
X198500974Y-82125724D01*
X198406001Y-82009999D01*
X198377003Y-81986201D01*
X198027153Y-81636351D01*
X198003068Y-81515271D01*
X197932586Y-81345111D01*
X197830262Y-81191972D01*
X197700028Y-81061738D01*
X197546889Y-80959414D01*
X197376729Y-80888932D01*
X197276042Y-80868904D01*
X197277000Y-80864089D01*
X197277000Y-80679911D01*
X197241068Y-80499271D01*
X197170586Y-80329111D01*
X197125744Y-80262000D01*
X200599199Y-80262000D01*
X202022847Y-81685649D01*
X202022847Y-81685649D01*
G37*
X202022847Y-81685649D02*
X202046932Y-81806729D01*
X202117414Y-81976889D01*
X202219738Y-82130028D01*
X202349972Y-82260262D01*
X202503111Y-82362586D01*
X202673271Y-82433068D01*
X202853911Y-82469000D01*
X203038089Y-82469000D01*
X203202000Y-82436396D01*
X203202000Y-83788451D01*
X203164262Y-83731972D01*
X203034028Y-83601738D01*
X202880889Y-83499414D01*
X202710729Y-83428932D01*
X202530089Y-83393000D01*
X202345911Y-83393000D01*
X202165271Y-83428932D01*
X201995111Y-83499414D01*
X201892465Y-83568000D01*
X200951535Y-83568000D01*
X200848889Y-83499414D01*
X200678729Y-83428932D01*
X200498089Y-83393000D01*
X200313911Y-83393000D01*
X200133271Y-83428932D01*
X199963111Y-83499414D01*
X199809972Y-83601738D01*
X199679738Y-83731972D01*
X199577414Y-83885111D01*
X199506932Y-84055271D01*
X199471000Y-84235911D01*
X199471000Y-84330000D01*
X198626000Y-84330000D01*
X198626000Y-82587325D01*
X198629676Y-82550000D01*
X198626000Y-82512675D01*
X198626000Y-82512667D01*
X198615003Y-82401014D01*
X198571546Y-82257753D01*
X198500974Y-82125724D01*
X198406001Y-82009999D01*
X198377003Y-81986201D01*
X198027153Y-81636351D01*
X198003068Y-81515271D01*
X197932586Y-81345111D01*
X197830262Y-81191972D01*
X197700028Y-81061738D01*
X197546889Y-80959414D01*
X197376729Y-80888932D01*
X197276042Y-80868904D01*
X197277000Y-80864089D01*
X197277000Y-80679911D01*
X197241068Y-80499271D01*
X197170586Y-80329111D01*
X197125744Y-80262000D01*
X200599199Y-80262000D01*
X202022847Y-81685649D01*
G36*
X204722000Y-84017199D02*
G01*
X204722000Y-82436396D01*
X204885911Y-82469000D01*
X205070089Y-82469000D01*
X205250729Y-82433068D01*
X205420889Y-82362586D01*
X205523535Y-82294000D01*
X206445198Y-82294000D01*
X204722000Y-84017199D01*
X204722000Y-84017199D01*
G37*
X204722000Y-84017199D02*
X204722000Y-82436396D01*
X204885911Y-82469000D01*
X205070089Y-82469000D01*
X205250729Y-82433068D01*
X205420889Y-82362586D01*
X205523535Y-82294000D01*
X206445198Y-82294000D01*
X204722000Y-84017199D01*
G36*
X193713972Y-82260262D02*
G01*
X193867111Y-82362586D01*
X194037271Y-82433068D01*
X194217911Y-82469000D01*
X194385793Y-82469000D01*
X193586487Y-83049730D01*
X193586487Y-82132777D01*
X193713972Y-82260262D01*
X193713972Y-82260262D01*
G37*
X193713972Y-82260262D02*
X193867111Y-82362586D01*
X194037271Y-82433068D01*
X194217911Y-82469000D01*
X194385793Y-82469000D01*
X193586487Y-83049730D01*
X193586487Y-82132777D01*
X193713972Y-82260262D01*
G36*
X226022667Y-76706000D02*
G01*
X226022678Y-76706000D01*
X226060000Y-76709676D01*
X226097322Y-76706000D01*
X228539199Y-76706000D01*
X230380001Y-78546803D01*
X230380001Y-79028484D01*
X228570522Y-78440549D01*
X228448344Y-78413743D01*
X228323284Y-78411287D01*
X228200148Y-78433276D01*
X228083668Y-78478866D01*
X227978321Y-78546303D01*
X227888153Y-78632997D01*
X227816632Y-78735616D01*
X227766504Y-78850217D01*
X227241175Y-80467013D01*
X227214369Y-80589191D01*
X227211913Y-80714251D01*
X227233902Y-80837387D01*
X227256534Y-80895210D01*
X225230007Y-82921738D01*
X224321347Y-82921738D01*
X222965349Y-81936548D01*
X222411153Y-81382351D01*
X222387068Y-81261271D01*
X222316586Y-81091111D01*
X222214262Y-80937972D01*
X222084028Y-80807738D01*
X221930889Y-80705414D01*
X221760729Y-80634932D01*
X221580089Y-80599000D01*
X221395911Y-80599000D01*
X221232000Y-80631604D01*
X221232000Y-80070801D01*
X221497717Y-79805084D01*
X221523738Y-79844028D01*
X221653972Y-79974262D01*
X221807111Y-80076586D01*
X221977271Y-80147068D01*
X222157911Y-80183000D01*
X222342089Y-80183000D01*
X222522729Y-80147068D01*
X222692889Y-80076586D01*
X222846028Y-79974262D01*
X222976262Y-79844028D01*
X223078586Y-79690889D01*
X223079477Y-79688739D01*
X223463892Y-79688739D01*
X223475266Y-79717799D01*
X223542703Y-79823147D01*
X223629397Y-79913314D01*
X223732016Y-79984835D01*
X223846617Y-80034963D01*
X225748730Y-80652997D01*
X225870908Y-80679803D01*
X225995968Y-80682259D01*
X226119104Y-80660270D01*
X226235584Y-80614680D01*
X226340931Y-80547243D01*
X226431099Y-80460549D01*
X226502620Y-80357930D01*
X226552748Y-80243329D01*
X227078077Y-78626533D01*
X227104883Y-78504355D01*
X227107339Y-78379295D01*
X227085350Y-78256159D01*
X227039760Y-78139679D01*
X226972323Y-78034331D01*
X226885629Y-77944164D01*
X226783010Y-77872643D01*
X226668409Y-77822515D01*
X226017513Y-77611026D01*
X226017513Y-76705492D01*
X226022667Y-76706000D01*
X226022667Y-76706000D01*
G37*
X226022667Y-76706000D02*
X226022678Y-76706000D01*
X226060000Y-76709676D01*
X226097322Y-76706000D01*
X228539199Y-76706000D01*
X230380001Y-78546803D01*
X230380001Y-79028484D01*
X228570522Y-78440549D01*
X228448344Y-78413743D01*
X228323284Y-78411287D01*
X228200148Y-78433276D01*
X228083668Y-78478866D01*
X227978321Y-78546303D01*
X227888153Y-78632997D01*
X227816632Y-78735616D01*
X227766504Y-78850217D01*
X227241175Y-80467013D01*
X227214369Y-80589191D01*
X227211913Y-80714251D01*
X227233902Y-80837387D01*
X227256534Y-80895210D01*
X225230007Y-82921738D01*
X224321347Y-82921738D01*
X222965349Y-81936548D01*
X222411153Y-81382351D01*
X222387068Y-81261271D01*
X222316586Y-81091111D01*
X222214262Y-80937972D01*
X222084028Y-80807738D01*
X221930889Y-80705414D01*
X221760729Y-80634932D01*
X221580089Y-80599000D01*
X221395911Y-80599000D01*
X221232000Y-80631604D01*
X221232000Y-80070801D01*
X221497717Y-79805084D01*
X221523738Y-79844028D01*
X221653972Y-79974262D01*
X221807111Y-80076586D01*
X221977271Y-80147068D01*
X222157911Y-80183000D01*
X222342089Y-80183000D01*
X222522729Y-80147068D01*
X222692889Y-80076586D01*
X222846028Y-79974262D01*
X222976262Y-79844028D01*
X223078586Y-79690889D01*
X223079477Y-79688739D01*
X223463892Y-79688739D01*
X223475266Y-79717799D01*
X223542703Y-79823147D01*
X223629397Y-79913314D01*
X223732016Y-79984835D01*
X223846617Y-80034963D01*
X225748730Y-80652997D01*
X225870908Y-80679803D01*
X225995968Y-80682259D01*
X226119104Y-80660270D01*
X226235584Y-80614680D01*
X226340931Y-80547243D01*
X226431099Y-80460549D01*
X226502620Y-80357930D01*
X226552748Y-80243329D01*
X227078077Y-78626533D01*
X227104883Y-78504355D01*
X227107339Y-78379295D01*
X227085350Y-78256159D01*
X227039760Y-78139679D01*
X226972323Y-78034331D01*
X226885629Y-77944164D01*
X226783010Y-77872643D01*
X226668409Y-77822515D01*
X226017513Y-77611026D01*
X226017513Y-76705492D01*
X226022667Y-76706000D01*
G36*
X210139000Y-61306089D02*
G01*
X210174932Y-61486729D01*
X210245414Y-61656889D01*
X210347738Y-61810028D01*
X210477972Y-61940262D01*
X210631111Y-62042586D01*
X210801271Y-62113068D01*
X210922352Y-62137153D01*
X213362000Y-64576802D01*
X213362001Y-70066463D01*
X213293414Y-70169111D01*
X213222932Y-70339271D01*
X213187000Y-70519911D01*
X213187000Y-70704089D01*
X213222932Y-70884729D01*
X213293414Y-71054889D01*
X213395738Y-71208028D01*
X213525972Y-71338262D01*
X213679111Y-71440586D01*
X213849271Y-71511068D01*
X214012186Y-71543474D01*
X213984932Y-71609271D01*
X213960847Y-71730351D01*
X213807199Y-71884000D01*
X213143322Y-71884000D01*
X213105999Y-71880324D01*
X213068676Y-71884000D01*
X213068667Y-71884000D01*
X212957014Y-71894997D01*
X212813753Y-71938454D01*
X212681724Y-72009026D01*
X212565999Y-72103999D01*
X212542201Y-72132997D01*
X209652352Y-75022847D01*
X209531271Y-75046932D01*
X209361111Y-75117414D01*
X209207972Y-75219738D01*
X209172256Y-75255454D01*
X208187153Y-74270352D01*
X208163068Y-74149271D01*
X208092586Y-73979111D01*
X207990262Y-73825972D01*
X207860028Y-73695738D01*
X207706889Y-73593414D01*
X207536729Y-73522932D01*
X207356089Y-73487000D01*
X207171911Y-73487000D01*
X206991271Y-73522932D01*
X206821111Y-73593414D01*
X206667972Y-73695738D01*
X206537738Y-73825972D01*
X206435414Y-73979111D01*
X206364932Y-74149271D01*
X206329000Y-74329911D01*
X206329000Y-74514089D01*
X206364932Y-74694729D01*
X206435414Y-74864889D01*
X206537738Y-75018028D01*
X206667972Y-75148262D01*
X206821111Y-75250586D01*
X206991271Y-75321068D01*
X207112352Y-75345153D01*
X212796200Y-81029002D01*
X212819999Y-81058001D01*
X212848997Y-81081799D01*
X212935723Y-81152974D01*
X213051557Y-81214889D01*
X213067753Y-81223546D01*
X213211014Y-81267003D01*
X213304944Y-81276254D01*
X213299199Y-81282000D01*
X210095535Y-81282000D01*
X209992889Y-81213414D01*
X209822729Y-81142932D01*
X209642089Y-81107000D01*
X209457911Y-81107000D01*
X209277271Y-81142932D01*
X209107111Y-81213414D01*
X209041440Y-81257294D01*
X209040000Y-81242675D01*
X209040000Y-81242668D01*
X209029003Y-81131015D01*
X209022545Y-81109723D01*
X208985546Y-80987753D01*
X208914974Y-80855724D01*
X208843799Y-80768997D01*
X208820001Y-80739999D01*
X208791002Y-80716201D01*
X208081803Y-80007002D01*
X208058001Y-79977999D01*
X207942276Y-79883026D01*
X207810247Y-79812454D01*
X207666986Y-79768997D01*
X207555333Y-79758000D01*
X207555322Y-79758000D01*
X207518000Y-79754324D01*
X207480678Y-79758000D01*
X205738000Y-79758000D01*
X205738000Y-77507535D01*
X205806586Y-77404889D01*
X205877068Y-77234729D01*
X205913000Y-77054089D01*
X205913000Y-76869911D01*
X205877068Y-76689271D01*
X205806586Y-76519111D01*
X205704262Y-76365972D01*
X205574028Y-76235738D01*
X205420889Y-76133414D01*
X205250729Y-76062932D01*
X205070089Y-76027000D01*
X204885911Y-76027000D01*
X204722000Y-76059604D01*
X204722000Y-73951322D01*
X204725676Y-73913999D01*
X204722000Y-73876676D01*
X204722000Y-73876667D01*
X204711003Y-73765014D01*
X204667546Y-73621753D01*
X204596974Y-73489724D01*
X204502001Y-73373999D01*
X204473003Y-73350201D01*
X200868621Y-69745820D01*
X200932729Y-69733068D01*
X201102889Y-69662586D01*
X201256028Y-69560262D01*
X201386262Y-69430028D01*
X201488586Y-69276889D01*
X201559068Y-69106729D01*
X201595000Y-68926089D01*
X201595000Y-68741911D01*
X201559068Y-68561271D01*
X201488586Y-68391111D01*
X201386262Y-68237972D01*
X201256028Y-68107738D01*
X201102889Y-68005414D01*
X200932729Y-67934932D01*
X200752089Y-67899000D01*
X200567911Y-67899000D01*
X200387271Y-67934932D01*
X200217111Y-68005414D01*
X200114465Y-68074000D01*
X199700801Y-68074000D01*
X206321188Y-61453614D01*
X206881208Y-61453614D01*
X206885787Y-61455003D01*
X206997440Y-61466000D01*
X206997450Y-61466000D01*
X207034772Y-61469676D01*
X207072095Y-61466000D01*
X209512678Y-61466000D01*
X209550000Y-61469676D01*
X209587322Y-61466000D01*
X209587333Y-61466000D01*
X209698986Y-61455003D01*
X209842247Y-61411546D01*
X209974276Y-61340974D01*
X210090001Y-61246001D01*
X210113804Y-61216997D01*
X210139000Y-61191801D01*
X210139000Y-61306089D01*
X210139000Y-61306089D01*
G37*
X210139000Y-61306089D02*
X210174932Y-61486729D01*
X210245414Y-61656889D01*
X210347738Y-61810028D01*
X210477972Y-61940262D01*
X210631111Y-62042586D01*
X210801271Y-62113068D01*
X210922352Y-62137153D01*
X213362000Y-64576802D01*
X213362001Y-70066463D01*
X213293414Y-70169111D01*
X213222932Y-70339271D01*
X213187000Y-70519911D01*
X213187000Y-70704089D01*
X213222932Y-70884729D01*
X213293414Y-71054889D01*
X213395738Y-71208028D01*
X213525972Y-71338262D01*
X213679111Y-71440586D01*
X213849271Y-71511068D01*
X214012186Y-71543474D01*
X213984932Y-71609271D01*
X213960847Y-71730351D01*
X213807199Y-71884000D01*
X213143322Y-71884000D01*
X213105999Y-71880324D01*
X213068676Y-71884000D01*
X213068667Y-71884000D01*
X212957014Y-71894997D01*
X212813753Y-71938454D01*
X212681724Y-72009026D01*
X212565999Y-72103999D01*
X212542201Y-72132997D01*
X209652352Y-75022847D01*
X209531271Y-75046932D01*
X209361111Y-75117414D01*
X209207972Y-75219738D01*
X209172256Y-75255454D01*
X208187153Y-74270352D01*
X208163068Y-74149271D01*
X208092586Y-73979111D01*
X207990262Y-73825972D01*
X207860028Y-73695738D01*
X207706889Y-73593414D01*
X207536729Y-73522932D01*
X207356089Y-73487000D01*
X207171911Y-73487000D01*
X206991271Y-73522932D01*
X206821111Y-73593414D01*
X206667972Y-73695738D01*
X206537738Y-73825972D01*
X206435414Y-73979111D01*
X206364932Y-74149271D01*
X206329000Y-74329911D01*
X206329000Y-74514089D01*
X206364932Y-74694729D01*
X206435414Y-74864889D01*
X206537738Y-75018028D01*
X206667972Y-75148262D01*
X206821111Y-75250586D01*
X206991271Y-75321068D01*
X207112352Y-75345153D01*
X212796200Y-81029002D01*
X212819999Y-81058001D01*
X212848997Y-81081799D01*
X212935723Y-81152974D01*
X213051557Y-81214889D01*
X213067753Y-81223546D01*
X213211014Y-81267003D01*
X213304944Y-81276254D01*
X213299199Y-81282000D01*
X210095535Y-81282000D01*
X209992889Y-81213414D01*
X209822729Y-81142932D01*
X209642089Y-81107000D01*
X209457911Y-81107000D01*
X209277271Y-81142932D01*
X209107111Y-81213414D01*
X209041440Y-81257294D01*
X209040000Y-81242675D01*
X209040000Y-81242668D01*
X209029003Y-81131015D01*
X209022545Y-81109723D01*
X208985546Y-80987753D01*
X208914974Y-80855724D01*
X208843799Y-80768997D01*
X208820001Y-80739999D01*
X208791002Y-80716201D01*
X208081803Y-80007002D01*
X208058001Y-79977999D01*
X207942276Y-79883026D01*
X207810247Y-79812454D01*
X207666986Y-79768997D01*
X207555333Y-79758000D01*
X207555322Y-79758000D01*
X207518000Y-79754324D01*
X207480678Y-79758000D01*
X205738000Y-79758000D01*
X205738000Y-77507535D01*
X205806586Y-77404889D01*
X205877068Y-77234729D01*
X205913000Y-77054089D01*
X205913000Y-76869911D01*
X205877068Y-76689271D01*
X205806586Y-76519111D01*
X205704262Y-76365972D01*
X205574028Y-76235738D01*
X205420889Y-76133414D01*
X205250729Y-76062932D01*
X205070089Y-76027000D01*
X204885911Y-76027000D01*
X204722000Y-76059604D01*
X204722000Y-73951322D01*
X204725676Y-73913999D01*
X204722000Y-73876676D01*
X204722000Y-73876667D01*
X204711003Y-73765014D01*
X204667546Y-73621753D01*
X204596974Y-73489724D01*
X204502001Y-73373999D01*
X204473003Y-73350201D01*
X200868621Y-69745820D01*
X200932729Y-69733068D01*
X201102889Y-69662586D01*
X201256028Y-69560262D01*
X201386262Y-69430028D01*
X201488586Y-69276889D01*
X201559068Y-69106729D01*
X201595000Y-68926089D01*
X201595000Y-68741911D01*
X201559068Y-68561271D01*
X201488586Y-68391111D01*
X201386262Y-68237972D01*
X201256028Y-68107738D01*
X201102889Y-68005414D01*
X200932729Y-67934932D01*
X200752089Y-67899000D01*
X200567911Y-67899000D01*
X200387271Y-67934932D01*
X200217111Y-68005414D01*
X200114465Y-68074000D01*
X199700801Y-68074000D01*
X206321188Y-61453614D01*
X206881208Y-61453614D01*
X206885787Y-61455003D01*
X206997440Y-61466000D01*
X206997450Y-61466000D01*
X207034772Y-61469676D01*
X207072095Y-61466000D01*
X209512678Y-61466000D01*
X209550000Y-61469676D01*
X209587322Y-61466000D01*
X209587333Y-61466000D01*
X209698986Y-61455003D01*
X209842247Y-61411546D01*
X209974276Y-61340974D01*
X210090001Y-61246001D01*
X210113804Y-61216997D01*
X210139000Y-61191801D01*
X210139000Y-61306089D01*
G36*
X199047972Y-70322262D02*
G01*
X199201111Y-70424586D01*
X199371271Y-70495068D01*
X199492352Y-70519153D01*
X203202001Y-74228803D01*
X203202000Y-77940464D01*
X203133414Y-78043111D01*
X203062932Y-78213271D01*
X203027000Y-78393911D01*
X203027000Y-78578089D01*
X203062932Y-78758729D01*
X203133414Y-78928889D01*
X203202001Y-79031537D01*
X203202001Y-80631604D01*
X203097649Y-80610847D01*
X201477804Y-78991003D01*
X201454001Y-78961999D01*
X201338276Y-78867026D01*
X201206247Y-78796454D01*
X201062986Y-78752997D01*
X200951333Y-78742000D01*
X200951322Y-78742000D01*
X200914000Y-78738324D01*
X200876678Y-78742000D01*
X196340000Y-78742000D01*
X196340000Y-77285322D01*
X196343676Y-77247999D01*
X196340000Y-77210676D01*
X196340000Y-77210667D01*
X196329003Y-77099014D01*
X196285546Y-76955753D01*
X196214974Y-76823724D01*
X196120001Y-76707999D01*
X196091003Y-76684201D01*
X193826801Y-74420000D01*
X194272465Y-74420000D01*
X194375111Y-74488586D01*
X194545271Y-74559068D01*
X194725911Y-74595000D01*
X194910089Y-74595000D01*
X195090729Y-74559068D01*
X195260889Y-74488586D01*
X195414028Y-74386262D01*
X195544262Y-74256028D01*
X195646586Y-74102889D01*
X195717068Y-73932729D01*
X195753000Y-73752089D01*
X195753000Y-73567911D01*
X195717068Y-73387271D01*
X195646586Y-73217111D01*
X195544262Y-73063972D01*
X195414028Y-72933738D01*
X195260889Y-72831414D01*
X195090729Y-72760932D01*
X194910089Y-72725000D01*
X194725911Y-72725000D01*
X194545271Y-72760932D01*
X194375111Y-72831414D01*
X194272465Y-72900000D01*
X193630072Y-72900000D01*
X193630072Y-72810000D01*
X193617812Y-72685518D01*
X193581502Y-72565820D01*
X193522537Y-72455506D01*
X193467136Y-72388000D01*
X195034678Y-72388000D01*
X195072000Y-72391676D01*
X195109322Y-72388000D01*
X195109333Y-72388000D01*
X195220986Y-72377003D01*
X195364247Y-72333546D01*
X195496276Y-72262974D01*
X195612001Y-72168001D01*
X195635804Y-72138997D01*
X196764815Y-71009986D01*
X196783414Y-71054889D01*
X196885738Y-71208028D01*
X197015972Y-71338262D01*
X197169111Y-71440586D01*
X197339271Y-71511068D01*
X197519911Y-71547000D01*
X197704089Y-71547000D01*
X197884729Y-71511068D01*
X198054889Y-71440586D01*
X198208028Y-71338262D01*
X198338262Y-71208028D01*
X198440586Y-71054889D01*
X198511068Y-70884729D01*
X198535153Y-70763649D01*
X199012256Y-70286546D01*
X199047972Y-70322262D01*
X199047972Y-70322262D01*
G37*
X199047972Y-70322262D02*
X199201111Y-70424586D01*
X199371271Y-70495068D01*
X199492352Y-70519153D01*
X203202001Y-74228803D01*
X203202000Y-77940464D01*
X203133414Y-78043111D01*
X203062932Y-78213271D01*
X203027000Y-78393911D01*
X203027000Y-78578089D01*
X203062932Y-78758729D01*
X203133414Y-78928889D01*
X203202001Y-79031537D01*
X203202001Y-80631604D01*
X203097649Y-80610847D01*
X201477804Y-78991003D01*
X201454001Y-78961999D01*
X201338276Y-78867026D01*
X201206247Y-78796454D01*
X201062986Y-78752997D01*
X200951333Y-78742000D01*
X200951322Y-78742000D01*
X200914000Y-78738324D01*
X200876678Y-78742000D01*
X196340000Y-78742000D01*
X196340000Y-77285322D01*
X196343676Y-77247999D01*
X196340000Y-77210676D01*
X196340000Y-77210667D01*
X196329003Y-77099014D01*
X196285546Y-76955753D01*
X196214974Y-76823724D01*
X196120001Y-76707999D01*
X196091003Y-76684201D01*
X193826801Y-74420000D01*
X194272465Y-74420000D01*
X194375111Y-74488586D01*
X194545271Y-74559068D01*
X194725911Y-74595000D01*
X194910089Y-74595000D01*
X195090729Y-74559068D01*
X195260889Y-74488586D01*
X195414028Y-74386262D01*
X195544262Y-74256028D01*
X195646586Y-74102889D01*
X195717068Y-73932729D01*
X195753000Y-73752089D01*
X195753000Y-73567911D01*
X195717068Y-73387271D01*
X195646586Y-73217111D01*
X195544262Y-73063972D01*
X195414028Y-72933738D01*
X195260889Y-72831414D01*
X195090729Y-72760932D01*
X194910089Y-72725000D01*
X194725911Y-72725000D01*
X194545271Y-72760932D01*
X194375111Y-72831414D01*
X194272465Y-72900000D01*
X193630072Y-72900000D01*
X193630072Y-72810000D01*
X193617812Y-72685518D01*
X193581502Y-72565820D01*
X193522537Y-72455506D01*
X193467136Y-72388000D01*
X195034678Y-72388000D01*
X195072000Y-72391676D01*
X195109322Y-72388000D01*
X195109333Y-72388000D01*
X195220986Y-72377003D01*
X195364247Y-72333546D01*
X195496276Y-72262974D01*
X195612001Y-72168001D01*
X195635804Y-72138997D01*
X196764815Y-71009986D01*
X196783414Y-71054889D01*
X196885738Y-71208028D01*
X197015972Y-71338262D01*
X197169111Y-71440586D01*
X197339271Y-71511068D01*
X197519911Y-71547000D01*
X197704089Y-71547000D01*
X197884729Y-71511068D01*
X198054889Y-71440586D01*
X198208028Y-71338262D01*
X198338262Y-71208028D01*
X198440586Y-71054889D01*
X198511068Y-70884729D01*
X198535153Y-70763649D01*
X199012256Y-70286546D01*
X199047972Y-70322262D01*
G36*
X215000932Y-72879271D02*
G01*
X214976847Y-73000351D01*
X214436829Y-73540370D01*
X214394729Y-73522932D01*
X214214089Y-73487000D01*
X214029911Y-73487000D01*
X213849271Y-73522932D01*
X213679111Y-73593414D01*
X213525972Y-73695738D01*
X213395738Y-73825972D01*
X213293414Y-73979111D01*
X213222932Y-74149271D01*
X213187000Y-74329911D01*
X213187000Y-74514089D01*
X213222932Y-74694729D01*
X213293414Y-74864889D01*
X213395738Y-75018028D01*
X213525972Y-75148262D01*
X213679111Y-75250586D01*
X213849271Y-75321068D01*
X214029911Y-75357000D01*
X214144199Y-75357000D01*
X213970352Y-75530847D01*
X213849271Y-75554932D01*
X213679111Y-75625414D01*
X213525972Y-75727738D01*
X213395738Y-75857972D01*
X213293414Y-76011111D01*
X213222932Y-76181271D01*
X213187000Y-76361911D01*
X213187000Y-76546089D01*
X213222932Y-76726729D01*
X213293414Y-76896889D01*
X213395738Y-77050028D01*
X213525972Y-77180262D01*
X213679111Y-77282586D01*
X213849271Y-77353068D01*
X214029911Y-77389000D01*
X214214089Y-77389000D01*
X214394729Y-77353068D01*
X214564889Y-77282586D01*
X214718028Y-77180262D01*
X214848262Y-77050028D01*
X214950586Y-76896889D01*
X215021068Y-76726729D01*
X215045153Y-76605648D01*
X216576815Y-75073987D01*
X216595414Y-75118889D01*
X216664001Y-75221537D01*
X216664000Y-78345604D01*
X216500089Y-78313000D01*
X216315911Y-78313000D01*
X216135271Y-78348932D01*
X215965111Y-78419414D01*
X215811972Y-78521738D01*
X215681738Y-78651972D01*
X215579414Y-78805111D01*
X215508932Y-78975271D01*
X215484847Y-79096351D01*
X214753744Y-79827454D01*
X214718028Y-79791738D01*
X214564889Y-79689414D01*
X214394729Y-79618932D01*
X214214089Y-79583000D01*
X214029911Y-79583000D01*
X213849271Y-79618932D01*
X213679111Y-79689414D01*
X213635414Y-79718612D01*
X210494546Y-76577744D01*
X210530262Y-76542028D01*
X210632586Y-76388889D01*
X210703068Y-76218729D01*
X210727153Y-76097648D01*
X213420802Y-73404000D01*
X214084678Y-73404000D01*
X214122000Y-73407676D01*
X214159322Y-73404000D01*
X214159333Y-73404000D01*
X214270986Y-73393003D01*
X214414247Y-73349546D01*
X214546276Y-73278974D01*
X214662001Y-73184001D01*
X214685803Y-73154998D01*
X215028793Y-72812009D01*
X215000932Y-72879271D01*
X215000932Y-72879271D01*
G37*
X215000932Y-72879271D02*
X214976847Y-73000351D01*
X214436829Y-73540370D01*
X214394729Y-73522932D01*
X214214089Y-73487000D01*
X214029911Y-73487000D01*
X213849271Y-73522932D01*
X213679111Y-73593414D01*
X213525972Y-73695738D01*
X213395738Y-73825972D01*
X213293414Y-73979111D01*
X213222932Y-74149271D01*
X213187000Y-74329911D01*
X213187000Y-74514089D01*
X213222932Y-74694729D01*
X213293414Y-74864889D01*
X213395738Y-75018028D01*
X213525972Y-75148262D01*
X213679111Y-75250586D01*
X213849271Y-75321068D01*
X214029911Y-75357000D01*
X214144199Y-75357000D01*
X213970352Y-75530847D01*
X213849271Y-75554932D01*
X213679111Y-75625414D01*
X213525972Y-75727738D01*
X213395738Y-75857972D01*
X213293414Y-76011111D01*
X213222932Y-76181271D01*
X213187000Y-76361911D01*
X213187000Y-76546089D01*
X213222932Y-76726729D01*
X213293414Y-76896889D01*
X213395738Y-77050028D01*
X213525972Y-77180262D01*
X213679111Y-77282586D01*
X213849271Y-77353068D01*
X214029911Y-77389000D01*
X214214089Y-77389000D01*
X214394729Y-77353068D01*
X214564889Y-77282586D01*
X214718028Y-77180262D01*
X214848262Y-77050028D01*
X214950586Y-76896889D01*
X215021068Y-76726729D01*
X215045153Y-76605648D01*
X216576815Y-75073987D01*
X216595414Y-75118889D01*
X216664001Y-75221537D01*
X216664000Y-78345604D01*
X216500089Y-78313000D01*
X216315911Y-78313000D01*
X216135271Y-78348932D01*
X215965111Y-78419414D01*
X215811972Y-78521738D01*
X215681738Y-78651972D01*
X215579414Y-78805111D01*
X215508932Y-78975271D01*
X215484847Y-79096351D01*
X214753744Y-79827454D01*
X214718028Y-79791738D01*
X214564889Y-79689414D01*
X214394729Y-79618932D01*
X214214089Y-79583000D01*
X214029911Y-79583000D01*
X213849271Y-79618932D01*
X213679111Y-79689414D01*
X213635414Y-79718612D01*
X210494546Y-76577744D01*
X210530262Y-76542028D01*
X210632586Y-76388889D01*
X210703068Y-76218729D01*
X210727153Y-76097648D01*
X213420802Y-73404000D01*
X214084678Y-73404000D01*
X214122000Y-73407676D01*
X214159322Y-73404000D01*
X214159333Y-73404000D01*
X214270986Y-73393003D01*
X214414247Y-73349546D01*
X214546276Y-73278974D01*
X214662001Y-73184001D01*
X214685803Y-73154998D01*
X215028793Y-72812009D01*
X215000932Y-72879271D01*
G36*
X224453928Y-74510000D02*
G01*
X224466188Y-74634482D01*
X224502498Y-74754180D01*
X224561463Y-74864494D01*
X224640815Y-74961185D01*
X224737506Y-75040537D01*
X224847820Y-75099502D01*
X224967518Y-75135812D01*
X225092000Y-75148072D01*
X225332000Y-75148072D01*
X225332000Y-75239166D01*
X225192986Y-75196997D01*
X225081333Y-75186000D01*
X225081322Y-75186000D01*
X225044000Y-75182324D01*
X225006678Y-75186000D01*
X223915191Y-75186000D01*
X223911068Y-75165271D01*
X223840586Y-74995111D01*
X223738262Y-74841972D01*
X223608028Y-74711738D01*
X223454889Y-74609414D01*
X223284729Y-74538932D01*
X223104089Y-74503000D01*
X222919911Y-74503000D01*
X222739271Y-74538932D01*
X222569111Y-74609414D01*
X222415972Y-74711738D01*
X222285738Y-74841972D01*
X222183414Y-74995111D01*
X222112932Y-75165271D01*
X222077000Y-75345911D01*
X222077000Y-75530089D01*
X222112932Y-75710729D01*
X222183414Y-75880889D01*
X222285738Y-76034028D01*
X222415972Y-76164262D01*
X222569111Y-76266586D01*
X222618618Y-76287092D01*
X222539738Y-76365972D01*
X222437414Y-76519111D01*
X222366932Y-76689271D01*
X222342847Y-76810351D01*
X219961003Y-79192196D01*
X219931999Y-79215999D01*
X219887354Y-79270400D01*
X219837026Y-79331724D01*
X219792240Y-79415513D01*
X219766454Y-79463754D01*
X219722997Y-79607015D01*
X219712000Y-79718668D01*
X219712000Y-79718678D01*
X219711364Y-79725132D01*
X219698712Y-79701462D01*
X219603739Y-79585737D01*
X219574741Y-79561939D01*
X218184000Y-78171199D01*
X218184000Y-75221535D01*
X218252586Y-75118889D01*
X218323068Y-74948729D01*
X218359000Y-74768089D01*
X218359000Y-74583911D01*
X218326396Y-74420000D01*
X224453928Y-74420000D01*
X224453928Y-74510000D01*
X224453928Y-74510000D01*
G37*
X224453928Y-74510000D02*
X224466188Y-74634482D01*
X224502498Y-74754180D01*
X224561463Y-74864494D01*
X224640815Y-74961185D01*
X224737506Y-75040537D01*
X224847820Y-75099502D01*
X224967518Y-75135812D01*
X225092000Y-75148072D01*
X225332000Y-75148072D01*
X225332000Y-75239166D01*
X225192986Y-75196997D01*
X225081333Y-75186000D01*
X225081322Y-75186000D01*
X225044000Y-75182324D01*
X225006678Y-75186000D01*
X223915191Y-75186000D01*
X223911068Y-75165271D01*
X223840586Y-74995111D01*
X223738262Y-74841972D01*
X223608028Y-74711738D01*
X223454889Y-74609414D01*
X223284729Y-74538932D01*
X223104089Y-74503000D01*
X222919911Y-74503000D01*
X222739271Y-74538932D01*
X222569111Y-74609414D01*
X222415972Y-74711738D01*
X222285738Y-74841972D01*
X222183414Y-74995111D01*
X222112932Y-75165271D01*
X222077000Y-75345911D01*
X222077000Y-75530089D01*
X222112932Y-75710729D01*
X222183414Y-75880889D01*
X222285738Y-76034028D01*
X222415972Y-76164262D01*
X222569111Y-76266586D01*
X222618618Y-76287092D01*
X222539738Y-76365972D01*
X222437414Y-76519111D01*
X222366932Y-76689271D01*
X222342847Y-76810351D01*
X219961003Y-79192196D01*
X219931999Y-79215999D01*
X219887354Y-79270400D01*
X219837026Y-79331724D01*
X219792240Y-79415513D01*
X219766454Y-79463754D01*
X219722997Y-79607015D01*
X219712000Y-79718668D01*
X219712000Y-79718678D01*
X219711364Y-79725132D01*
X219698712Y-79701462D01*
X219603739Y-79585737D01*
X219574741Y-79561939D01*
X218184000Y-78171199D01*
X218184000Y-75221535D01*
X218252586Y-75118889D01*
X218323068Y-74948729D01*
X218359000Y-74768089D01*
X218359000Y-74583911D01*
X218326396Y-74420000D01*
X224453928Y-74420000D01*
X224453928Y-74510000D01*
G36*
X223962278Y-77614149D02*
G01*
X223782081Y-78168739D01*
X223134063Y-78168739D01*
X223417649Y-77885153D01*
X223538729Y-77861068D01*
X223708889Y-77790586D01*
X223862028Y-77688262D01*
X223982600Y-77567690D01*
X223962278Y-77614149D01*
X223962278Y-77614149D01*
G37*
X223962278Y-77614149D02*
X223782081Y-78168739D01*
X223134063Y-78168739D01*
X223417649Y-77885153D01*
X223538729Y-77861068D01*
X223708889Y-77790586D01*
X223862028Y-77688262D01*
X223982600Y-77567690D01*
X223962278Y-77614149D01*
G36*
X224497513Y-77179066D02*
G01*
X224395922Y-77197208D01*
X224279442Y-77242798D01*
X224174095Y-77310235D01*
X224107120Y-77374630D01*
X224165068Y-77234729D01*
X224201000Y-77054089D01*
X224201000Y-76869911D01*
X224168396Y-76706000D01*
X224497513Y-76706000D01*
X224497513Y-77179066D01*
X224497513Y-77179066D01*
G37*
X224497513Y-77179066D02*
X224395922Y-77197208D01*
X224279442Y-77242798D01*
X224174095Y-77310235D01*
X224107120Y-77374630D01*
X224165068Y-77234729D01*
X224201000Y-77054089D01*
X224201000Y-76869911D01*
X224168396Y-76706000D01*
X224497513Y-76706000D01*
X224497513Y-77179066D01*
G36*
X226921192Y-67918869D02*
G01*
X226958525Y-67915192D01*
X227586307Y-67915192D01*
X227766504Y-68469782D01*
X227816632Y-68584383D01*
X227888153Y-68687002D01*
X227978320Y-68773696D01*
X228083668Y-68841133D01*
X228200148Y-68886723D01*
X228301739Y-68904865D01*
X228301739Y-69258416D01*
X228298063Y-69295739D01*
X228301739Y-69333061D01*
X228301739Y-69333071D01*
X228312736Y-69444724D01*
X228352943Y-69577271D01*
X228356193Y-69587985D01*
X228426765Y-69720015D01*
X228447258Y-69744985D01*
X228521738Y-69835740D01*
X228550741Y-69859542D01*
X228946847Y-70255649D01*
X228970932Y-70376729D01*
X229041414Y-70546889D01*
X229143738Y-70700028D01*
X229273972Y-70830262D01*
X229427111Y-70932586D01*
X229530982Y-70975610D01*
X229478932Y-71101271D01*
X229449319Y-71250142D01*
X229386454Y-71367754D01*
X229342998Y-71511015D01*
X229328324Y-71660000D01*
X229332001Y-71697332D01*
X229332001Y-72171928D01*
X229092000Y-72171928D01*
X228967518Y-72184188D01*
X228847820Y-72220498D01*
X228737506Y-72279463D01*
X228640815Y-72358815D01*
X228561463Y-72455506D01*
X228502498Y-72565820D01*
X228466188Y-72685518D01*
X228453928Y-72810000D01*
X228453928Y-74510000D01*
X228466188Y-74634482D01*
X228502498Y-74754180D01*
X228561463Y-74864494D01*
X228640815Y-74961185D01*
X228737506Y-75040537D01*
X228847820Y-75099502D01*
X228967518Y-75135812D01*
X229092000Y-75148072D01*
X231013000Y-75148072D01*
X231013000Y-76410964D01*
X231002932Y-76435271D01*
X230967000Y-76615911D01*
X230967000Y-76800089D01*
X231002932Y-76980729D01*
X231013000Y-77005035D01*
X231013000Y-77030198D01*
X229417804Y-75435003D01*
X229394001Y-75405999D01*
X229278276Y-75311026D01*
X229146247Y-75240454D01*
X229002986Y-75196997D01*
X228891333Y-75186000D01*
X228891322Y-75186000D01*
X228854000Y-75182324D01*
X228816678Y-75186000D01*
X226852000Y-75186000D01*
X226852000Y-75148072D01*
X227092000Y-75148072D01*
X227216482Y-75135812D01*
X227336180Y-75099502D01*
X227446494Y-75040537D01*
X227543185Y-74961185D01*
X227622537Y-74864494D01*
X227681502Y-74754180D01*
X227717812Y-74634482D01*
X227730072Y-74510000D01*
X227730072Y-72810000D01*
X227717812Y-72685518D01*
X227681502Y-72565820D01*
X227622537Y-72455506D01*
X227543185Y-72358815D01*
X227446494Y-72279463D01*
X227336180Y-72220498D01*
X227216482Y-72184188D01*
X227092000Y-72171928D01*
X226852000Y-72171928D01*
X226852000Y-69399273D01*
X226885629Y-69375835D01*
X226972323Y-69285667D01*
X227039760Y-69180320D01*
X227085350Y-69063840D01*
X227107339Y-68940704D01*
X227104883Y-68815644D01*
X227078077Y-68693466D01*
X226823261Y-67909224D01*
X226921192Y-67918869D01*
X226921192Y-67918869D01*
G37*
X226921192Y-67918869D02*
X226958525Y-67915192D01*
X227586307Y-67915192D01*
X227766504Y-68469782D01*
X227816632Y-68584383D01*
X227888153Y-68687002D01*
X227978320Y-68773696D01*
X228083668Y-68841133D01*
X228200148Y-68886723D01*
X228301739Y-68904865D01*
X228301739Y-69258416D01*
X228298063Y-69295739D01*
X228301739Y-69333061D01*
X228301739Y-69333071D01*
X228312736Y-69444724D01*
X228352943Y-69577271D01*
X228356193Y-69587985D01*
X228426765Y-69720015D01*
X228447258Y-69744985D01*
X228521738Y-69835740D01*
X228550741Y-69859542D01*
X228946847Y-70255649D01*
X228970932Y-70376729D01*
X229041414Y-70546889D01*
X229143738Y-70700028D01*
X229273972Y-70830262D01*
X229427111Y-70932586D01*
X229530982Y-70975610D01*
X229478932Y-71101271D01*
X229449319Y-71250142D01*
X229386454Y-71367754D01*
X229342998Y-71511015D01*
X229328324Y-71660000D01*
X229332001Y-71697332D01*
X229332001Y-72171928D01*
X229092000Y-72171928D01*
X228967518Y-72184188D01*
X228847820Y-72220498D01*
X228737506Y-72279463D01*
X228640815Y-72358815D01*
X228561463Y-72455506D01*
X228502498Y-72565820D01*
X228466188Y-72685518D01*
X228453928Y-72810000D01*
X228453928Y-74510000D01*
X228466188Y-74634482D01*
X228502498Y-74754180D01*
X228561463Y-74864494D01*
X228640815Y-74961185D01*
X228737506Y-75040537D01*
X228847820Y-75099502D01*
X228967518Y-75135812D01*
X229092000Y-75148072D01*
X231013000Y-75148072D01*
X231013000Y-76410964D01*
X231002932Y-76435271D01*
X230967000Y-76615911D01*
X230967000Y-76800089D01*
X231002932Y-76980729D01*
X231013000Y-77005035D01*
X231013000Y-77030198D01*
X229417804Y-75435003D01*
X229394001Y-75405999D01*
X229278276Y-75311026D01*
X229146247Y-75240454D01*
X229002986Y-75196997D01*
X228891333Y-75186000D01*
X228891322Y-75186000D01*
X228854000Y-75182324D01*
X228816678Y-75186000D01*
X226852000Y-75186000D01*
X226852000Y-75148072D01*
X227092000Y-75148072D01*
X227216482Y-75135812D01*
X227336180Y-75099502D01*
X227446494Y-75040537D01*
X227543185Y-74961185D01*
X227622537Y-74864494D01*
X227681502Y-74754180D01*
X227717812Y-74634482D01*
X227730072Y-74510000D01*
X227730072Y-72810000D01*
X227717812Y-72685518D01*
X227681502Y-72565820D01*
X227622537Y-72455506D01*
X227543185Y-72358815D01*
X227446494Y-72279463D01*
X227336180Y-72220498D01*
X227216482Y-72184188D01*
X227092000Y-72171928D01*
X226852000Y-72171928D01*
X226852000Y-69399273D01*
X226885629Y-69375835D01*
X226972323Y-69285667D01*
X227039760Y-69180320D01*
X227085350Y-69063840D01*
X227107339Y-68940704D01*
X227104883Y-68815644D01*
X227078077Y-68693466D01*
X226823261Y-67909224D01*
X226921192Y-67918869D01*
G36*
X221497460Y-68902262D02*
G01*
X221521259Y-68931261D01*
X221636984Y-69026234D01*
X221769013Y-69096806D01*
X221912274Y-69140263D01*
X221978178Y-69146754D01*
X222061260Y-69154937D01*
X222098593Y-69151260D01*
X223782081Y-69151260D01*
X223962278Y-69705850D01*
X224012406Y-69820451D01*
X224083927Y-69923070D01*
X224174094Y-70009764D01*
X224279442Y-70077201D01*
X224353022Y-70106000D01*
X219262802Y-70106000D01*
X218855153Y-69698351D01*
X218831068Y-69577271D01*
X218760586Y-69407111D01*
X218658262Y-69253972D01*
X218528028Y-69123738D01*
X218374889Y-69021414D01*
X218204729Y-68950932D01*
X218024089Y-68915000D01*
X217839911Y-68915000D01*
X217659271Y-68950932D01*
X217489111Y-69021414D01*
X217335972Y-69123738D01*
X217205738Y-69253972D01*
X217103414Y-69407111D01*
X217032932Y-69577271D01*
X216997000Y-69757911D01*
X216997000Y-69942089D01*
X217032932Y-70122729D01*
X217103414Y-70292889D01*
X217205738Y-70446028D01*
X217335972Y-70576262D01*
X217489111Y-70678586D01*
X217659271Y-70749068D01*
X217780351Y-70773153D01*
X218384201Y-71377003D01*
X218407999Y-71406001D01*
X218436997Y-71429799D01*
X218523723Y-71500974D01*
X218655753Y-71571546D01*
X218799014Y-71615003D01*
X218910667Y-71626000D01*
X218910677Y-71626000D01*
X218948000Y-71629676D01*
X218985322Y-71626000D01*
X224498465Y-71626000D01*
X224601111Y-71694586D01*
X224771271Y-71765068D01*
X224951911Y-71801000D01*
X225136089Y-71801000D01*
X225316729Y-71765068D01*
X225332000Y-71758742D01*
X225332000Y-72171928D01*
X225092000Y-72171928D01*
X224967518Y-72184188D01*
X224847820Y-72220498D01*
X224737506Y-72279463D01*
X224640815Y-72358815D01*
X224561463Y-72455506D01*
X224502498Y-72565820D01*
X224466188Y-72685518D01*
X224453928Y-72810000D01*
X224453928Y-72900000D01*
X216953325Y-72900000D01*
X216938706Y-72898560D01*
X216982586Y-72832889D01*
X217053068Y-72662729D01*
X217089000Y-72482089D01*
X217089000Y-72297911D01*
X217053068Y-72117271D01*
X216982586Y-71947111D01*
X216914000Y-71844465D01*
X216914000Y-71157322D01*
X216917676Y-71119999D01*
X216914000Y-71082676D01*
X216914000Y-71082667D01*
X216903003Y-70971014D01*
X216859546Y-70827753D01*
X216788974Y-70695724D01*
X216694001Y-70579999D01*
X216665004Y-70556202D01*
X215807153Y-69698351D01*
X215783068Y-69577271D01*
X215712586Y-69407111D01*
X215610262Y-69253972D01*
X215480028Y-69123738D01*
X215326889Y-69021414D01*
X215156729Y-68950932D01*
X214976089Y-68915000D01*
X214882000Y-68915000D01*
X214882000Y-64299323D01*
X214885676Y-64262000D01*
X214882000Y-64224677D01*
X214882000Y-64224667D01*
X214871003Y-64113014D01*
X214827546Y-63969753D01*
X214791858Y-63902986D01*
X214756974Y-63837723D01*
X214685799Y-63750997D01*
X214662001Y-63721999D01*
X214633004Y-63698202D01*
X211997153Y-61062352D01*
X211973068Y-60941271D01*
X211902586Y-60771111D01*
X211800262Y-60617972D01*
X211670028Y-60487738D01*
X211516889Y-60385414D01*
X211346729Y-60314932D01*
X211166089Y-60279000D01*
X211051801Y-60279000D01*
X211963000Y-59367802D01*
X221497460Y-68902262D01*
X221497460Y-68902262D01*
G37*
X221497460Y-68902262D02*
X221521259Y-68931261D01*
X221636984Y-69026234D01*
X221769013Y-69096806D01*
X221912274Y-69140263D01*
X221978178Y-69146754D01*
X222061260Y-69154937D01*
X222098593Y-69151260D01*
X223782081Y-69151260D01*
X223962278Y-69705850D01*
X224012406Y-69820451D01*
X224083927Y-69923070D01*
X224174094Y-70009764D01*
X224279442Y-70077201D01*
X224353022Y-70106000D01*
X219262802Y-70106000D01*
X218855153Y-69698351D01*
X218831068Y-69577271D01*
X218760586Y-69407111D01*
X218658262Y-69253972D01*
X218528028Y-69123738D01*
X218374889Y-69021414D01*
X218204729Y-68950932D01*
X218024089Y-68915000D01*
X217839911Y-68915000D01*
X217659271Y-68950932D01*
X217489111Y-69021414D01*
X217335972Y-69123738D01*
X217205738Y-69253972D01*
X217103414Y-69407111D01*
X217032932Y-69577271D01*
X216997000Y-69757911D01*
X216997000Y-69942089D01*
X217032932Y-70122729D01*
X217103414Y-70292889D01*
X217205738Y-70446028D01*
X217335972Y-70576262D01*
X217489111Y-70678586D01*
X217659271Y-70749068D01*
X217780351Y-70773153D01*
X218384201Y-71377003D01*
X218407999Y-71406001D01*
X218436997Y-71429799D01*
X218523723Y-71500974D01*
X218655753Y-71571546D01*
X218799014Y-71615003D01*
X218910667Y-71626000D01*
X218910677Y-71626000D01*
X218948000Y-71629676D01*
X218985322Y-71626000D01*
X224498465Y-71626000D01*
X224601111Y-71694586D01*
X224771271Y-71765068D01*
X224951911Y-71801000D01*
X225136089Y-71801000D01*
X225316729Y-71765068D01*
X225332000Y-71758742D01*
X225332000Y-72171928D01*
X225092000Y-72171928D01*
X224967518Y-72184188D01*
X224847820Y-72220498D01*
X224737506Y-72279463D01*
X224640815Y-72358815D01*
X224561463Y-72455506D01*
X224502498Y-72565820D01*
X224466188Y-72685518D01*
X224453928Y-72810000D01*
X224453928Y-72900000D01*
X216953325Y-72900000D01*
X216938706Y-72898560D01*
X216982586Y-72832889D01*
X217053068Y-72662729D01*
X217089000Y-72482089D01*
X217089000Y-72297911D01*
X217053068Y-72117271D01*
X216982586Y-71947111D01*
X216914000Y-71844465D01*
X216914000Y-71157322D01*
X216917676Y-71119999D01*
X216914000Y-71082676D01*
X216914000Y-71082667D01*
X216903003Y-70971014D01*
X216859546Y-70827753D01*
X216788974Y-70695724D01*
X216694001Y-70579999D01*
X216665004Y-70556202D01*
X215807153Y-69698351D01*
X215783068Y-69577271D01*
X215712586Y-69407111D01*
X215610262Y-69253972D01*
X215480028Y-69123738D01*
X215326889Y-69021414D01*
X215156729Y-68950932D01*
X214976089Y-68915000D01*
X214882000Y-68915000D01*
X214882000Y-64299323D01*
X214885676Y-64262000D01*
X214882000Y-64224677D01*
X214882000Y-64224667D01*
X214871003Y-64113014D01*
X214827546Y-63969753D01*
X214791858Y-63902986D01*
X214756974Y-63837723D01*
X214685799Y-63750997D01*
X214662001Y-63721999D01*
X214633004Y-63698202D01*
X211997153Y-61062352D01*
X211973068Y-60941271D01*
X211902586Y-60771111D01*
X211800262Y-60617972D01*
X211670028Y-60487738D01*
X211516889Y-60385414D01*
X211346729Y-60314932D01*
X211166089Y-60279000D01*
X211051801Y-60279000D01*
X211963000Y-59367802D01*
X221497460Y-68902262D01*
G36*
X188368523Y-68507431D02*
G01*
X188387287Y-68542537D01*
X188426398Y-68590193D01*
X188482261Y-68658262D01*
X188511259Y-68682060D01*
X190697198Y-70868000D01*
X187743322Y-70868000D01*
X187706000Y-70864324D01*
X187668678Y-70868000D01*
X187668667Y-70868000D01*
X187557014Y-70878997D01*
X187413753Y-70922454D01*
X187281724Y-70993026D01*
X187165999Y-71087999D01*
X187071026Y-71203724D01*
X187000454Y-71335753D01*
X186956997Y-71479014D01*
X186942323Y-71628000D01*
X186956997Y-71776986D01*
X187000454Y-71920247D01*
X187071026Y-72052276D01*
X187165999Y-72168001D01*
X187170784Y-72171928D01*
X186992000Y-72171928D01*
X186867518Y-72184188D01*
X186817000Y-72199512D01*
X186817000Y-71143030D01*
X187866517Y-68344320D01*
X188368523Y-68507431D01*
X188368523Y-68507431D01*
G37*
X188368523Y-68507431D02*
X188387287Y-68542537D01*
X188426398Y-68590193D01*
X188482261Y-68658262D01*
X188511259Y-68682060D01*
X190697198Y-70868000D01*
X187743322Y-70868000D01*
X187706000Y-70864324D01*
X187668678Y-70868000D01*
X187668667Y-70868000D01*
X187557014Y-70878997D01*
X187413753Y-70922454D01*
X187281724Y-70993026D01*
X187165999Y-71087999D01*
X187071026Y-71203724D01*
X187000454Y-71335753D01*
X186956997Y-71479014D01*
X186942323Y-71628000D01*
X186956997Y-71776986D01*
X187000454Y-71920247D01*
X187071026Y-72052276D01*
X187165999Y-72168001D01*
X187170784Y-72171928D01*
X186992000Y-72171928D01*
X186867518Y-72184188D01*
X186817000Y-72199512D01*
X186817000Y-71143030D01*
X187866517Y-68344320D01*
X188368523Y-68507431D01*
G36*
X194488262Y-68667206D02*
G01*
X194426932Y-68815271D01*
X194391000Y-68995911D01*
X194391000Y-69180089D01*
X194426932Y-69360729D01*
X194497414Y-69530889D01*
X194599738Y-69684028D01*
X194729972Y-69814262D01*
X194883111Y-69916586D01*
X195053271Y-69987068D01*
X195233911Y-70023000D01*
X195418089Y-70023000D01*
X195598729Y-69987068D01*
X195665992Y-69959207D01*
X194757199Y-70868000D01*
X192705000Y-70868000D01*
X192705000Y-70773911D01*
X192669068Y-70593271D01*
X192598586Y-70423111D01*
X192496262Y-70269972D01*
X192366028Y-70139738D01*
X192212889Y-70037414D01*
X192042729Y-69966932D01*
X191921649Y-69942847D01*
X191505498Y-69526697D01*
X193317704Y-70115518D01*
X193439882Y-70142324D01*
X193564942Y-70144780D01*
X193688078Y-70122791D01*
X193804558Y-70077201D01*
X193909905Y-70009764D01*
X194000073Y-69923070D01*
X194071594Y-69820451D01*
X194121722Y-69705850D01*
X194488262Y-68577756D01*
X194488262Y-68667206D01*
X194488262Y-68667206D01*
G37*
X194488262Y-68667206D02*
X194426932Y-68815271D01*
X194391000Y-68995911D01*
X194391000Y-69180089D01*
X194426932Y-69360729D01*
X194497414Y-69530889D01*
X194599738Y-69684028D01*
X194729972Y-69814262D01*
X194883111Y-69916586D01*
X195053271Y-69987068D01*
X195233911Y-70023000D01*
X195418089Y-70023000D01*
X195598729Y-69987068D01*
X195665992Y-69959207D01*
X194757199Y-70868000D01*
X192705000Y-70868000D01*
X192705000Y-70773911D01*
X192669068Y-70593271D01*
X192598586Y-70423111D01*
X192496262Y-70269972D01*
X192366028Y-70139738D01*
X192212889Y-70037414D01*
X192042729Y-69966932D01*
X191921649Y-69942847D01*
X191505498Y-69526697D01*
X193317704Y-70115518D01*
X193439882Y-70142324D01*
X193564942Y-70144780D01*
X193688078Y-70122791D01*
X193804558Y-70077201D01*
X193909905Y-70009764D01*
X194000073Y-69923070D01*
X194071594Y-69820451D01*
X194121722Y-69705850D01*
X194488262Y-68577756D01*
X194488262Y-68667206D01*
G36*
X225332001Y-69973258D02*
G01*
X225316729Y-69966932D01*
X225258962Y-69955441D01*
X225332001Y-69931709D01*
X225332001Y-69973258D01*
X225332001Y-69973258D01*
G37*
X225332001Y-69973258D02*
X225316729Y-69966932D01*
X225258962Y-69955441D01*
X225332001Y-69931709D01*
X225332001Y-69973258D01*
G36*
X230634001Y-69564452D02*
G01*
X230596262Y-69507972D01*
X230466028Y-69377738D01*
X230312889Y-69275414D01*
X230142729Y-69204932D01*
X230021649Y-69180847D01*
X229821739Y-68980938D01*
X229821739Y-68472905D01*
X230472635Y-68261416D01*
X230587236Y-68211288D01*
X230634000Y-68178695D01*
X230634001Y-69564452D01*
X230634001Y-69564452D01*
G37*
X230634001Y-69564452D02*
X230596262Y-69507972D01*
X230466028Y-69377738D01*
X230312889Y-69275414D01*
X230142729Y-69204932D01*
X230021649Y-69180847D01*
X229821739Y-68980938D01*
X229821739Y-68472905D01*
X230472635Y-68261416D01*
X230587236Y-68211288D01*
X230634000Y-68178695D01*
X230634001Y-69564452D01*
G36*
X196198014Y-69427185D02*
G01*
X196197207Y-69427992D01*
X196197610Y-69427018D01*
X196198014Y-69427185D01*
X196198014Y-69427185D01*
G37*
X196198014Y-69427185D02*
X196197207Y-69427992D01*
X196197610Y-69427018D01*
X196198014Y-69427185D01*
G36*
X190328510Y-61903209D02*
G01*
X191252193Y-62574304D01*
X191252194Y-67539634D01*
X191248517Y-67576966D01*
X191252194Y-67614299D01*
X191263191Y-67725952D01*
X191270915Y-67751414D01*
X191290759Y-67816833D01*
X191005923Y-68693466D01*
X190979117Y-68815644D01*
X190976661Y-68940704D01*
X190989086Y-69010285D01*
X190349643Y-68370842D01*
X190842825Y-66852986D01*
X190869631Y-66730808D01*
X190872087Y-66605748D01*
X190850098Y-66482612D01*
X190804508Y-66366132D01*
X190737071Y-66260784D01*
X190650377Y-66170617D01*
X190547758Y-66099096D01*
X190433157Y-66048968D01*
X188912552Y-65554893D01*
X190293575Y-61872165D01*
X190328510Y-61903209D01*
X190328510Y-61903209D01*
G37*
X190328510Y-61903209D02*
X191252193Y-62574304D01*
X191252194Y-67539634D01*
X191248517Y-67576966D01*
X191252194Y-67614299D01*
X191263191Y-67725952D01*
X191270915Y-67751414D01*
X191290759Y-67816833D01*
X191005923Y-68693466D01*
X190979117Y-68815644D01*
X190976661Y-68940704D01*
X190989086Y-69010285D01*
X190349643Y-68370842D01*
X190842825Y-66852986D01*
X190869631Y-66730808D01*
X190872087Y-66605748D01*
X190850098Y-66482612D01*
X190804508Y-66366132D01*
X190737071Y-66260784D01*
X190650377Y-66170617D01*
X190547758Y-66099096D01*
X190433157Y-66048968D01*
X188912552Y-65554893D01*
X190293575Y-61872165D01*
X190328510Y-61903209D01*
G36*
X196153111Y-67630586D02*
G01*
X196298964Y-67691000D01*
X196153111Y-67751414D01*
X196008261Y-67848199D01*
X196008261Y-67533801D01*
X196153111Y-67630586D01*
X196153111Y-67630586D01*
G37*
X196153111Y-67630586D02*
X196298964Y-67691000D01*
X196153111Y-67751414D01*
X196008261Y-67848199D01*
X196008261Y-67533801D01*
X196153111Y-67630586D01*
G36*
X219764381Y-57455804D02*
G01*
X221139710Y-58455038D01*
X221247624Y-58518288D01*
X221365804Y-58559269D01*
X221489708Y-58576407D01*
X221614575Y-58569043D01*
X221735606Y-58537461D01*
X221848151Y-58482873D01*
X221947883Y-58407378D01*
X222030970Y-58313876D01*
X222702065Y-57390193D01*
X223955392Y-57390193D01*
X225806614Y-59241415D01*
X225964545Y-59525691D01*
X225811608Y-59636807D01*
X224697153Y-58522352D01*
X224673068Y-58401271D01*
X224602586Y-58231111D01*
X224500262Y-58077972D01*
X224370028Y-57947738D01*
X224216889Y-57845414D01*
X224046729Y-57774932D01*
X223866089Y-57739000D01*
X223681911Y-57739000D01*
X223501271Y-57774932D01*
X223331111Y-57845414D01*
X223177972Y-57947738D01*
X223047738Y-58077972D01*
X222945414Y-58231111D01*
X222874932Y-58401271D01*
X222839000Y-58581911D01*
X222839000Y-58766089D01*
X222874932Y-58946729D01*
X222945414Y-59116889D01*
X223047738Y-59270028D01*
X223177972Y-59400262D01*
X223331111Y-59502586D01*
X223501271Y-59573068D01*
X223622352Y-59597153D01*
X224552317Y-60527119D01*
X220799398Y-60527119D01*
X220581365Y-60309086D01*
X220855399Y-59931910D01*
X220918649Y-59823996D01*
X220959630Y-59705816D01*
X220976768Y-59581911D01*
X220969404Y-59457044D01*
X220937822Y-59336013D01*
X220883234Y-59223469D01*
X220807738Y-59123737D01*
X220714237Y-59040650D01*
X219338908Y-58041416D01*
X219230994Y-57978166D01*
X219112814Y-57937185D01*
X218988910Y-57920047D01*
X218864043Y-57927411D01*
X218743012Y-57958993D01*
X218630467Y-58013581D01*
X218530735Y-58089076D01*
X218447648Y-58182578D01*
X217272077Y-59800612D01*
X217208827Y-59908526D01*
X217167846Y-60026706D01*
X217150708Y-60150611D01*
X217158072Y-60275478D01*
X217189654Y-60396509D01*
X217244242Y-60509053D01*
X217319738Y-60608785D01*
X217413239Y-60691872D01*
X218303738Y-61338857D01*
X218303739Y-62816406D01*
X218300062Y-62853738D01*
X218314736Y-63002723D01*
X218358192Y-63145984D01*
X218428764Y-63278014D01*
X218471202Y-63329724D01*
X218523738Y-63393739D01*
X218552736Y-63417537D01*
X220818848Y-65683650D01*
X220842932Y-65804729D01*
X220913414Y-65974889D01*
X221015738Y-66128028D01*
X221145972Y-66258262D01*
X221299111Y-66360586D01*
X221469271Y-66431068D01*
X221649911Y-66467000D01*
X221834089Y-66467000D01*
X222014729Y-66431068D01*
X222184889Y-66360586D01*
X222338028Y-66258262D01*
X222468262Y-66128028D01*
X222570586Y-65974889D01*
X222641068Y-65804729D01*
X222677000Y-65624089D01*
X222677000Y-65533561D01*
X222793474Y-65493172D01*
X222901388Y-65429922D01*
X223607848Y-64916649D01*
X225453973Y-66762774D01*
X223846617Y-67285036D01*
X223732016Y-67335164D01*
X223629397Y-67406685D01*
X223542703Y-67496853D01*
X223475266Y-67602200D01*
X223463892Y-67631260D01*
X222376062Y-67631260D01*
X213719580Y-58974779D01*
X214612945Y-59265051D01*
X214735123Y-59291857D01*
X214860183Y-59294313D01*
X214983319Y-59272324D01*
X215099799Y-59226734D01*
X215205147Y-59159297D01*
X215295314Y-59072603D01*
X215366835Y-58969984D01*
X215416963Y-58855383D01*
X215628452Y-58204487D01*
X217092191Y-58204487D01*
X217129513Y-58208163D01*
X217166835Y-58204487D01*
X217166846Y-58204487D01*
X217278499Y-58193490D01*
X217421760Y-58150033D01*
X217553789Y-58079461D01*
X217669514Y-57984488D01*
X217693316Y-57955485D01*
X218258609Y-57390193D01*
X219690546Y-57390193D01*
X219764381Y-57455804D01*
X219764381Y-57455804D01*
G37*
X219764381Y-57455804D02*
X221139710Y-58455038D01*
X221247624Y-58518288D01*
X221365804Y-58559269D01*
X221489708Y-58576407D01*
X221614575Y-58569043D01*
X221735606Y-58537461D01*
X221848151Y-58482873D01*
X221947883Y-58407378D01*
X222030970Y-58313876D01*
X222702065Y-57390193D01*
X223955392Y-57390193D01*
X225806614Y-59241415D01*
X225964545Y-59525691D01*
X225811608Y-59636807D01*
X224697153Y-58522352D01*
X224673068Y-58401271D01*
X224602586Y-58231111D01*
X224500262Y-58077972D01*
X224370028Y-57947738D01*
X224216889Y-57845414D01*
X224046729Y-57774932D01*
X223866089Y-57739000D01*
X223681911Y-57739000D01*
X223501271Y-57774932D01*
X223331111Y-57845414D01*
X223177972Y-57947738D01*
X223047738Y-58077972D01*
X222945414Y-58231111D01*
X222874932Y-58401271D01*
X222839000Y-58581911D01*
X222839000Y-58766089D01*
X222874932Y-58946729D01*
X222945414Y-59116889D01*
X223047738Y-59270028D01*
X223177972Y-59400262D01*
X223331111Y-59502586D01*
X223501271Y-59573068D01*
X223622352Y-59597153D01*
X224552317Y-60527119D01*
X220799398Y-60527119D01*
X220581365Y-60309086D01*
X220855399Y-59931910D01*
X220918649Y-59823996D01*
X220959630Y-59705816D01*
X220976768Y-59581911D01*
X220969404Y-59457044D01*
X220937822Y-59336013D01*
X220883234Y-59223469D01*
X220807738Y-59123737D01*
X220714237Y-59040650D01*
X219338908Y-58041416D01*
X219230994Y-57978166D01*
X219112814Y-57937185D01*
X218988910Y-57920047D01*
X218864043Y-57927411D01*
X218743012Y-57958993D01*
X218630467Y-58013581D01*
X218530735Y-58089076D01*
X218447648Y-58182578D01*
X217272077Y-59800612D01*
X217208827Y-59908526D01*
X217167846Y-60026706D01*
X217150708Y-60150611D01*
X217158072Y-60275478D01*
X217189654Y-60396509D01*
X217244242Y-60509053D01*
X217319738Y-60608785D01*
X217413239Y-60691872D01*
X218303738Y-61338857D01*
X218303739Y-62816406D01*
X218300062Y-62853738D01*
X218314736Y-63002723D01*
X218358192Y-63145984D01*
X218428764Y-63278014D01*
X218471202Y-63329724D01*
X218523738Y-63393739D01*
X218552736Y-63417537D01*
X220818848Y-65683650D01*
X220842932Y-65804729D01*
X220913414Y-65974889D01*
X221015738Y-66128028D01*
X221145972Y-66258262D01*
X221299111Y-66360586D01*
X221469271Y-66431068D01*
X221649911Y-66467000D01*
X221834089Y-66467000D01*
X222014729Y-66431068D01*
X222184889Y-66360586D01*
X222338028Y-66258262D01*
X222468262Y-66128028D01*
X222570586Y-65974889D01*
X222641068Y-65804729D01*
X222677000Y-65624089D01*
X222677000Y-65533561D01*
X222793474Y-65493172D01*
X222901388Y-65429922D01*
X223607848Y-64916649D01*
X225453973Y-66762774D01*
X223846617Y-67285036D01*
X223732016Y-67335164D01*
X223629397Y-67406685D01*
X223542703Y-67496853D01*
X223475266Y-67602200D01*
X223463892Y-67631260D01*
X222376062Y-67631260D01*
X213719580Y-58974779D01*
X214612945Y-59265051D01*
X214735123Y-59291857D01*
X214860183Y-59294313D01*
X214983319Y-59272324D01*
X215099799Y-59226734D01*
X215205147Y-59159297D01*
X215295314Y-59072603D01*
X215366835Y-58969984D01*
X215416963Y-58855383D01*
X215628452Y-58204487D01*
X217092191Y-58204487D01*
X217129513Y-58208163D01*
X217166835Y-58204487D01*
X217166846Y-58204487D01*
X217278499Y-58193490D01*
X217421760Y-58150033D01*
X217553789Y-58079461D01*
X217669514Y-57984488D01*
X217693316Y-57955485D01*
X218258609Y-57390193D01*
X219690546Y-57390193D01*
X219764381Y-57455804D01*
G36*
X195909119Y-60572079D02*
G01*
X194737259Y-61743940D01*
X194708261Y-61767738D01*
X194706667Y-61769680D01*
X194605469Y-61818765D01*
X194505737Y-61894261D01*
X194422650Y-61987762D01*
X193423416Y-63363091D01*
X193360166Y-63471005D01*
X193319185Y-63589185D01*
X193302047Y-63713089D01*
X193309411Y-63837956D01*
X193340993Y-63958987D01*
X193395581Y-64071532D01*
X193471076Y-64171264D01*
X193564578Y-64254351D01*
X194488261Y-64925446D01*
X194488261Y-65416935D01*
X194484585Y-65454261D01*
X194488261Y-65491587D01*
X194488262Y-67441692D01*
X194454603Y-67406685D01*
X194351984Y-67335164D01*
X194237383Y-67285036D01*
X192772193Y-66808967D01*
X192772193Y-63011453D01*
X192837804Y-62937618D01*
X193482676Y-62050027D01*
X193512203Y-62047119D01*
X193512214Y-62047119D01*
X193623867Y-62036122D01*
X193767128Y-61992665D01*
X193899157Y-61922093D01*
X194014882Y-61827120D01*
X194038685Y-61798116D01*
X195223649Y-60613153D01*
X195344729Y-60589068D01*
X195514889Y-60518586D01*
X195668028Y-60416262D01*
X195798262Y-60286028D01*
X195900586Y-60132889D01*
X195909119Y-60112288D01*
X195909119Y-60572079D01*
X195909119Y-60572079D01*
G37*
X195909119Y-60572079D02*
X194737259Y-61743940D01*
X194708261Y-61767738D01*
X194706667Y-61769680D01*
X194605469Y-61818765D01*
X194505737Y-61894261D01*
X194422650Y-61987762D01*
X193423416Y-63363091D01*
X193360166Y-63471005D01*
X193319185Y-63589185D01*
X193302047Y-63713089D01*
X193309411Y-63837956D01*
X193340993Y-63958987D01*
X193395581Y-64071532D01*
X193471076Y-64171264D01*
X193564578Y-64254351D01*
X194488261Y-64925446D01*
X194488261Y-65416935D01*
X194484585Y-65454261D01*
X194488261Y-65491587D01*
X194488262Y-67441692D01*
X194454603Y-67406685D01*
X194351984Y-67335164D01*
X194237383Y-67285036D01*
X192772193Y-66808967D01*
X192772193Y-63011453D01*
X192837804Y-62937618D01*
X193482676Y-62050027D01*
X193512203Y-62047119D01*
X193512214Y-62047119D01*
X193623867Y-62036122D01*
X193767128Y-61992665D01*
X193899157Y-61922093D01*
X194014882Y-61827120D01*
X194038685Y-61798116D01*
X195223649Y-60613153D01*
X195344729Y-60589068D01*
X195514889Y-60518586D01*
X195668028Y-60416262D01*
X195798262Y-60286028D01*
X195900586Y-60132889D01*
X195909119Y-60112288D01*
X195909119Y-60572079D01*
G36*
X198260262Y-61351870D02*
G01*
X198260261Y-65840937D01*
X197507820Y-66593378D01*
X197495068Y-66529271D01*
X197424586Y-66359111D01*
X197322262Y-66205972D01*
X197192028Y-66075738D01*
X197038889Y-65973414D01*
X196868729Y-65902932D01*
X196747649Y-65878847D01*
X196109089Y-65240288D01*
X197073106Y-63913431D01*
X197136356Y-63805517D01*
X197177337Y-63687337D01*
X197194475Y-63563433D01*
X197187111Y-63438566D01*
X197155529Y-63317535D01*
X197100941Y-63204990D01*
X197025446Y-63105258D01*
X196931944Y-63022171D01*
X196165491Y-62465310D01*
X197180123Y-61450679D01*
X197209120Y-61426882D01*
X197304093Y-61311157D01*
X197374665Y-61179128D01*
X197418122Y-61035867D01*
X197429119Y-60924214D01*
X197429119Y-60924206D01*
X197432795Y-60886881D01*
X197429119Y-60849556D01*
X197429119Y-60207901D01*
X198260262Y-61351870D01*
X198260262Y-61351870D01*
G37*
X198260262Y-61351870D02*
X198260261Y-65840937D01*
X197507820Y-66593378D01*
X197495068Y-66529271D01*
X197424586Y-66359111D01*
X197322262Y-66205972D01*
X197192028Y-66075738D01*
X197038889Y-65973414D01*
X196868729Y-65902932D01*
X196747649Y-65878847D01*
X196109089Y-65240288D01*
X197073106Y-63913431D01*
X197136356Y-63805517D01*
X197177337Y-63687337D01*
X197194475Y-63563433D01*
X197187111Y-63438566D01*
X197155529Y-63317535D01*
X197100941Y-63204990D01*
X197025446Y-63105258D01*
X196931944Y-63022171D01*
X196165491Y-62465310D01*
X197180123Y-61450679D01*
X197209120Y-61426882D01*
X197304093Y-61311157D01*
X197374665Y-61179128D01*
X197418122Y-61035867D01*
X197429119Y-60924214D01*
X197429119Y-60924206D01*
X197432795Y-60886881D01*
X197429119Y-60849556D01*
X197429119Y-60207901D01*
X198260262Y-61351870D01*
G36*
X225246196Y-62937618D02*
G01*
X225329283Y-63031120D01*
X225429015Y-63106615D01*
X225541560Y-63161203D01*
X225662591Y-63192785D01*
X225787458Y-63200149D01*
X225911362Y-63183011D01*
X226029542Y-63142030D01*
X226137456Y-63078780D01*
X227420573Y-62146541D01*
X228350943Y-63821207D01*
X228358998Y-63902986D01*
X228367346Y-63930507D01*
X228402454Y-64046246D01*
X228473026Y-64178276D01*
X228535460Y-64254351D01*
X228568000Y-64294001D01*
X228596998Y-64317799D01*
X228664115Y-64384916D01*
X229292289Y-65515630D01*
X227650843Y-66048968D01*
X227536242Y-66099096D01*
X227433623Y-66170617D01*
X227346929Y-66260785D01*
X227279492Y-66366132D01*
X227268118Y-66395192D01*
X227235994Y-66395192D01*
X224754758Y-63913956D01*
X224774589Y-63837957D01*
X224781953Y-63713090D01*
X224764815Y-63589185D01*
X224723834Y-63471005D01*
X224660584Y-63363091D01*
X223704475Y-62047119D01*
X224599211Y-62047119D01*
X225246196Y-62937618D01*
X225246196Y-62937618D01*
G37*
X225246196Y-62937618D02*
X225329283Y-63031120D01*
X225429015Y-63106615D01*
X225541560Y-63161203D01*
X225662591Y-63192785D01*
X225787458Y-63200149D01*
X225911362Y-63183011D01*
X226029542Y-63142030D01*
X226137456Y-63078780D01*
X227420573Y-62146541D01*
X228350943Y-63821207D01*
X228358998Y-63902986D01*
X228367346Y-63930507D01*
X228402454Y-64046246D01*
X228473026Y-64178276D01*
X228535460Y-64254351D01*
X228568000Y-64294001D01*
X228596998Y-64317799D01*
X228664115Y-64384916D01*
X229292289Y-65515630D01*
X227650843Y-66048968D01*
X227536242Y-66099096D01*
X227433623Y-66170617D01*
X227346929Y-66260785D01*
X227279492Y-66366132D01*
X227268118Y-66395192D01*
X227235994Y-66395192D01*
X224754758Y-63913956D01*
X224774589Y-63837957D01*
X224781953Y-63713090D01*
X224764815Y-63589185D01*
X224723834Y-63471005D01*
X224660584Y-63363091D01*
X223704475Y-62047119D01*
X224599211Y-62047119D01*
X225246196Y-62937618D01*
G36*
X201222602Y-52345026D02*
G01*
X201108001Y-52395154D01*
X201005382Y-52466675D01*
X200918688Y-52556842D01*
X200851251Y-52662190D01*
X200805661Y-52778670D01*
X200783672Y-52901806D01*
X200786128Y-53026866D01*
X200812934Y-53149044D01*
X201430968Y-55051157D01*
X201481096Y-55165758D01*
X201552617Y-55268377D01*
X201642785Y-55355071D01*
X201748132Y-55422508D01*
X201864612Y-55468098D01*
X201987748Y-55490087D01*
X202112808Y-55487631D01*
X202234986Y-55460825D01*
X203851782Y-54935496D01*
X203966383Y-54885368D01*
X204069002Y-54813847D01*
X204155696Y-54723680D01*
X204223133Y-54618332D01*
X204268723Y-54501852D01*
X204286865Y-54400261D01*
X204386417Y-54400261D01*
X204423739Y-54403937D01*
X204461061Y-54400261D01*
X204461072Y-54400261D01*
X204572725Y-54389264D01*
X204715986Y-54345807D01*
X204848015Y-54275235D01*
X204963740Y-54180262D01*
X204987543Y-54151258D01*
X206941802Y-52197000D01*
X207553927Y-52197000D01*
X207553927Y-53610000D01*
X207566187Y-53734482D01*
X207602497Y-53854180D01*
X207661462Y-53964494D01*
X207740814Y-54061185D01*
X207837505Y-54140537D01*
X207947819Y-54199502D01*
X208067517Y-54235812D01*
X208191999Y-54248072D01*
X209891999Y-54248072D01*
X210016481Y-54235812D01*
X210136179Y-54199502D01*
X210246493Y-54140537D01*
X210343184Y-54061185D01*
X210422536Y-53964494D01*
X210481501Y-53854180D01*
X210517811Y-53734482D01*
X210530071Y-53610000D01*
X210530071Y-53370000D01*
X210568001Y-53370000D01*
X210568000Y-57347198D01*
X210530071Y-57309269D01*
X210530071Y-55610000D01*
X210517811Y-55485518D01*
X210481501Y-55365820D01*
X210422536Y-55255506D01*
X210343184Y-55158815D01*
X210246493Y-55079463D01*
X210136179Y-55020498D01*
X210016481Y-54984188D01*
X209891999Y-54971928D01*
X208191999Y-54971928D01*
X208067517Y-54984188D01*
X207947819Y-55020498D01*
X207837505Y-55079463D01*
X207740814Y-55158815D01*
X207661462Y-55255506D01*
X207602497Y-55365820D01*
X207566187Y-55485518D01*
X207553927Y-55610000D01*
X207553927Y-55850000D01*
X207521035Y-55850000D01*
X207482262Y-55791972D01*
X207352028Y-55661738D01*
X207198889Y-55559414D01*
X207028729Y-55488932D01*
X206848089Y-55453000D01*
X206663911Y-55453000D01*
X206483271Y-55488932D01*
X206313111Y-55559414D01*
X206159972Y-55661738D01*
X206029738Y-55791972D01*
X205927414Y-55945111D01*
X205856932Y-56115271D01*
X205821000Y-56295911D01*
X205821000Y-56480089D01*
X205856932Y-56660729D01*
X205927414Y-56830889D01*
X206029738Y-56984028D01*
X206159972Y-57114262D01*
X206313111Y-57216586D01*
X206483271Y-57287068D01*
X206663911Y-57323000D01*
X206710326Y-57323000D01*
X206829014Y-57359003D01*
X206940667Y-57370000D01*
X206940676Y-57370000D01*
X206977999Y-57373676D01*
X207015322Y-57370000D01*
X207553927Y-57370000D01*
X207553927Y-57610000D01*
X207566187Y-57734482D01*
X207602497Y-57854180D01*
X207661462Y-57964494D01*
X207740814Y-58061185D01*
X207837505Y-58140537D01*
X207947819Y-58199502D01*
X208067517Y-58235812D01*
X208191999Y-58248072D01*
X208282000Y-58248072D01*
X208282000Y-58532809D01*
X208261271Y-58536932D01*
X208091111Y-58607414D01*
X207937972Y-58709738D01*
X207807738Y-58839972D01*
X207705414Y-58993111D01*
X207634932Y-59163271D01*
X207599000Y-59343911D01*
X207599000Y-59528089D01*
X207634932Y-59708729D01*
X207705414Y-59878889D01*
X207750256Y-59946000D01*
X207349576Y-59946000D01*
X205525583Y-58122009D01*
X205524324Y-58057882D01*
X205497518Y-57935704D01*
X204879484Y-56033591D01*
X204829356Y-55918990D01*
X204757835Y-55816371D01*
X204667667Y-55729677D01*
X204562320Y-55662240D01*
X204445840Y-55616650D01*
X204322704Y-55594661D01*
X204197644Y-55597117D01*
X204075466Y-55623923D01*
X202458670Y-56149252D01*
X202344069Y-56199380D01*
X202241450Y-56270901D01*
X202154756Y-56361068D01*
X202087319Y-56466416D01*
X202041729Y-56582896D01*
X202019740Y-56706032D01*
X202022196Y-56831092D01*
X202049002Y-56953270D01*
X202667036Y-58855383D01*
X202717164Y-58969984D01*
X202788685Y-59072603D01*
X202878853Y-59159297D01*
X202984200Y-59226734D01*
X203100680Y-59272324D01*
X203223816Y-59294313D01*
X203348876Y-59291857D01*
X203471054Y-59265051D01*
X204262021Y-59008050D01*
X205439584Y-60185614D01*
X199780261Y-65844938D01*
X199780261Y-61338857D01*
X200670760Y-60691872D01*
X200764262Y-60608785D01*
X200839757Y-60509053D01*
X200894345Y-60396508D01*
X200925927Y-60275477D01*
X200933291Y-60150610D01*
X200916153Y-60026706D01*
X200875172Y-59908526D01*
X200811922Y-59800612D01*
X199636351Y-58182578D01*
X199553264Y-58089077D01*
X199453532Y-58013581D01*
X199340988Y-57958993D01*
X199219957Y-57927411D01*
X199095090Y-57920047D01*
X198971185Y-57937185D01*
X198853005Y-57978166D01*
X198745091Y-58041416D01*
X197429119Y-58997525D01*
X197429119Y-58102789D01*
X198319618Y-57455804D01*
X198413120Y-57372717D01*
X198488615Y-57272985D01*
X198543203Y-57160440D01*
X198574785Y-57039409D01*
X198582149Y-56914542D01*
X198565011Y-56790638D01*
X198524030Y-56672458D01*
X198460780Y-56564544D01*
X197394113Y-55096404D01*
X200707718Y-52197000D01*
X201678179Y-52197000D01*
X201222602Y-52345026D01*
X201222602Y-52345026D01*
G37*
X201222602Y-52345026D02*
X201108001Y-52395154D01*
X201005382Y-52466675D01*
X200918688Y-52556842D01*
X200851251Y-52662190D01*
X200805661Y-52778670D01*
X200783672Y-52901806D01*
X200786128Y-53026866D01*
X200812934Y-53149044D01*
X201430968Y-55051157D01*
X201481096Y-55165758D01*
X201552617Y-55268377D01*
X201642785Y-55355071D01*
X201748132Y-55422508D01*
X201864612Y-55468098D01*
X201987748Y-55490087D01*
X202112808Y-55487631D01*
X202234986Y-55460825D01*
X203851782Y-54935496D01*
X203966383Y-54885368D01*
X204069002Y-54813847D01*
X204155696Y-54723680D01*
X204223133Y-54618332D01*
X204268723Y-54501852D01*
X204286865Y-54400261D01*
X204386417Y-54400261D01*
X204423739Y-54403937D01*
X204461061Y-54400261D01*
X204461072Y-54400261D01*
X204572725Y-54389264D01*
X204715986Y-54345807D01*
X204848015Y-54275235D01*
X204963740Y-54180262D01*
X204987543Y-54151258D01*
X206941802Y-52197000D01*
X207553927Y-52197000D01*
X207553927Y-53610000D01*
X207566187Y-53734482D01*
X207602497Y-53854180D01*
X207661462Y-53964494D01*
X207740814Y-54061185D01*
X207837505Y-54140537D01*
X207947819Y-54199502D01*
X208067517Y-54235812D01*
X208191999Y-54248072D01*
X209891999Y-54248072D01*
X210016481Y-54235812D01*
X210136179Y-54199502D01*
X210246493Y-54140537D01*
X210343184Y-54061185D01*
X210422536Y-53964494D01*
X210481501Y-53854180D01*
X210517811Y-53734482D01*
X210530071Y-53610000D01*
X210530071Y-53370000D01*
X210568001Y-53370000D01*
X210568000Y-57347198D01*
X210530071Y-57309269D01*
X210530071Y-55610000D01*
X210517811Y-55485518D01*
X210481501Y-55365820D01*
X210422536Y-55255506D01*
X210343184Y-55158815D01*
X210246493Y-55079463D01*
X210136179Y-55020498D01*
X210016481Y-54984188D01*
X209891999Y-54971928D01*
X208191999Y-54971928D01*
X208067517Y-54984188D01*
X207947819Y-55020498D01*
X207837505Y-55079463D01*
X207740814Y-55158815D01*
X207661462Y-55255506D01*
X207602497Y-55365820D01*
X207566187Y-55485518D01*
X207553927Y-55610000D01*
X207553927Y-55850000D01*
X207521035Y-55850000D01*
X207482262Y-55791972D01*
X207352028Y-55661738D01*
X207198889Y-55559414D01*
X207028729Y-55488932D01*
X206848089Y-55453000D01*
X206663911Y-55453000D01*
X206483271Y-55488932D01*
X206313111Y-55559414D01*
X206159972Y-55661738D01*
X206029738Y-55791972D01*
X205927414Y-55945111D01*
X205856932Y-56115271D01*
X205821000Y-56295911D01*
X205821000Y-56480089D01*
X205856932Y-56660729D01*
X205927414Y-56830889D01*
X206029738Y-56984028D01*
X206159972Y-57114262D01*
X206313111Y-57216586D01*
X206483271Y-57287068D01*
X206663911Y-57323000D01*
X206710326Y-57323000D01*
X206829014Y-57359003D01*
X206940667Y-57370000D01*
X206940676Y-57370000D01*
X206977999Y-57373676D01*
X207015322Y-57370000D01*
X207553927Y-57370000D01*
X207553927Y-57610000D01*
X207566187Y-57734482D01*
X207602497Y-57854180D01*
X207661462Y-57964494D01*
X207740814Y-58061185D01*
X207837505Y-58140537D01*
X207947819Y-58199502D01*
X208067517Y-58235812D01*
X208191999Y-58248072D01*
X208282000Y-58248072D01*
X208282000Y-58532809D01*
X208261271Y-58536932D01*
X208091111Y-58607414D01*
X207937972Y-58709738D01*
X207807738Y-58839972D01*
X207705414Y-58993111D01*
X207634932Y-59163271D01*
X207599000Y-59343911D01*
X207599000Y-59528089D01*
X207634932Y-59708729D01*
X207705414Y-59878889D01*
X207750256Y-59946000D01*
X207349576Y-59946000D01*
X205525583Y-58122009D01*
X205524324Y-58057882D01*
X205497518Y-57935704D01*
X204879484Y-56033591D01*
X204829356Y-55918990D01*
X204757835Y-55816371D01*
X204667667Y-55729677D01*
X204562320Y-55662240D01*
X204445840Y-55616650D01*
X204322704Y-55594661D01*
X204197644Y-55597117D01*
X204075466Y-55623923D01*
X202458670Y-56149252D01*
X202344069Y-56199380D01*
X202241450Y-56270901D01*
X202154756Y-56361068D01*
X202087319Y-56466416D01*
X202041729Y-56582896D01*
X202019740Y-56706032D01*
X202022196Y-56831092D01*
X202049002Y-56953270D01*
X202667036Y-58855383D01*
X202717164Y-58969984D01*
X202788685Y-59072603D01*
X202878853Y-59159297D01*
X202984200Y-59226734D01*
X203100680Y-59272324D01*
X203223816Y-59294313D01*
X203348876Y-59291857D01*
X203471054Y-59265051D01*
X204262021Y-59008050D01*
X205439584Y-60185614D01*
X199780261Y-65844938D01*
X199780261Y-61338857D01*
X200670760Y-60691872D01*
X200764262Y-60608785D01*
X200839757Y-60509053D01*
X200894345Y-60396508D01*
X200925927Y-60275477D01*
X200933291Y-60150610D01*
X200916153Y-60026706D01*
X200875172Y-59908526D01*
X200811922Y-59800612D01*
X199636351Y-58182578D01*
X199553264Y-58089077D01*
X199453532Y-58013581D01*
X199340988Y-57958993D01*
X199219957Y-57927411D01*
X199095090Y-57920047D01*
X198971185Y-57937185D01*
X198853005Y-57978166D01*
X198745091Y-58041416D01*
X197429119Y-58997525D01*
X197429119Y-58102789D01*
X198319618Y-57455804D01*
X198413120Y-57372717D01*
X198488615Y-57272985D01*
X198543203Y-57160440D01*
X198574785Y-57039409D01*
X198582149Y-56914542D01*
X198565011Y-56790638D01*
X198524030Y-56672458D01*
X198460780Y-56564544D01*
X197394113Y-55096404D01*
X200707718Y-52197000D01*
X201678179Y-52197000D01*
X201222602Y-52345026D01*
G36*
X219920797Y-61798122D02*
G01*
X219944595Y-61827120D01*
X220060320Y-61922093D01*
X220192349Y-61992665D01*
X220335610Y-62036122D01*
X220447263Y-62047119D01*
X220447271Y-62047119D01*
X220484596Y-62050795D01*
X220521921Y-62047119D01*
X222494099Y-62047119D01*
X221152056Y-63022171D01*
X221058555Y-63105258D01*
X220983059Y-63204990D01*
X220928471Y-63317534D01*
X220896889Y-63438565D01*
X220889525Y-63563432D01*
X220896153Y-63611351D01*
X219823738Y-62538937D01*
X219823738Y-61701063D01*
X219920797Y-61798122D01*
X219920797Y-61798122D01*
G37*
X219920797Y-61798122D02*
X219944595Y-61827120D01*
X220060320Y-61922093D01*
X220192349Y-61992665D01*
X220335610Y-62036122D01*
X220447263Y-62047119D01*
X220447271Y-62047119D01*
X220484596Y-62050795D01*
X220521921Y-62047119D01*
X222494099Y-62047119D01*
X221152056Y-63022171D01*
X221058555Y-63105258D01*
X220983059Y-63204990D01*
X220928471Y-63317534D01*
X220896889Y-63438565D01*
X220889525Y-63563432D01*
X220896153Y-63611351D01*
X219823738Y-62538937D01*
X219823738Y-61701063D01*
X219920797Y-61798122D01*
G36*
X195909120Y-58115802D02*
G01*
X195909119Y-59267713D01*
X195900586Y-59247111D01*
X195798262Y-59093972D01*
X195668028Y-58963738D01*
X195514889Y-58861414D01*
X195344729Y-58790932D01*
X195164089Y-58755000D01*
X194979911Y-58755000D01*
X194799271Y-58790932D01*
X194629111Y-58861414D01*
X194475972Y-58963738D01*
X194345738Y-59093972D01*
X194243414Y-59247111D01*
X194172932Y-59417271D01*
X194148847Y-59538351D01*
X193302196Y-60385003D01*
X192235617Y-59610088D01*
X195145132Y-57064263D01*
X195909120Y-58115802D01*
X195909120Y-58115802D01*
G37*
X195909120Y-58115802D02*
X195909119Y-59267713D01*
X195900586Y-59247111D01*
X195798262Y-59093972D01*
X195668028Y-58963738D01*
X195514889Y-58861414D01*
X195344729Y-58790932D01*
X195164089Y-58755000D01*
X194979911Y-58755000D01*
X194799271Y-58790932D01*
X194629111Y-58861414D01*
X194475972Y-58963738D01*
X194345738Y-59093972D01*
X194243414Y-59247111D01*
X194172932Y-59417271D01*
X194148847Y-59538351D01*
X193302196Y-60385003D01*
X192235617Y-59610088D01*
X195145132Y-57064263D01*
X195909120Y-58115802D01*
G36*
X209839738Y-59016028D02*
G01*
X209969972Y-59146262D01*
X210008915Y-59172283D01*
X209405207Y-59775992D01*
X209433068Y-59708729D01*
X209457153Y-59587648D01*
X209552996Y-59491805D01*
X209582000Y-59468002D01*
X209654594Y-59379546D01*
X209676973Y-59352278D01*
X209747545Y-59220248D01*
X209758236Y-59185003D01*
X209791002Y-59076987D01*
X209801999Y-58965334D01*
X209801999Y-58965325D01*
X209802495Y-58960290D01*
X209839738Y-59016028D01*
X209839738Y-59016028D01*
G37*
X209839738Y-59016028D02*
X209969972Y-59146262D01*
X210008915Y-59172283D01*
X209405207Y-59775992D01*
X209433068Y-59708729D01*
X209457153Y-59587648D01*
X209552996Y-59491805D01*
X209582000Y-59468002D01*
X209654594Y-59379546D01*
X209676973Y-59352278D01*
X209747545Y-59220248D01*
X209758236Y-59185003D01*
X209791002Y-59076987D01*
X209801999Y-58965334D01*
X209801999Y-58965325D01*
X209802495Y-58960290D01*
X209839738Y-59016028D01*
G36*
X212609539Y-57864738D02*
G01*
X212400801Y-57656000D01*
X212677362Y-57656000D01*
X212609539Y-57864738D01*
X212609539Y-57864738D01*
G37*
X212609539Y-57864738D02*
X212400801Y-57656000D01*
X212677362Y-57656000D01*
X212609539Y-57864738D01*
G36*
X220993596Y-54771699D02*
G01*
X220981609Y-54777513D01*
X220881877Y-54853008D01*
X220798790Y-54946510D01*
X220127695Y-55870193D01*
X217981140Y-55870193D01*
X217943807Y-55866516D01*
X217906474Y-55870193D01*
X217794821Y-55881190D01*
X217651560Y-55924647D01*
X217519531Y-55995219D01*
X217403806Y-56090192D01*
X217380008Y-56119191D01*
X216814712Y-56684487D01*
X216060412Y-56684487D01*
X216042270Y-56582896D01*
X215996680Y-56466416D01*
X215929243Y-56361069D01*
X215842549Y-56270901D01*
X215739930Y-56199380D01*
X215625329Y-56149252D01*
X214008533Y-55623923D01*
X213886355Y-55597117D01*
X213761295Y-55594661D01*
X213638159Y-55616650D01*
X213521679Y-55662240D01*
X213416331Y-55729677D01*
X213326164Y-55816371D01*
X213254643Y-55918990D01*
X213204515Y-56033591D01*
X213171240Y-56136000D01*
X212850000Y-56136000D01*
X212850000Y-55037000D01*
X212944089Y-55037000D01*
X213124729Y-55001068D01*
X213294889Y-54930586D01*
X213448028Y-54828262D01*
X213578262Y-54698028D01*
X213680586Y-54544889D01*
X213740492Y-54400261D01*
X213797134Y-54400261D01*
X213815276Y-54501852D01*
X213860866Y-54618332D01*
X213928303Y-54723679D01*
X214014997Y-54813847D01*
X214117616Y-54885368D01*
X214232217Y-54935496D01*
X215849013Y-55460825D01*
X215971191Y-55487631D01*
X216096251Y-55490087D01*
X216219387Y-55468098D01*
X216335867Y-55422508D01*
X216441215Y-55355071D01*
X216531382Y-55268377D01*
X216602903Y-55165758D01*
X216653031Y-55051157D01*
X217271065Y-53149044D01*
X217297871Y-53026866D01*
X217300327Y-52901806D01*
X217278338Y-52778670D01*
X217232748Y-52662190D01*
X217165311Y-52556843D01*
X217078617Y-52466675D01*
X216975998Y-52395154D01*
X216861397Y-52345026D01*
X216405820Y-52197000D01*
X217131548Y-52197000D01*
X220993596Y-54771699D01*
X220993596Y-54771699D01*
G37*
X220993596Y-54771699D02*
X220981609Y-54777513D01*
X220881877Y-54853008D01*
X220798790Y-54946510D01*
X220127695Y-55870193D01*
X217981140Y-55870193D01*
X217943807Y-55866516D01*
X217906474Y-55870193D01*
X217794821Y-55881190D01*
X217651560Y-55924647D01*
X217519531Y-55995219D01*
X217403806Y-56090192D01*
X217380008Y-56119191D01*
X216814712Y-56684487D01*
X216060412Y-56684487D01*
X216042270Y-56582896D01*
X215996680Y-56466416D01*
X215929243Y-56361069D01*
X215842549Y-56270901D01*
X215739930Y-56199380D01*
X215625329Y-56149252D01*
X214008533Y-55623923D01*
X213886355Y-55597117D01*
X213761295Y-55594661D01*
X213638159Y-55616650D01*
X213521679Y-55662240D01*
X213416331Y-55729677D01*
X213326164Y-55816371D01*
X213254643Y-55918990D01*
X213204515Y-56033591D01*
X213171240Y-56136000D01*
X212850000Y-56136000D01*
X212850000Y-55037000D01*
X212944089Y-55037000D01*
X213124729Y-55001068D01*
X213294889Y-54930586D01*
X213448028Y-54828262D01*
X213578262Y-54698028D01*
X213680586Y-54544889D01*
X213740492Y-54400261D01*
X213797134Y-54400261D01*
X213815276Y-54501852D01*
X213860866Y-54618332D01*
X213928303Y-54723679D01*
X214014997Y-54813847D01*
X214117616Y-54885368D01*
X214232217Y-54935496D01*
X215849013Y-55460825D01*
X215971191Y-55487631D01*
X216096251Y-55490087D01*
X216219387Y-55468098D01*
X216335867Y-55422508D01*
X216441215Y-55355071D01*
X216531382Y-55268377D01*
X216602903Y-55165758D01*
X216653031Y-55051157D01*
X217271065Y-53149044D01*
X217297871Y-53026866D01*
X217300327Y-52901806D01*
X217278338Y-52778670D01*
X217232748Y-52662190D01*
X217165311Y-52556843D01*
X217078617Y-52466675D01*
X216975998Y-52395154D01*
X216861397Y-52345026D01*
X216405820Y-52197000D01*
X217131548Y-52197000D01*
X220993596Y-54771699D01*
G36*
X214440583Y-52229365D02*
G01*
X214229094Y-52880261D01*
X213351072Y-52880261D01*
X213313739Y-52876584D01*
X213276406Y-52880261D01*
X213164753Y-52891258D01*
X213021492Y-52934715D01*
X212889463Y-53005287D01*
X212850000Y-53037673D01*
X212850000Y-52197000D01*
X214454740Y-52197000D01*
X214440583Y-52229365D01*
X214440583Y-52229365D01*
G37*
X214440583Y-52229365D02*
X214229094Y-52880261D01*
X213351072Y-52880261D01*
X213313739Y-52876584D01*
X213276406Y-52880261D01*
X213164753Y-52891258D01*
X213021492Y-52934715D01*
X212889463Y-53005287D01*
X212850000Y-53037673D01*
X212850000Y-52197000D01*
X214454740Y-52197000D01*
X214440583Y-52229365D01*
G36*
X204108938Y-52880261D02*
G01*
X203854905Y-52880261D01*
X203643416Y-52229365D01*
X203629259Y-52197000D01*
X204792199Y-52197000D01*
X204108938Y-52880261D01*
X204108938Y-52880261D01*
G37*
X204108938Y-52880261D02*
X203854905Y-52880261D01*
X203643416Y-52229365D01*
X203629259Y-52197000D01*
X204792199Y-52197000D01*
X204108938Y-52880261D01*
M02*
